<?xml version="1.0" encoding="utf-8"?>
<!-- Generator: Adobe Illustrator 25.2.0, SVG Export Plug-In . SVG Version: 6.00 Build 0)  -->
<svg version="1.1" id="图层_1" xmlns="http://www.w3.org/2000/svg" xmlns:xlink="http://www.w3.org/1999/xlink" x="0px" y="0px"
	 viewBox="0 0 712 203.85" style="enable-background:new 0 0 712 203.85;" xml:space="preserve">
<style type="text/css">
	.st0{fill:#003F43;}
	.st1{fill-rule:evenodd;clip-rule:evenodd;fill:#F2B1AD;}
	.st2{fill-rule:evenodd;clip-rule:evenodd;fill:#E25B3C;}
	.st3{fill-rule:evenodd;clip-rule:evenodd;fill:#F39800;}
	.st4{fill-rule:evenodd;clip-rule:evenodd;fill:#006979;}
	.st5{fill-rule:evenodd;clip-rule:evenodd;fill:#0093B4;}
</style>
<polygon class="st0" points="83.84,103.42 126.7,35.44 155.7,35.44 155.7,169.05 122.38,169.05 122.38,96.73 83.79,159.89 
	45.2,96.73 45.2,169.05 39.89,169.05 1.48,169.05 1.48,142.32 11.5,142.32 11.5,62.18 1.48,62.18 1.48,35.44 39.89,35.44 
	40.89,35.44 "/>
<rect x="257.67" y="35.44" class="st1" width="64.03" height="26.74"/>
<rect x="257.67" y="88.91" class="st2" width="64.03" height="26.74"/>
<rect x="257.67" y="142.32" class="st3" width="64.03" height="26.74"/>
<rect x="188.32" y="115.65" class="st4" width="69.4" height="26.74"/>
<rect x="155.7" y="8.7" class="st0" width="101.97" height="26.74"/>
<rect x="188.32" y="62.17" class="st5" width="69.4" height="26.74"/>
<rect x="155.7" y="169.05" class="st0" width="101.97" height="26.74"/>
<polygon class="st0" points="541.49,167.76 541.49,164.41 531.1,164.41 531.1,147.09 540.72,147.09 540.72,143.76 516.12,143.76 
	516.12,147.09 525.98,147.09 525.98,164.41 515.65,164.41 515.65,167.76 "/>
<polygon class="st0" points="354.62,149.41 354.62,146.33 351.57,146.33 351.54,143.76 347.93,143.76 347.93,146.33 344.93,146.33 
	344.93,149.41 347.93,149.41 347.9,168.89 351.54,168.89 351.56,149.41 "/>
<polygon class="st0" points="347.22,167.6 347.22,151.32 346.88,151.32 345.13,151.32 345.13,164.42 344.09,164.42 344.09,167.6 
	346.88,167.6 "/>
<path class="st0" d="M368.34,165.52V144.7h-11.23v21.07h-1.64v-1.35h-1.04v-13.1h-1.75h0h-0.35v16.28h0.35h0h2.95v1.32h5.79l0-21.03
	h2.64v18.03c0,0.67,0.38,1.42,0.94,2.01c0.52,0.56,1.2,0.95,1.83,0.95l3.71,0.03v-3.15h-2.19V165.52z"/>
<path class="st0" d="M418.57,152.34v-3.64h19.88v-3.58h-19.88v-1.35h-4.53v8.83h-0.86v3.21h20.31v9.63h-8.71v3.27h13.65v-16.11
	h-19.87V152.34z M431.7,158.88h-18.53v3.29h18.53V158.88z"/>
<path class="st0" d="M451.55,156.49v-1.67h5.15l0,1.92h-5.15V156.49z M451.55,160.95v-1.67h5.16l0.01,1.92h-5.16V160.95z
	 M473.14,168.98v-3.37H468c-0.29,0-0.65-0.05-0.92-0.21c-0.23-0.14-0.38-0.36-0.38-0.69v-1.4h6.32v-5.74h-3.93v2.64h-2.39v-2.96
	h-4.26v7.94c0,0.88,0.18,1.64,0.58,2.24c0.4,0.59,1.02,1.04,1.9,1.31c0.22,0.06,0.48,0.12,0.74,0.16c0.2,0.03,0.4,0.05,0.59,0.05
	L473.14,168.98z M473.14,155.5v-3.37H468c-0.29,0-0.65-0.05-0.92-0.21c-0.23-0.14-0.38-0.36-0.38-0.69v-1.4h6.32v-5.74h-3.93v2.52
	h-2.39v-2.84h-4.26v7.94c0,0.88,0.18,1.64,0.58,2.24c0.4,0.59,1.02,1.04,1.9,1.31c0.22,0.06,0.48,0.12,0.74,0.16
	c0.2,0.03,0.4,0.05,0.59,0.05L473.14,155.5z M451.92,147.86l2.19-4.09h-5.04l-2.09,3.9v3.09h13.64v-3.09l-1.03-1.93h-4.38l1.09,2.12
	H451.92z M456.45,165.63h-2.48v3.35h6.78V152.3h-13.43v16.68h4.23v-5.24h5.16v1.89H456.45z"/>
<path class="st0" d="M502.63,156.95h-4.45v-2.12h4.71v2.12H502.63z M502.63,152.69h-4.45v-2.12h4.71v2.12H502.63z M487.37,146.37
	h-1.7l-0.73-2.59h-4.17l1.63,5.82h4.96V146.37z M487.49,154.2h-1.7l-0.73-2.59h-4.17l1.63,5.82h4.96V154.2z M481.91,165.8h-1.04
	v3.23h4.87l1.75-9.87h-4.18l-1.18,6.64H481.91z M507.65,165.24h-0.79l-0.73-4.02h-2.58l1.3,7.25h2.8V165.24z M507.85,146.74v-2.97
	h-19v22.2h-1.15v3.09h5l0-0.59h3.54l1.12-7.25h-2.93l-0.54,4.02h-1.2c0.01-5.91,0.02-12.53,0.02-18.44l5.9-0.07l-0.7,1.64h-3.64
	v10.89h4.4v6.42h-1.27v3.38h5.13v-9.8h1.31c0.76,0,1.44-0.21,1.92-0.63c0.43-0.37,0.69-0.91,0.69-1.61l0.03-8.64h-4.58l0.7-1.63
	H507.85z"/>
<path class="st0" d="M575.88,144.02h-12.51v8.63h12.51V144.02z M571.6,149.8h-4.21v-3.01h4.47v3.01H571.6z"/>
<polygon class="st0" points="575.94,168.88 575.94,165.84 572.05,165.84 572.05,162.84 575.94,162.84 575.94,159.92 572.05,159.92 
	572.05,157.46 575.94,157.46 575.94,154.24 563.55,154.24 563.55,157.46 567.5,157.46 567.5,159.92 563.46,159.92 563.46,162.84 
	567.5,162.84 567.5,165.7 563.31,165.7 563.31,168.88 "/>
<polygon class="st0" points="561.93,147.82 561.93,143.76 558.15,143.76 558.15,144.65 550.42,144.65 550.42,147.82 553.93,147.82 
	553.93,149.11 549.98,149.11 549.98,152.4 553.93,152.4 553.93,168.92 558.07,168.92 558.07,152.4 562.19,152.4 562.19,149.23 
	558.12,149.23 558.12,147.82 "/>
<polygon class="st0" points="549.9,167.89 552.91,167.89 552.91,154.24 552.91,154.18 550.82,154.18 550.82,164.72 549.78,164.72 
	549.78,167.89 "/>
<polygon class="st0" points="559.15,154.24 559.15,167.89 562.17,167.89 562.29,167.89 562.29,164.72 561.25,164.72 561.25,154.18 
	559.15,154.18 "/>
<path class="st0" d="M585.38,165.49h-1.34v3.32h5.03l2.38-7.09h-4.62l-1.27,3.77H585.38z M609.87,165.49h-1.53l-1.26-3.77h-4.62
	l2.38,7.09h5.03V165.49z M610.11,143.76h-5.89v0.88h-20.04v2.83l5.92,0.09l-5.66,3.46v2.79l7.62,0.03l-7.89,4.2v2.32h10.06v8.52
	h5.33v-8.52h9.92v-3.63l-1.6-2.87h-5.09l1.71,3.06h-9.69l14.21-7.54h-8.4l-2.61,1.42h-5.02c2.04-1.12,4.09-2.23,6.13-3.35l10.98,0
	V143.76z"/>
<path class="st0" d="M388.23,149.41v-3.08h-3.05l-0.03-2.57h-3.61v2.57h-3v3.08h3l-0.03,19.62h3.64l0.03-19.62H388.23z
	 M386.34,167.6v-0.1h2.48v-2.9h-0.83v-13.28h-1.65h-0.1h-0.24v16.28H386.34z M380.88,167.6v-16.28h-0.35h0h-1.75v13.28h-0.51v2.9
	h2.26v0.1H380.88z M397.68,156.83h-0.91l-0.03-5.5h-2.86v5.5h-1.3v-5.5h-2.8v5.5h-0.89v3.08h0.89v9.12h2.8v-9.12h1.3v9.14h2.89
	v-9.14h1.3l0.25,6.64c0.02,0.6,0.28,1.13,0.68,1.53c0.41,0.4,0.96,0.66,1.58,0.71l0.08,0.01h4v-3.04h-2.84l-0.14-3.58h2.98v-10.85
	h-2.25v7.81h-0.84l-0.35-9.74h3.62l-0.01-3.08h-0.01V144h-2.4v2.31l-1.32,0l-0.1-2.3h-3.53l0.1,2.3l-8.32,0v3.08h8.44l0.27,7.44
	H397.68z"/>
<polygon class="st0" points="601.23,60.48 593.04,60.48 593.04,57.19 595.12,57.19 595.12,38.93 593.04,38.93 593.04,35.63 
	608.89,35.63 608.89,43.24 605.12,43.24 605.12,38.93 599.18,38.93 599.18,46.06 606.68,46.06 606.68,49.47 599.18,49.47 
	599.18,57.19 601.23,57.19 "/>
<path class="st0" d="M589.21,40.47v15.51c0,1.38-0.45,2.51-1.34,3.38c-0.9,0.87-2.06,1.3-3.49,1.3h-6.46
	c-1.6-0.02-2.8-0.48-3.6-1.36c-0.82-0.91-1.24-2.1-1.25-3.57V40.82c0-1.69,0.46-3.01,1.37-3.96c0.91-0.95,2.17-1.43,3.78-1.43h6.05
	c1.6,0,2.87,0.55,3.82,1.65C588.84,38,589.21,39.12,589.21,40.47 M582.78,38.72h-3.14c-0.93,0-1.58,0.18-1.96,0.57
	c-0.37,0.38-0.56,1.03-0.56,1.98v13.45c0,1,0.14,1.69,0.42,2.07c0.28,0.38,0.79,0.57,1.52,0.57h3.85c0.86,0,1.45-0.18,1.78-0.56
	c0.34-0.38,0.5-1.03,0.5-1.96V41.27c0-0.9-0.19-1.55-0.56-1.94C584.26,38.93,583.64,38.72,582.78,38.72z"/>
<polygon class="st0" points="550.46,60.48 542.16,60.48 542.16,57.19 544.4,57.19 544.4,38.93 540.75,38.93 540.75,42.55 
	536.92,42.55 536.92,35.63 555.8,35.63 555.8,42.55 552.04,42.55 552.04,38.93 548.41,38.93 548.41,57.19 550.46,57.19 "/>
<polygon class="st0" points="532.82,60.48 528.97,60.48 519.69,42.56 519.69,60.48 513.75,60.48 513.75,57.19 515.87,57.19 
	515.87,38.93 513.75,38.93 513.75,35.63 520.3,35.63 528.97,52.23 528.97,35.63 534.92,35.63 534.92,39.12 532.82,39.12 "/>
<polygon class="st0" points="511.65,60.48 494.56,60.48 494.56,57.19 496.66,57.19 496.66,38.93 494.56,38.93 494.56,35.63 
	511.41,35.63 511.41,43.22 507.6,43.22 507.6,38.93 500.75,38.93 500.75,46.1 508.25,46.1 508.25,49.48 500.75,49.48 500.75,57.19 
	507.8,57.19 507.8,52.59 511.65,52.59 "/>
<polygon class="st0" points="492.16,60.48 486.19,60.48 486.19,41.78 480.72,53.56 477.91,53.56 472.61,42.2 472.61,60.48 
	466.69,60.48 466.69,57.19 468.92,57.19 468.92,38.93 466.69,38.93 466.69,35.63 473.13,35.63 479.34,49.06 485.46,35.63 
	492.16,35.63 492.16,38.93 490.02,38.93 490.02,57.19 492.16,57.19 "/>
<polygon class="st0" points="459.03,60.48 450.74,60.48 450.74,57.19 452.97,57.19 452.97,38.93 449.32,38.93 449.32,42.55 
	445.49,42.55 445.49,35.63 464.37,35.63 464.37,42.55 460.61,42.55 460.61,38.93 456.98,38.93 456.98,57.19 459.03,57.19 "/>
<path class="st0" d="M445.1,60.48h-6.2V52.1c0-0.88-0.18-1.49-0.54-1.84c-0.36-0.35-1-0.53-1.92-0.53h-4.63v10.74h-6.18v-3.29h2.05
	V38.93h-2.05v-3.29h11.7c3.5,0.05,5.26,1.85,5.3,5.41v2.25c0,1.3-0.19,2.3-0.56,3c-0.38,0.7-1.05,1.27-1.99,1.7
	c0.95,0.17,1.68,0.53,2.17,1.07c0.49,0.55,0.74,1.27,0.74,2.17v5.95h2.1V60.48z M431.82,46.39h4.17c0.96,0,1.63-0.16,2.03-0.49
	c0.4-0.33,0.6-0.88,0.6-1.67v-2.48c0-1.05-0.18-1.79-0.54-2.2c-0.36-0.42-1-0.62-1.93-0.62h-4.32V46.39z"/>
<path class="st0" d="M422.96,60.48h-5.71l-1.58-7.9h-5.77l-1.62,7.9h-5.77v-3.29h2.08l5.02-21.55h6.34l4.94,21.55h2.04V60.48z
	 M414.99,49.28l-2.16-11.14l-2.23,11.14H414.99z"/>
<path class="st0" d="M391.85,49.81v7.38h2.12v3.29h-8.19v-3.29h2.08V38.93h-2.08v-3.29h11.64c1.78,0.02,3.12,0.49,4,1.4
	c0.84,0.85,1.27,1.99,1.28,3.42v4.23c-0.03,1.69-0.6,3.01-1.71,3.95c-0.99,0.79-2.17,1.18-3.58,1.18H391.85z M391.85,46.46h3.92
	c1.16,0,1.94-0.17,2.35-0.51c0.4-0.35,0.61-1,0.61-1.96v-2.4c0-1-0.17-1.68-0.51-2.07c-0.35-0.4-0.95-0.58-1.84-0.58h-4.54V46.46z"
	/>
<polygon class="st0" points="382.61,60.48 365.52,60.48 365.52,57.19 367.62,57.19 367.62,38.93 365.52,38.93 365.52,35.63 
	382.37,35.63 382.37,43.22 378.55,43.22 378.55,38.93 371.71,38.93 371.71,46.1 379.2,46.1 379.2,49.48 371.71,49.48 371.71,57.19 
	378.76,57.19 378.76,52.59 382.61,52.59 "/>
<path class="st0" d="M344.57,60.48v-3.29h2.16V38.93h-2.16v-3.29h12.67c1.6,0,2.86,0.57,3.8,1.69c0.77,0.95,1.16,2.11,1.16,3.48
	v14.62c0,1.6-0.46,2.84-1.4,3.73c-0.93,0.88-2.24,1.33-3.91,1.33H344.57z M350.71,57.19h4.93c0.97,0,1.63-0.19,1.96-0.56
	c0.34-0.36,0.51-1.08,0.51-2.14V41.72c0.09-1.88-0.68-2.82-2.32-2.8h-5.08V57.19z"/>
<path class="st0" d="M624.11,76.85l-1.79,0.08v-5.38h13.66c1.99,0,3.45,0.49,4.37,1.47c0.92,0.99,1.38,2.56,1.38,4.7V90.6
	c0,1.14-0.08,2.03-0.25,2.68c-0.17,0.66-0.46,1.23-0.89,1.72c-0.99,1.16-2.52,1.75-4.61,1.77h-13.66V91.4l1.79,0.07V76.85z
	 M634.86,76.85h-3.89v14.62h3.89V76.85z M634.86,91.47V76.85V91.47z"/>
<polygon class="st0" points="597.28,96.78 597.28,91.4 599.07,91.47 599.07,76.85 597.28,76.93 597.28,71.55 605.45,71.55 
	611.7,83.97 611.7,71.55 619.85,71.55 619.85,76.93 618.06,76.85 618.06,91.47 619.85,91.4 619.85,96.78 611.7,96.78 605.5,84.45 
	605.5,96.78 "/>
<path class="st0" d="M573.06,96.78V91.4l1.79,0.07l3.75-19.92h10.86l3.87,19.92l1.78-0.07v5.38h-8.22l-0.84-6.16h-3.92l-0.8,6.16
	H573.06z M582.59,86.25h3.07l-1.58-9.89L582.59,86.25z"/>
<polygon class="st0" points="545.65,96.78 545.65,91.4 547.44,91.47 547.44,76.85 545.65,76.93 545.65,71.55 556.08,71.55 
	556.08,76.93 554.3,76.85 554.3,91.47 557.38,91.47 557.38,87.06 563.81,87.06 563.81,96.78 "/>
<path class="st0" d="M521.43,96.78V91.4l1.79,0.07l3.75-19.92h10.87l3.87,19.92l1.79-0.07v5.38h-8.22l-0.84-6.16h-3.93l-0.8,6.16
	H521.43z M530.96,86.25h3.07l-1.58-9.89L530.96,86.25z"/>
<path class="st0" d="M518.74,87.46v9.32h-11.29c-3.9,0.07-5.82-1.69-5.74-5.31V77.61c0-1.28,0.11-2.27,0.32-2.97
	c0.21-0.7,0.6-1.29,1.16-1.78c0.94-0.85,2.36-1.29,4.26-1.31h11.05v8.07h-5.91v-2.77h-4.02v14.62h4.02v-4.01H518.74z"/>
<polygon class="st0" points="488.7,96.78 488.7,91.4 490.49,91.47 490.49,76.85 488.7,76.93 488.7,71.55 498.92,71.55 498.92,76.93 
	497.35,76.85 497.35,91.47 498.92,91.4 498.92,96.78 "/>
<polygon class="st0" points="463.66,96.78 463.66,91.4 465.45,91.47 465.45,76.85 463.66,76.93 463.66,71.55 471.83,71.55 
	478.08,83.97 478.08,71.55 486.23,71.55 486.23,76.93 484.45,76.85 484.45,91.47 486.23,91.4 486.23,96.78 478.08,96.78 
	471.89,84.45 471.89,96.78 "/>
<path class="st0" d="M439.44,96.78V91.4l1.79,0.07l3.75-19.92h10.86l3.87,19.92l1.79-0.07v5.38h-8.22l-0.84-6.16h-3.93l-0.8,6.16
	H439.44z M448.97,86.25h3.07l-1.58-9.89L448.97,86.25z"/>
<polygon class="st0" points="416.31,96.78 416.31,91.4 418.1,91.47 418.1,76.85 416.31,76.93 416.31,71.55 424.93,71.55 
	424.93,81.37 428.66,81.37 428.66,71.55 437.31,71.55 437.31,76.93 435.53,76.85 435.53,91.47 437.31,91.4 437.31,96.78 
	428.66,96.78 428.66,86.6 424.93,86.6 424.93,96.78 "/>
<path class="st0" d="M413.45,87.46v9.32h-11.3c-3.91,0.07-5.82-1.69-5.75-5.31V77.61c0-1.28,0.11-2.27,0.33-2.97
	c0.21-0.7,0.6-1.29,1.16-1.78c0.95-0.85,2.36-1.29,4.26-1.31h11.05v8.07h-5.91v-2.77h-4.02v14.62h4.02v-4.01H413.45z"/>
<polygon class="st0" points="375.31,96.78 375.31,91.4 377.09,91.47 377.09,76.85 375.31,76.93 375.31,71.55 393.62,71.55 
	393.62,79.63 387.79,79.63 387.79,76.85 383.96,76.85 383.96,81.64 389.26,81.64 389.26,86.19 383.96,86.19 383.96,91.47 
	387.79,91.47 387.79,88.26 393.86,88.26 393.86,96.78 "/>
<polygon class="st0" points="344.58,96.78 344.58,91.4 346.37,91.47 346.37,76.85 344.58,76.93 344.58,71.55 352.71,71.55 
	358.7,82.62 364.75,71.55 372.83,71.55 372.83,76.93 371.05,76.85 371.05,91.47 372.83,91.4 372.83,96.78 364.58,96.78 
	364.58,83.46 358.7,93.97 352.84,83.46 352.84,96.78 "/>
<path class="st0" d="M709.93,117.77v15.14h-11.67c-2.02,0-3.49-0.42-4.4-1.26c-0.91-0.84-1.36-2.19-1.36-4.05v-13.86
	c0-1.28,0.11-2.27,0.33-2.97c0.22-0.7,0.61-1.3,1.16-1.78c0.94-0.85,2.36-1.29,4.26-1.31h11.42v7.32h-6.27v-2.01h-4.04v14.62h4.04
	v-4.79h-2.1v-5.04H709.93z"/>
<polygon class="st0" points="666.91,132.9 666.91,127.52 668.69,127.6 668.69,112.98 666.91,113.06 666.91,107.68 675.07,107.68 
	681.33,120.1 681.33,107.68 689.47,107.68 689.47,113.06 687.69,112.98 687.69,127.6 689.47,127.52 689.47,132.9 681.33,132.9 
	675.13,120.58 675.13,132.9 "/>
<polygon class="st0" points="654.22,132.9 654.22,127.52 656.01,127.6 656.01,112.98 654.22,113.06 654.22,107.68 664.44,107.68 
	664.44,113.06 662.87,112.98 662.87,127.6 664.44,127.52 664.44,132.9 "/>
<path class="st0" d="M630.97,132.9v-5.38l1.79,0.08v-14.62l-1.79,0.08v-5.38h13.84c3.87,0,5.75,1.77,5.65,5.31v2.53
	c0,1.27-0.24,2.25-0.73,2.93c-0.49,0.68-1.38,1.28-2.65,1.8c1.13,0.29,2.01,0.85,2.64,1.66c0.31,0.42,0.52,0.85,0.61,1.32
	c0.09,0.45,0.14,1.24,0.14,2.36v2.01l1.79-0.08v5.38h-5.56c-1.25,0-2.08-0.2-2.48-0.6c-0.41-0.4-0.61-1.22-0.61-2.44v-7.17h-3.98
	v10.22H630.97z M639.62,118.01h3.98v-5.03h-3.98V118.01z"/>
<polygon class="st0" points="610.2,132.9 610.2,127.52 611.98,127.6 611.98,112.98 610.2,113.06 610.2,107.68 628.5,107.68 
	628.5,115.75 622.68,115.75 622.68,112.98 618.84,112.98 618.84,117.77 624.14,117.77 624.14,122.31 618.84,122.31 618.84,127.6 
	622.68,127.6 622.68,124.38 628.74,124.38 628.74,132.9 "/>
<polygon class="st0" points="589.42,132.9 589.42,127.52 591.2,127.6 591.2,112.98 589.42,113.06 589.42,107.68 607.72,107.68 
	607.72,115.75 601.9,115.75 601.9,112.98 598.06,112.98 598.06,117.77 603.36,117.77 603.36,122.31 598.06,122.31 598.06,127.6 
	601.9,127.6 601.9,124.38 607.96,124.38 607.96,132.9 "/>
<polygon class="st0" points="564.38,132.9 564.38,127.52 566.16,127.6 566.16,112.98 564.38,113.06 564.38,107.68 572.54,107.68 
	578.8,120.1 578.8,107.68 586.94,107.68 586.94,113.06 585.16,112.98 585.16,127.6 586.94,127.52 586.94,132.9 578.8,132.9 
	572.6,120.58 572.6,132.9 "/>
<polygon class="st0" points="551.69,132.9 551.69,127.52 553.48,127.6 553.48,112.98 551.69,113.06 551.69,107.68 561.91,107.68 
	561.91,113.06 560.34,112.98 560.34,127.6 561.91,127.52 561.91,132.9 "/>
<path class="st0" d="M548.96,117.77v15.14h-11.67c-2.03,0-3.49-0.42-4.39-1.26c-0.91-0.84-1.36-2.19-1.36-4.05v-13.86
	c0-1.28,0.11-2.27,0.33-2.97c0.22-0.7,0.6-1.3,1.16-1.78c0.94-0.85,2.36-1.29,4.26-1.31h11.41v7.32h-6.27v-2.01h-4.04v14.62h4.04
	v-4.79h-2.1v-5.04H548.96z"/>
<polygon class="st0" points="505.94,132.9 505.94,127.52 507.72,127.6 507.72,112.98 505.94,113.06 505.94,107.68 514.1,107.68 
	520.36,120.1 520.36,107.68 528.5,107.68 528.5,113.06 526.72,112.98 526.72,127.6 528.5,127.52 528.5,132.9 520.36,132.9 
	514.16,120.58 514.16,132.9 "/>
<polygon class="st0" points="485.16,132.9 485.16,127.52 486.95,127.6 486.95,112.98 485.16,113.06 485.16,107.68 503.46,107.68 
	503.46,115.75 497.64,115.75 497.64,112.98 493.81,112.98 493.81,117.77 499.11,117.77 499.11,122.31 493.81,122.31 493.81,127.6 
	497.64,127.6 497.64,124.38 503.7,124.38 503.7,132.9 "/>
<polygon class="st0" points="460.25,132.9 460.25,127.52 462.03,127.6 462.03,122.67 457.14,112.98 455.35,113.06 455.35,107.68 
	462.44,107.68 465.47,115.24 468.48,107.68 475.56,107.68 475.56,113.06 473.77,112.98 468.9,122.67 468.9,127.6 470.66,127.52 
	470.66,132.9 "/>
<path class="st0" d="M452.66,117.77v15.14h-11.67c-2.03,0-3.49-0.42-4.4-1.26c-0.91-0.84-1.36-2.19-1.36-4.05v-13.86
	c0-1.28,0.11-2.27,0.33-2.97c0.22-0.7,0.6-1.3,1.16-1.78c0.94-0.85,2.36-1.29,4.26-1.31h11.42v7.32h-6.27v-2.01h-4.04v14.62h4.04
	v-4.79h-2.1v-5.04H452.66z"/>
<path class="st0" d="M411.18,132.9v-5.38l1.78,0.08v-14.62l-1.78,0.08v-5.38h13.84c3.87,0,5.75,1.77,5.65,5.31v2.53
	c0,1.27-0.24,2.25-0.73,2.93c-0.49,0.68-1.38,1.28-2.65,1.8c1.13,0.29,2.01,0.85,2.64,1.66c0.31,0.42,0.51,0.85,0.6,1.32
	c0.1,0.45,0.14,1.24,0.14,2.36v2.01l1.79-0.08v5.38h-5.56c-1.25,0-2.08-0.2-2.48-0.6c-0.41-0.4-0.61-1.22-0.61-2.44v-7.17h-3.98
	v10.22H411.18z M419.83,118.01h3.98v-5.03h-3.98V118.01z"/>
<polygon class="st0" points="390.4,132.9 390.4,127.52 392.18,127.6 392.18,112.98 390.4,113.06 390.4,107.68 408.71,107.68 
	408.71,115.75 402.89,115.75 402.89,112.98 399.05,112.98 399.05,117.77 404.35,117.77 404.35,122.31 399.05,122.31 399.05,127.6 
	402.89,127.6 402.89,124.38 408.95,124.38 408.95,132.9 "/>
<polygon class="st0" points="365.36,132.9 365.36,127.52 367.15,127.6 367.15,112.98 365.36,113.06 365.36,107.68 373.53,107.68 
	379.78,120.1 379.78,107.68 387.93,107.68 387.93,113.06 386.14,112.98 386.14,127.6 387.93,127.52 387.93,132.9 379.78,132.9 
	373.58,120.58 373.58,132.9 "/>
<polygon class="st0" points="344.58,132.9 344.58,127.52 346.37,127.6 346.37,112.98 344.58,113.06 344.58,107.68 362.89,107.68 
	362.89,115.75 357.06,115.75 357.06,112.98 353.23,112.98 353.23,117.77 358.53,117.77 358.53,122.31 353.23,122.31 353.23,127.6 
	357.06,127.6 357.06,124.38 363.13,124.38 363.13,132.9 "/>
<rect x="344.45" y="146.34" class="st0" width="10.66" height="3.11"/>
</svg>
