<?xml version="1.0" encoding="UTF-8"?>
<svg id="_圖層_1" data-name="圖層_1" xmlns="http://www.w3.org/2000/svg" version="1.1" viewBox="0 0 570.2 104.8">
  <!-- Generator: Adobe Illustrator 29.1.0, SVG Export Plug-In . SVG Version: 2.1.0 Build 142)  -->
  <defs>
    <style>
      .st0 {
        fill: #f2deaf;
      }

      .st1 {
        fill: #6e1e6f;
      }

      .st2 {
        fill: #231f20;
        fill-rule: evenodd;
      }

      .st3 {
        fill: #e5a923;
      }
    </style>
  </defs>
  <g>
    <g>
      <path class="st2" d="M175.1,33.7c-.1-.2-.3-.2-.6-.2-3.3-.4-6.2-1.1-8.5-2.3-2.1-1-4.4-2.6-6.8-4.6,1.4-.2,3-.3,4.9-.3,3,0,3.7-.1,3.9-.2.5-.1.6-.4.6-.7,0-.5-.3-.9-.9-1.2-.5-.3-1.1-.4-1.7-.4s-1.5.2-3.1.6c0,0-3.4.7-4.5.9,0-.5.3-1.6.3-1.6,0,0,.2-.3.2-.3h0l.2-.6c0-.5-.5-.9-1.5-1.3,2.3-.6,4.3-1,5.9-1.3.5,0,.5-.3.5-.4,0-.2-.1-.5-1.5-1.5-1-.7-1.7-1.1-2.2-1.1s-.3,0-.4.2c0,0-.2.6-.3.8-.9.8-3.6,2.1-8.1,3.9h-.3c0,.1.4.7.4.7h.1c1.4,0,2.8-.3,4.3-.7h0c0,0,.4,1.8.4,1.8.1.6.2,1.2.2,1.7s0,0,0,0c-.4,0-4.9.8-4.9.8-2.3.4-4.2.7-5.7.8h-.6s.4.5.4.5c.9.8,1.6,1.3,2.3,1.3s.6,0,2.4-.4c0,0,2.3-.5,3.5-.7-2.8,4-6.8,7.2-11.9,9.5h-.2v.4c0,0,0,.3.4.3.8,0,1.9-.3,3.3-.8,1.4-.6,2.6-1.2,3.6-1.9,1-.7,2-1.5,3-2.3.9-.9,1.8-1.8,2.6-2.7,0,0,1.2-1.5,1.8-2.4,0,1.1-.2,2-.4,2.8-.3,1.1-.4,1.7-.4,2.1,0,.6.2,1.3.7,2h0s.1.1.1.1h0c0,0,.4.2.4.2.3,0,.6-.4.9-1.4.3-.8.4-1.9.4-3,0,0,0-2-.1-3,.7.9,2.1,2.3,4.2,4.3,2.6,2.5,4.4,3.7,5.4,3.7s3.4-.4,7-1.1h.2s0-.2,0-.2c0,0,0-.1,0-.2,0-.1,0-.2,0-.3ZM163,34.6c-1-.4-1.8-.7-2.3-.7,0,0-1.9.7-1.9.7-1.4.4-2.7.7-3.9.9l-1.9.2-.6-.2-1.1-.2c-.7,0-.8.4-.8.6,0,.1.5,1.3.5,1.3.1.4.3,1,.3,1.8v2.8c.1,1.1,0,1.9,0,2.4l-.2,1.3c0,.8.2,1.5.5,2.2.4.8.6,1.2.9,1.2.3,0,.6-.3.8-2.9.2,0,.5,0,.5,0l2.6-.3,2.2-.3c.3,0,.6,0,.7.3.2.2.4.6.6,1l.6,1.6.5,1.4h.1s.5.1.5.1h0c1.5-1.3,2.2-3.4,2.2-6.3v-4.2c-.1-1.8,0-2.4.2-2.6.4-.5.5-.7.5-.9,0-.4-.5-.8-1.6-1.3ZM161.1,44.7c-.2-.2-.4-.4-.4-.4-.4-.5-.9-.7-1.3-.7s-1.6.2-3.1.5c-1.3.3-2.2.4-2.8.5,0-.5,0-2.8,0-3.2,1.2,0,2.5-.1,3.9-.4,2.4-.4,2.5-.5,2.5-.6,0,0,.1-.3.1-.3,0-.3-.2-.6-.7-.9-.4-.2-.9-.3-1.3-.3s-1.2.2-2,.4l-1.5.5s-.6.1-1,.2c0-.3,0-.5,0-.8,0-.7,0-1.4,0-2.2.8,0,1.6,0,2.4-.3,2.2-.5,3.7-.7,4.4-.7s.5,0,.7.2c.2.1.3.3.3.5v2c.1,0,.3,2.9.3,2.9,0,1.8,0,2.6-.2,3Z"/>
      <path class="st2" d="M221.9,37.9c-3.7-1.1-6.4-2.2-8-3.1-1.5-.9-3.5-2.4-6.1-4.6,1.7-.3,3.5-.5,5.1-.5h3.4c.7-.2.8-.5.8-.7s-.2-.6-.8-1.1c-.5-.4-1.1-.7-1.7-.7-1.2,0-3.1.4-5.7,1.1.2-.7.9-3.2,1-3.5.3,0,1.1-.2,1.1-.2,0,0,1.9-.2,1.9-.2.7,0,1.7-.2,1.7-.9s-.3-1-1.7-1-1.2.1-2.2.4c.3-.8,1.7-3.7,1.7-3.7h0c-.1-.5-.6-.8-1.6-1.2-.9-.4-1.5-.6-1.9-.6h0s0,0,0,0c-.2.2-.3.4-.3.6l.3.9c.2.4.3.8.3,1.4s-.2,1.4-.4,3c-.3,0-3.9.8-4.5.9,0-.4,0-1.5,0-1.5l.2-2.1h-.1c-1-.8-2-1.1-2.9-1.1s-.7.4-.7.5,0,.1.6,1.1c.3.6.6,1.3.7,2.1,0,0,.2.9.3,1.4-.5,0-4,.8-4,.8l.4.4c.6.5,1.2.8,2,.8s1-.1,1.7-.3c0,.5.4,2.8.4,3.2-2.3.5-4.6.8-6.6,1h-.5s.3.4.3.4c.5.7,1.4,1.1,2.4,1.1s1.3-.1,2.1-.3c0,0,.7-.2,1.2-.3-1.3,3.8-4.1,7.3-8.5,10.5h-.1c.1-.3.3-.7.5-1.2,0,0,3.3-7.1,3.3-7.1h-.8s-2.3,2.9-2.3,2.9c-1,1.4-1.7,2.2-2.2,2.6-.4.3-.8.5-1.2.5-.6,0-.9.2-.9.6,0,.5.2,1.4.6,2.7.4,1.5.9,2.1,1.5,2.1s.9-1,.9-1.4c0-.4.2-.9.4-1.5l.4.3h.1c2.9-.9,5.3-2.7,7.2-5.5.2.9.3,2,.3,3.2v3c-.1,1.1.3,2.1,1.1,3.1.8,1,2.5,1.4,5.2,1.4s3.3-.2,4.8-.5c1.6-.4,2.4-.9,2.4-1.7s-.3-.7-.8-.9l-1.1-.3c-.3,0-.7.1-1.1.3-.3.2-1,.4-1.9.6-.9.2-2,.3-3.1.3s-2.1-.1-2.6-.3c-.5-.2-.8-.7-.9-1.4,0,0-.1-1.5-.2-2.1.3,0,.7,0,.7,0,.4,0,1.3-.1,2.9-.4,2.5-.4,2.7-.7,2.8-.8l.3-.6c0-.5-.4-.7-.8-.8.2-.4.6-1.4.6-1.4.1-.3.4-.6.7-.8.5-.3.7-.6.7-.8,0-.4-.4-.8-1.4-1.3-.9-.5-1.5-.7-1.8-.7-.1,0-1.6.7-1.6.7l-1.7.6c-.6.2-1.2.2-1.8.2,0,0-.3,0-.5,0,.4-.5,1.2-1.5,1.2-1.5,1.3-1.7,1.3-1.7,1.3-1.8,0-.2-.2-.5-.9-1.1.8-.2,2.7-.5,3-.6.2.2,3.6,4,3.6,4,1.3,1.4,2.4,2.5,3.3,3.4,1,.9,1.7,1.4,2,1.5,0,0,1.2.2,1.2.2.4,0,1.4-.1,3.1-.4,2.6-.4,2.7-.6,2.7-.9s0-.3-.3-.4ZM193.3,42.3c0,0,.2-.1.2-.2,0,0,0,0,0,0h0s-.3.2-.3.2ZM202.7,36.9c.5,0,1.2,0,2.1-.3l2-.3c0,0,.1,0,.1.1,0,0,0,.8,0,.8v1.2c-.1,0-.3.7-.3.7,0,0-.1.2-1,.4l-1.6.4s-.9.1-1.4.2v-3.1ZM204,29.2c0-.5,0-2.9,0-3.3.4,0,3.5-.7,4.1-.8-.1.6-.7,3.2-.8,3.5-.3,0-2.8.5-3.3.6ZM196.7,25.5c.4,0,1.1-.2,1.1-1.3s-.4-1.6-1.2-2.2c-.8-.5-1.8-.8-3.1-.8h-1.2c0,.1.3.5.3.5,2.6,3.4,3.6,3.8,4.1,3.8ZM193.5,32.3c.4,0,1.2-.2,1.2-1.4s-.3-1.4-.9-2c-.6-.6-1.8-.9-3.8-1.1h-.5s.2.4.2.4c1.3,2.8,2.5,4.2,3.7,4.2Z"/>
      <path class="st2" d="M261.1,25.2c-1.2-.9-2.1-1.3-2.6-1.3s-.3,0-1.4.5c-.7.3-2.7.6-5.9,1,0-2.6.3-4.4.5-5.3l.2-.8c0-.5-.4-1-1.2-1.5-.7-.4-1.6-.7-2.6-.9h0s0,0,0,0c-.6.2-.7.6-.7.8v.3c.6.7.9,1.5,1.2,2.5.3,1,.4,2.7.4,5-2.5.4-4.3.6-5.3.6l-2.3-.2-2.5-.3h0c-.1.1-.3.3-.3.6v.5c.7.5,1.1,1.1,1.4,1.9.3.7.6,2.4.8,4.8.3,2.7.8,4,1.8,4s.7-.6.8-2.1c.4,0,5.2-.5,5.7-.5,0,.5-.1,5.3-.1,5.3l-.2,5.6c0,.4.1,1.4.4,2.8.4,2,.7,2.4,1,2.4h.3c.4-.5.9-1.5.9-6.2,0,0-.1-8.8-.1-10.1,3.4-.3,5.8-.4,7.3-.4s1.4,0,1.4-.6-.2-1.1-1.2-1.4c1.5-2.4,2.6-3.9,3.2-4.3.9-.7,1.1-1,1.1-1.2s-.1-.5-1.8-1.8ZM258.1,27.5c0,.4-.1,1.3-.4,2.7-.3,1.2-.7,2-1.3,2.3-.6.3-2.4.6-5.4.9,0-.5,0-5.9,0-6.3,2.7-.4,4.7-.7,5.8-.7s.9.2,1,.3c.2.2.2.5.2.9ZM248.8,27.3v6.2c-.4,0-5.2.5-5.7.5,0-2.3-.1-4.3-.4-5.9.4,0,5.6-.8,6.1-.8Z"/>
      <path class="st2" d="M294,21.6c1.6,1.3,2.8,1.9,3.6,1.9s1.1-.3,1.1-1.8-.3-1.2-1-1.7c-.7-.5-1.4-.8-2.1-.9-.7-.1-1.9-.2-3.6-.2h-.3s0,.3,0,.3c0,.3.2.7,2.4,2.5ZM312.6,44.5c-4.1-.4-7.4-1.2-9.9-2.3-2.4-1.1-4.5-2.7-6.5-4.6.4-.8.8-1.9,1.2-3.4l.9-3c.1-.4.3-.7.5-.9l.4-.7c0-.3-.3-.6-.9-1.1-.4-.3-.7-.4-1.1-.6,2.8-.5,5.8-.9,9-1.3.7-.4,1-.8,1-1.1,0-.4-.4-.8-1.1-1.1-.7-.3-1.4-.4-2.1-.4-1.2,0-2.4.3-3.6,1-4.2,1.8-9.6,2.8-15.9,2.9h-.5s.3.4.3.4c.7,1,1.7,1.5,3.1,1.5s4.3-.5,8.4-1.5c0,0-.1.1-.1.2,0,0,.1,1.3.1,1.3,0,1.3-.4,3.2-1.2,5.8-.4-.5-1.8-2.1-1.8-2.1-1-1.2-1.7-2-2.3-2.4-.6-.4-1.1-.5-1.7-.5s-1.6,0-1.6.8v.4c.1,0,.2,0,.2,0,2.1,1,4.3,2.8,6.4,5.6-2.2,2.8-6.3,4.7-12.3,5.6v.5c1,.3,1.9.5,2.7.5s2.9-.4,5.3-1.1c2.3-.7,4.3-1.9,5.8-3.7,1.8,2.1,3.6,3.8,5.3,5.2,1.8,1.4,3.1,2.1,3.9,2.1s2-.2,4.1-.7l4.2-.8v-.5Z"/>
      <path class="st2" d="M353.8,43.7c-1.6-.4-3.1-1-4.5-2-1.4-.9-2.8-2.2-4-3.7-1.3-1.5-2.5-3.2-3.7-5.3,0-.1,0-1.5,0-1.8,1.4-.3,3.4-.5,6-.8l4.8-.5c.8-.1.9-.5.9-.8,0-.4-.4-.8-1.2-1.3-.8-.4-1.7-.6-2.8-.6s-.2,0-2.6.9c-1.4.5-3.1.9-5,1.1,0-3.4.3-5.7.6-6.7.3-1.1.5-1.8.5-2.1,0-.5-.2-.9-.6-1.2-.3-.3-.9-.5-1.7-.7-.7-.2-1.5-.4-2.2-.4s-.7.2-.7.7.1.4.4.6c1,1.1,1.5,3.3,1.5,6.3,0,0,0,3.5,0,3.9-.4,0-9.3,1.3-9.3,1.3l.3.4c.7.9,1.7,1.3,3.1,1.3s1.9-.2,3.4-.5c0,0,1.8-.4,2.5-.5-.6,6.8-4,11.4-10.2,13.8v.5c2.1.1,4.4-.8,6.9-2.7,2.4-1.8,4.1-4.5,5.2-8.1,1.5,2.7,3.2,5.3,5,7.6,2.7,3.5,3.8,3.9,4.4,3.9,2,0,4.9-.3,8.6-1v-.5s-5.4-1.2-5.4-1.2Z"/>
      <path class="st2" d="M386.8,20.5c.4.3.7.6.9.8-.2.3-2.3,2.9-2.3,2.9l.8-.2c1.1-.3,2-.9,2.8-1.8.2.2.6.7.6.7.4.5.8.8,1.2,1h.1s.1,0,.1,0c.3-.3.5-.6.5-.9,0-.6-.5-1.3-1.3-2.1.2-.2.6-.7.6-.7.5-.6.7-1.1.7-1.7s-.7-.9-2.1-1.1h-.4c0,0,0,.3,0,.3,0,.1,0,.3,0,.4,0,.6-.2,1.3-.7,2-.3-.1-.9-.5-.9-.5-.6-.3-1.2-.5-1.7-.5h-.5s.2.4.2.4c.2.3.6.6,1.1,1ZM384.9,30h.8c.9-.3,2-1.1,3.4-2.4.3.3,1.4,1.4,1.4,1.4l.8.2v-.2s.1-.6.1-.6c0-.6-.4-1.2-1.3-2,.1-.2.4-.5.4-.5.3-.4.4-.8.4-1.1s0-.1,0-.2h0c0-.1,0-.2,0-.2-.5-.3-.8-.5-1.1-.5s-.7.2-.8,1c0,.4-.1.6-.2.7-.6-.4-1.2-.6-1.7-.6h-1.2c0,.1.6.5.6.5.7.5,1.1.9,1.4,1.2-.2.3-1,1.3-1,1.3l-1.9,2.1ZM403.3,29.7c-.8-.8-1.5-1.2-2.1-1.2l-1.6.3c-.8.2-1.8.3-3,.3.1-.6,1-4.4,1-4.4.5-2,.7-2.7.8-3,.2-.3.4-.6.7-.8.4-.3.5-.5.5-.7s-.1-.5-1.5-1.3c-1.3-.8-1.6-.9-1.7-.9,0,0-.2,0-1.3.5-.7.3-1.6.5-2.8.8h-.6c0,.1.5.5.5.5.6.5,1.2.7,1.7.7l1-.2.9-.2c.1,0,.4,0,.4.7s-.1.8-.2,1.3c-.9,0-2.2.1-3.8.3h-.4c0,0,.3.4.3.4.4.5,1,.8,1.7.8h1.8c0-.1,0-.1.2-.1,0,.4-.3,1.5-.4,1.8-.4,0-3.7.3-3.7.3v.3c.2.4.6,1,1.6,1h1.2c0-.1.4-.2.7-.2,0,.5-.3,2-.4,2.3-.4,0-10.5,1.2-11,1.2,0-.4-.2-1.8-.3-2.1.3,0,1.1-.3,1.1-.3l1.3-.3h.1c0-.1.1-.2.1-.2.2-.1.3-.3.3-.5s0-.1,0-.2h0c0,0,0-.1,0-.1-.3-.2-.6-.3-1-.3s-.7.1-1.3.4c-.4.2-.7.2-.8.3,0-.4-.3-1.5-.3-1.8.3,0,1.3-.4,1.3-.4.6-.2,1.4-.5,1.4-1.1s0-.8-.9-.8-.8.1-1.4.4c0,0-.5.2-.7.3,0-.3-.1-.8-.1-.8,0,0,0-.8,0-1.1.2-.2,2.9-1.7,2.9-1.7v-.2c0-.4-.3-.8-.9-1.1-.5-.3-1-.4-1.4-.4-.7,0-.7.4-.7.5,0,.8-.3,1.5-.9,2.2-1.5,0-2.2.2-2.2.7l.4.6c.9.8,1.8,3.6,2.7,8.3-.4,0-3.3.6-3.6.7-.5-.9-1.1-1.5-1.6-1.6h-.3c0,0,0,.3,0,.3,0,1.3-.2,2.4-.6,3.1-.5.8-.8,1.5-.8,2,0,1.2.6,1.4,1,1.4.5,0,1.1-.4,1.7-1.3.6-.8.8-1.7.9-2.7,1.2-.3,4.5-.8,9.9-1.4,5.5-.6,8.9-1,9.9-1h1.3c0,0,.2.1.2.1,0,0-.1.5-1.6,2l.3.5,2.7-.8s1.2,0,1.2,0c.9,0,2,0,2-.8s0-.4-1.2-1.6ZM399.6,37.8c-.7-.5-1.5-.7-2.5-.7s-1.7.2-3.1.5c-1.4.3-2.3.4-3,.4s-.6,0-.6,0c0,0-.2,0-.2-.1,1.2-1,2.4-2,3.7-2.7.8-.3,1-.7,1-1.1s0-.1,0-.2h0c0,0,0-.2,0-.2-1.3-1-2.5-1.6-3.6-1.6,0,0-2.7.9-2.7.9l-2.8.7c-1,.2-2,.2-3,.2h-.6s.4.4.4.4c.8.9,1.7,1.3,2.8,1.3,0,0,5.1-1.6,5.3-1.7h.4c0,0,0,.2,0,.4s-.2.8-1.7,2.7c-.6-.4-1.2-.7-1.8-.7s-.7.4-.7.5.1.4.7.9c.3.2.4.4.5.5-5.5.7-9.5,1.1-11.7,1.2h-.3s0,.3,0,.3c0,.2.1.5,1,1.1.7.5,1.2.7,1.7.7s.9,0,4.4-.9c2.4-.5,4.1-.8,5.3-.9.2,1,.3,1.9.3,3,0,2.7-.5,4.1-1.6,4.1s-1.6-.2-3.4-.6l-.2.5c1.9,1.2,3.1,2.4,3.6,3.4v.2c.1,0,.3-.1.3-.1,2.2-.9,3.4-3.3,3.4-6.8s-.1-2.3-.4-3.9c.5,0,4.2-.1,4.2-.1l5,.2c.7,0,.8-.5.8-.6,0-.4-.4-.9-1.1-1.4Z"/>
    </g>
    <g>
      <path class="st2" d="M148.5,75.8c0,1,0,1.7-.2,2-.2.3-.5.4-1.1.4h-1.3v.9c1.4,0,2.7,0,4,0s2.5,0,4,0v-.8h-1.3c-.7-.1-1-.2-1.1-.5-.2-.3-.2-1-.2-2v-11.5c0-1,0-1.9.1-2.7h4.2c.8,0,1,.2,1.1.9v2.2h1c0-1.5,0-3,.2-4.4-1,0-2,0-2.9,0-1,0-2,0-2.9,0h-4c-2,0-3.9,0-5.9,0,.1,1.4.2,2.9.2,4.4h.8v-2.2c.2-.7.4-.9,1.2-.9h4.2c0,.8.1,1.7.1,2.7v11.5Z"/>
      <path class="st2" d="M158.9,76.3c0,.7,0,1.3-.1,1.6-.1.2-.4.4-.9.4h-1.2v.9c1,0,2,0,3.4,0s2.4,0,3.4,0v-.8h-1.2c-.5-.1-.8-.2-.9-.5-.1-.3-.1-.8-.1-1.6v-5.8c0-1.1,1.7-2.6,3.4-2.6s3.1,1.2,3.1,3.5v7.8c.6,0,1.4,0,2.2,0s1.6,0,2.2,0v-.8h-1.1c-.5-.1-.8-.2-.9-.5-.1-.3-.1-.8-.1-1.6v-5.3c0-3-1.3-4.7-4.5-4.7s-1.6.2-2.2.7l-2,1.7h0v-9.2l-.2-.2c-1.4.5-2.8.8-4.3,1v.8h1.5c.6,0,.7.5.7,1.1v14.1Z"/>
      <path class="st2" d="M178.5,67.2c2,0,2.9,2.1,2.9,4.6-2,.1-4.3.2-6.5,0-.1-3,1.5-4.5,3.6-4.5ZM178.6,66.3c-.9,0-1.7.3-2.7.7-.6.3-1.2.7-1.7,1.1-1.3,1-2,2.6-2,5.2s2.2,6.3,6.3,6.3,4.2-1.2,4.4-1.5l.5-.9-.4-.3c-1,.6-2.1,1.3-3.4,1.3-3.4,0-4.9-2.2-4.9-5.4h4c1.6,0,3.3-.1,4.9-.4,0-.4,0-.8,0-1.1,0-3.1-2.2-5-5.2-5Z"/>
      <path class="st2" d="M207.3,76.8l-.2-.3c-1.3.9-3.6,1.6-5.5,1.6-5.4,0-9-3.5-9-8.9s2.7-8.4,7.8-8.4,2.2.2,3.1.5c1.3.5,2.3.9,2.3,1.7v2h.8c0-1.4.2-2.9.5-4.1-1.3-.5-3.8-1.1-6.3-1.1s-5.8.9-7.9,2.6c-2.1,1.7-3.3,4.2-3.3,7.3,0,6.2,4.4,9.9,11,9.9s4.4-.5,5.9-1.5l.8-1.4Z"/>
      <path class="st2" d="M210,76.3c0,.7,0,1.3-.1,1.6-.1.2-.4.4-.9.4h-1.2v.9c1,0,2,0,3.4,0s2.4,0,3.4,0v-.8h-1.2c-.5-.1-.8-.2-.9-.5-.1-.3-.1-.8-.1-1.6v-5.8c0-1.1,1.7-2.6,3.4-2.6s3.1,1.2,3.1,3.5v7.8c.6,0,1.4,0,2.2,0s1.6,0,2.2,0v-.8h-1.1c-.5-.1-.8-.2-.9-.5-.1-.3-.1-.8-.1-1.6v-5.3c0-3-1.3-4.7-4.5-4.7s-1.6.2-2.2.7l-2,1.7h0v-9.2l-.2-.2c-1.4.5-2.8.8-4.3,1v.8h1.5c.6,0,.7.5.7,1.1v14.1Z"/>
      <path class="st2" d="M227.7,66.4h-.2c-1,.3-2.6.8-4.3,1v.8h1c.6,0,.8,0,1,.3.1.2.2.8.2,1.7v6.1c0,.7,0,1.3-.1,1.6-.1.2-.4.4-.9.4h-1.3v.9c1,0,2.1,0,3.4,0s2.4,0,3.4,0v-.8h-1.3c-.5-.1-.8-.2-.9-.5-.1-.3-.1-.8-.1-1.6v-9.9ZM226.5,60.4c-.8,0-1.5.7-1.5,1.5s.7,1.5,1.5,1.5,1.5-.7,1.5-1.5-.7-1.5-1.5-1.5Z"/>
      <path class="st2" d="M234.4,70.5c0-1.1,1.7-2.6,3.4-2.6s3.1,1.2,3.1,3.5v7.8c.6,0,1.4,0,2.2,0s1.6,0,2.2,0v-.8h-1.1c-.5-.1-.8-.2-.9-.5-.1-.3-.1-.8-.1-1.6v-5.3c0-3-1.3-4.7-4.5-4.7s-1.6.2-2.2.7l-2,1.7h0v-2.3h-.2c-1,.3-2.6.8-4.3,1v.8h1c.6,0,.8,0,1,.3.1.2.2.8.2,1.7v6.1c0,.7,0,1.3-.1,1.6-.1.2-.4.4-.9.4h-1.2v.9c1,0,2,0,3.4,0s2.4,0,3.4,0v-.8h-1.2c-.5-.1-.8-.2-.9-.5-.1-.3-.1-.8-.1-1.6v-5.8Z"/>
      <path class="st2" d="M251.7,67.2c2,0,2.9,2.1,2.9,4.6-2,.1-4.3.2-6.5,0-.1-3,1.5-4.5,3.6-4.5ZM251.8,66.3c-.9,0-1.7.3-2.7.7-.6.3-1.2.7-1.7,1.1-1.3,1-2,2.6-2,5.2s2.2,6.3,6.3,6.3,4.2-1.2,4.4-1.5l.5-.9-.4-.3c-1,.6-2.1,1.3-3.4,1.3-3.4,0-4.9-2.2-4.9-5.4h4c1.6,0,3.3-.1,4.9-.4,0-.4,0-.8,0-1.1,0-3.1-2.2-5-5.2-5Z"/>
      <path class="st2" d="M258.2,75.2c0,1.3,0,2.6-.3,3.8,1.3.5,2.5.7,3.8.7,3,0,6-1.6,6-4.6s-1.5-2.9-4.8-3.5c-2.1-.4-3-1-3-2.2s.4-2.2,2.7-2.2,3.2.8,3.2,2.2v.6h.8c0-1.1,0-2.1.1-3.1-1.1-.4-2.2-.7-3.5-.7-2.6,0-5.1,1-5.1,4s1,2.5,2.3,3c1.3.5,2.8.8,4,1.1.8.2,1.3.9,1.3,1.8,0,1.5-1.5,2.5-3.2,2.5s-3.5-.6-3.5-2.3v-1.1h-.8Z"/>
      <path class="st2" d="M274.7,67.2c2,0,2.9,2.1,2.9,4.6-2,.1-4.3.2-6.5,0-.1-3,1.5-4.5,3.6-4.5ZM274.8,66.3c-.9,0-1.7.3-2.7.7-.6.3-1.2.7-1.7,1.1-1.3,1-2,2.6-2,5.2s2.2,6.3,6.3,6.3,4.2-1.2,4.4-1.5l.5-.9-.4-.3c-1,.6-2.1,1.3-3.4,1.3-3.4,0-4.9-2.2-4.9-5.4h4c1.6,0,3.3-.1,4.9-.4,0-.4,0-.8,0-1.1,0-3.1-2.2-5-5.2-5Z"/>
      <path class="st2" d="M288,73.3c0,5,2.7,6.4,7.4,6.4s7.7-2.3,7.7-8.2v-7.9c0-1,0-1.7.2-2,.2-.3.5-.4,1.1-.4h1.2v-.9c-1.2,0-2.2,0-3.3,0s-2.1,0-3.2,0v.8h1.2c.7.1,1,.2,1.1.5.2.3.2,1,.2,2v8.7c0,4.5-2.7,5.6-5.6,5.6s-5.6-1.1-5.6-5v-9.4c0-1,0-1.7.2-2,.2-.3.5-.4,1.1-.4h1.3v-.9c-1.4,0-2.7,0-4,0s-2.6,0-4,0v.8h1.3c.7.1,1,.2,1.1.5.2.3.2,1,.2,2v9.7Z"/>
      <path class="st2" d="M309.2,70.5c0-1.1,1.7-2.6,3.4-2.6s3.1,1.2,3.1,3.5v7.8c.6,0,1.4,0,2.2,0s1.6,0,2.2,0v-.8h-1.1c-.5-.1-.8-.2-.9-.5-.1-.3-.1-.8-.1-1.6v-5.3c0-3-1.3-4.7-4.5-4.7s-1.6.2-2.2.7l-2,1.7h0v-2.3h-.2c-1,.3-2.6.8-4.3,1v.8h1c.6,0,.8,0,1,.3.1.2.2.8.2,1.7v6.1c0,.7,0,1.3-.1,1.6-.1.2-.4.4-.9.4h-1.2v.9c1,0,2,0,3.4,0s2.4,0,3.4,0v-.8h-1.2c-.5-.1-.8-.2-.9-.5-.1-.3-.1-.8-.1-1.6v-5.8Z"/>
      <path class="st2" d="M324.7,66.4h-.2c-1,.3-2.6.8-4.3,1v.8h1c.6,0,.8,0,1,.3.1.2.2.8.2,1.7v6.1c0,.7,0,1.3-.1,1.6-.1.2-.4.4-.9.4h-1.3v.9c1,0,2.1,0,3.4,0s2.4,0,3.4,0v-.8h-1.3c-.5-.1-.8-.2-.9-.5-.1-.3-.1-.8-.1-1.6v-9.9ZM323.4,60.4c-.8,0-1.5.7-1.5,1.5s.7,1.5,1.5,1.5,1.5-.7,1.5-1.5-.7-1.5-1.5-1.5Z"/>
      <path class="st2" d="M338.7,69.2c.4-.8.8-1.8,1.5-1.8h.8v-.8c-.8,0-1.7,0-2.6,0s-1.7,0-2.6,0v.8h1.1c.8,0,.9.9.1,2.8l-1.1,2.9c-.5,1.3-1.1,2.6-1.7,3.8l-3.2-7.9c-.5-1.1-.3-1.5.4-1.6h1.3v-.8c-1.1,0-2.1,0-3.2,0s-2.1,0-3.2,0v.8h.9c.5,0,.7.6.8,1l4.7,11h1.4c.4-.9.7-2,1.1-3l3.2-7.1Z"/>
      <path class="st2" d="M347.6,67.2c2,0,2.9,2.1,2.9,4.6-2,.1-4.3.2-6.5,0-.1-3,1.5-4.5,3.6-4.5ZM347.7,66.3c-.9,0-1.7.3-2.7.7-.6.3-1.2.7-1.7,1.1-1.3,1-2,2.6-2,5.2s2.2,6.3,6.3,6.3,4.2-1.2,4.4-1.5l.5-.9-.4-.3c-1,.6-2.1,1.3-3.4,1.3-3.4,0-4.9-2.2-4.9-5.4h4c1.6,0,3.3-.1,4.9-.4,0-.4,0-.8,0-1.1,0-3.1-2.2-5-5.2-5Z"/>
      <path class="st2" d="M355.7,76.3c0,.7,0,1.3-.1,1.6-.1.2-.4.4-.9.4h-1.3v.9c1,0,2.1,0,3.4,0s2.4,0,3.8,0v-.8h-1.4c-.6-.1-1-.2-1.1-.5-.1-.3-.1-.8-.1-1.6v-4.7c0-1.7,1.2-3,2.4-3s1.6.6,1.9,1.3h.6l.2-3.3c-.2-.1-.8-.3-1.3-.3-.7,0-1.6.3-2.3,1.1l-1.5,1.7h0v-2.8h-.2c-1,.3-2.6.8-4.3,1v.8h1c.6,0,.8,0,1,.3.1.2.2.8.2,1.7v6.1Z"/>
      <path class="st2" d="M364,75.2c0,1.3,0,2.6-.3,3.8,1.3.5,2.5.7,3.8.7,3,0,6-1.6,6-4.6s-1.5-2.9-4.8-3.5c-2.1-.4-3-1-3-2.2s.4-2.2,2.7-2.2,3.2.8,3.2,2.2v.6h.8c0-1.1,0-2.1.1-3.1-1.1-.4-2.2-.7-3.5-.7-2.6,0-5.1,1-5.1,4s1,2.5,2.3,3c1.3.5,2.8.8,4,1.1.8.2,1.3.9,1.3,1.8,0,1.5-1.5,2.5-3.2,2.5s-3.5-.6-3.5-2.3v-1.1h-.8Z"/>
      <path class="st2" d="M378.7,66.4h-.2c-1,.3-2.6.8-4.3,1v.8h1c.6,0,.8,0,1,.3.1.2.2.8.2,1.7v6.1c0,.7,0,1.3-.1,1.6-.1.2-.4.4-.9.4h-1.3v.9c1,0,2.1,0,3.4,0s2.4,0,3.4,0v-.8h-1.3c-.5-.1-.8-.2-.9-.5-.1-.3-.1-.8-.1-1.6v-9.9ZM377.4,60.4c-.8,0-1.5.7-1.5,1.5s.7,1.5,1.5,1.5,1.5-.7,1.5-1.5-.7-1.5-1.5-1.5Z"/>
      <path class="st2" d="M383.4,68.7v7.9c0,2.2,1.2,2.9,2.7,2.9s1.5,0,1.8-.3l1.3-1.4-.4-.5c-.4.2-.9.5-1.6.5-1.1,0-1.5-.6-1.5-1.9v-7.1h3.5l.2-1.5-3.7.2v-1c0-1.1.1-2.7.3-3.9l-.3-.3c-.5.3-1.3.7-2.3,1,0,.7.1,1.4.1,2.2v1.9l-2.1,1v.6h2.1Z"/>
      <path class="st2" d="M396.9,76.8l-3.1-7.6c-.6-1.5-.1-1.7.7-1.8h1v-.8c-1.1,0-2.1,0-3.2,0s-2.1,0-3.2,0v.8h.5c.6.1,1,.4,1.4,1.4l4.5,11-.6,1.7c-.5,1.3-1.4,3.5-3,3.6-.4,0-1.1-.3-1.4-.6h-.4l-.7,2c.3.2.9.4,1.4.4,2.3,0,3.3-1.4,4.1-3.4l5.5-12.8c1-2.4,1.6-3.2,2.3-3.3h.8v-.8c-.9,0-1.7,0-2.6,0s-1.7,0-2.6,0v.8h.7c1,.1,1.4.4,1,1.4l-3.2,8Z"/>
      <path class="st2" d="M414.1,79.7c4.2,0,7.1-2.9,7.1-7.1s-2.7-6.2-6.2-6.2-7,2.9-7,7,2.6,6.5,6,6.4ZM414.4,67.2c2.6,0,4.3,3,4.3,6.5s-1.1,5-3.5,5-4.5-3.8-4.5-6.7.9-4.9,3.8-4.9Z"/>
      <path class="st2" d="M430.6,59.5c-.4-.2-.8-.3-1.2-.3-.8,0-1.7.3-2.5,1.1l-1.6,1.8c-.8.9-1.1,2.1-1.1,3.9v1.1l-1.9.8v.6h1.9c0-.1,0,7.6,0,7.6,0,.7,0,1.3-.1,1.6-.1.2-.4.4-.9.4h-1.3v.9c1,0,2.1,0,3.4,0s2.4,0,3.4,0v-.8h-1.3c-.5-.1-.8-.2-.9-.5-.1-.3-.1-.8-.1-1.6v-7.7h3.4l.2-1.4h-3.6c0,.1,0-2.2,0-2.2,0-3.1.3-3.9,2-3.9s1.3.3,1.8.8l.3-.2v-2.1Z"/>
      <path class="st2" d="M455,63.6c0-1,0-1.7.2-2,.2-.3.5-.4,1.1-.4h1.3v-.9c-1.4,0-2.7,0-4,0s-2.6,0-4,0v.8h1.3c.7.1,1,.2,1.1.5.2.3.2,1,.2,2v4.8c-.3,0-1.1,0-2.3,0h-6.4c-1.2,0-1.9,0-2.3,0v-4.8c0-1,0-1.7.2-2,.2-.3.5-.4,1.1-.4h1.3v-.9c-1.4,0-2.7,0-4,0s-2.6,0-4,0v.8h1.3c.7.1,1,.2,1.1.5.2.3.2,1,.2,2v12.2c0,1,0,1.7-.2,2-.2.3-.5.4-1.1.4h-1.3v.9c1.4,0,2.7,0,4,0s2.5,0,4,0v-.8h-1.3c-.7-.1-1-.2-1.1-.5-.2-.3-.2-1-.2-2v-6.1c.3,0,1.1,0,2.3,0h6.4c1.2,0,1.9,0,2.3,0v6.1c0,1,0,1.7-.2,2-.2.3-.5.4-1.1.4h-1.3v.9c1.4,0,2.7,0,4,0s2.5,0,4,0v-.8h-1.3c-.7-.1-1-.2-1.1-.5-.2-.3-.2-1-.2-2v-12.2Z"/>
      <path class="st2" d="M464.3,79.7c4.2,0,7.1-2.9,7.1-7.1s-2.7-6.2-6.2-6.2-7,2.9-7,7,2.6,6.5,6,6.4ZM464.7,67.2c2.6,0,4.3,3,4.3,6.5s-1.1,5-3.5,5-4.5-3.8-4.5-6.7.9-4.9,3.8-4.9Z"/>
      <path class="st2" d="M476.2,70.5c0-1.1,1.7-2.6,3.4-2.6s3.1,1.2,3.1,3.5v7.8c.6,0,1.4,0,2.2,0s1.6,0,2.2,0v-.8h-1.1c-.5-.1-.8-.2-.9-.5-.1-.3-.1-.8-.1-1.6v-5.3c0-3-1.3-4.7-4.5-4.7s-1.6.2-2.2.7l-2,1.7h0v-2.3h-.2c-1,.3-2.6.8-4.3,1v.8h1c.6,0,.8,0,1,.3.1.2.2.8.2,1.7v6.1c0,.7,0,1.3-.1,1.6-.1.2-.4.4-.9.4h-1.2v.9c1,0,2,0,3.4,0s2.4,0,3.4,0v-.8h-1.2c-.5-.1-.8-.2-.9-.5-.1-.3-.1-.8-.1-1.6v-5.8Z"/>
      <path class="st2" d="M500.8,68.8l.7-1.1v-.3c-.1,0-4,.1-4,.1-.9-.8-2.1-1.1-3.3-1.1s-2.7.4-4,1.2c-1.2.8-2.1,2-2.1,3.7,0,2.8,2.3,3.6,3.2,3.7h0c0,0-2.1,1.7-2.1,1.7-.2.3-.4.7-.4,1.1,0,.8.6,1.3,1.8,1.6l-2.4,1.3c-.6.5-.8,1.4-.8,2.2,0,2.4,2.6,4.1,5.9,4.1s7.4-3,7.4-5.9-.8-3.4-3.2-3.4h-4.4c-.8,0-2.1,0-2.1-1.1s.9-1.1,1.3-1.5c.2,0,.4,0,.6,0,1.3,0,2.6-.5,3.8-1.3,1.1-.7,1.8-1.9,1.8-3.4s0-1-.3-1.5h2.5ZM496.3,71.2c0,1.7-1.2,2.9-2.8,2.9s-3.1-1.2-3.1-3.6.9-3.2,2.7-3.2,3.1,2,3.1,4ZM493.5,86c-2.2,0-4-1.2-4-3.5s1.5-2.8,2.3-2.9c1.2-.1,2.2-.1,2.9-.1,3.1,0,3.8.8,3.8,2.5s-2,4-5,4Z"/>
      <path class="st2" d="M512,70.2l.3-.2,9.5,9.1c.8,0,1.5,0,2.2,0s1.3,0,1.8,0v-.8h-.6c-.5-.1-1-.5-1.7-1.2l-9-8.5,7.3-6.5c.7-.6,1.4-1,2.1-1h1.1v-.9c-.7,0-1.4,0-2.2,0s-1.6,0-2.4,0v.7c0,.2-.4.7-.8,1.1l-7.6,7.4v-5.8c0-1,0-1.7.2-2,.2-.3.5-.4,1.1-.4h1.3v-.9c-1.4,0-2.7,0-4,0s-2.6,0-4,0v.8h1.3c.7.1,1,.2,1.1.5.2.3.2,1,.2,2v12.2c0,1,0,1.7-.2,2-.2.3-.5.4-1.1.4h-1.3v.9c1.4,0,2.7,0,4,0s2.5,0,4,0v-.8h-1.3c-.7-.1-1-.2-1.1-.5-.2-.3-.2-1-.2-2v-5.6Z"/>
      <path class="st2" d="M531.3,79.7c4.2,0,7.2-2.9,7.2-7.1s-2.7-6.2-6.2-6.2-7,2.9-7,7,2.6,6.5,6,6.4ZM531.7,67.2c2.6,0,4.3,3,4.3,6.5s-1.1,5-3.5,5-4.5-3.8-4.5-6.7.9-4.9,3.8-4.9Z"/>
      <path class="st2" d="M543.2,70.5c0-1.1,1.7-2.6,3.4-2.6s3.1,1.2,3.1,3.5v7.8c.6,0,1.4,0,2.2,0s1.6,0,2.2,0v-.8h-1.1c-.5-.1-.8-.2-.9-.5-.1-.3-.1-.8-.1-1.6v-5.3c0-3-1.3-4.7-4.5-4.7s-1.6.2-2.2.7l-2,1.7h0v-2.3h-.2c-1,.3-2.6.8-4.3,1v.8h1c.6,0,.8,0,1,.3.1.2.2.8.2,1.7v6.1c0,.7,0,1.3-.1,1.6-.1.2-.4.4-.9.4h-1.2v.9c1,0,2,0,3.4,0s2.4,0,3.4,0v-.8h-1.2c-.5-.1-.8-.2-.9-.5-.1-.3-.1-.8-.1-1.6v-5.8Z"/>
      <path class="st2" d="M567.8,68.8l.7-1.1v-.3c-.1,0-4,.1-4,.1-.9-.8-2.1-1.1-3.3-1.1s-2.7.4-4,1.2c-1.2.8-2.1,2-2.1,3.7,0,2.8,2.3,3.6,3.2,3.7h0c0,0-2.1,1.7-2.1,1.7-.2.3-.4.7-.4,1.1,0,.8.6,1.3,1.8,1.6l-2.4,1.3c-.6.5-.8,1.4-.8,2.2,0,2.4,2.6,4.1,5.9,4.1s7.4-3,7.4-5.9-.8-3.4-3.2-3.4h-4.4c-.8,0-2.1,0-2.1-1.1s.9-1.1,1.3-1.5c.2,0,.4,0,.6,0,1.3,0,2.6-.5,3.8-1.3,1.1-.7,1.8-1.9,1.8-3.4s0-1-.3-1.5h2.5ZM563.3,71.2c0,1.7-1.2,2.9-2.8,2.9s-3.1-1.2-3.1-3.6.9-3.2,2.7-3.2,3.1,2,3.1,4ZM560.5,86c-2.2,0-4-1.2-4-3.5s1.5-2.8,2.3-2.9c1.2-.1,2.2-.1,2.9-.1,3.1,0,3.8.8,3.8,2.5s-2,4-5.1,4Z"/>
    </g>
  </g>
  <g>
    <path class="st1" d="M64.6,81.4c.9,0,5.1-1.5,6.8-2.4,8.8-4.6,16.5-10.9,21.5-19.6,4-7,4.3-15.6,4.9-23.4.8-10.1.8-20.3.6-30.4,0-.7-14.5-2.3-16-2.5-5.9-.5-13.8-.9-17.7-.9s-11.8.4-17.7.9c-1.5.1-16,1.7-16,2.5-.2,10.2-.2,20.3.6,30.4.7,7.8.9,16.5,4.9,23.4,5,8.7,12.7,15,21.5,19.6,1.6.9,5.8,2.4,6.8,2.4Z"/>
    <path class="st3" d="M84.4,44.1s0,0,0,0c0,0,0,0,0,0h0ZM82.5,45.3c0,0,.1,0,.2,0,0,0-.1,0-.2,0h0ZM93.9,26.7s0-.5,0-.5c.4-.1,2-.8,2.3-2.9,0-.3,0-.7,0-1.1h0c-.3.4-1.3,1.3-1.9,1.2-.1,0-.2-.1-.3-.3,0-2.1-.2-3.7-.4-5.9.6-.3,1.8-1.2,1.8-3.2,0-.3,0-.5,0-.8h-.1c-.3.5-1.2,1.5-1.7,1.4-.1,0-.2,0-.3-.2v-.3c-.4-4.4-1.3-6.6-3.2-7.5,0,0-.1,0-.1,0,0,0,0,.2.2.3.3.4.7,1,.9,1.8.3,1.3.4,2.4.4,3.2s-.1,1.7-.3,2.3c-.2.4-.6.7-1,.8-1,.2-2.1-.9-2.5-1.8,0,0,0,0,0,0,0,0-.2.2-.3.4-.3,1.2,0,2.7.9,3.2.3.2.8.4,1.3,0,.3-.2.5-.3.7-.2,0,0,.1,0,.2.2-.4,1.1-.8,2.1-1.3,3.2-.3.2-.6.4-.9.4-1.1,0-2.1-1.3-2.3-2.3,0,0,0,0,0,0,0,0-.3.2-.4.4-.6,1.2-.4,2.8.3,3.5.3.3.7.5,1.4.2.3-.2.6-.2.7-.1,0,0,.1,0,.1.2-.5,1-1.2,2.1-1.8,3.1-.2.2-.5.2-.8.2-1.2,0-2-1.4-2.1-2.3,0,0,0,0,0,0,0,0-.3.2-.5.4-.7,1.1-.8,2.6-.2,3.4.3.4.9.6,1.5.3.4-.1.6-.2.7,0,0,0,0,0,0,.1-.6.9-1.3,1.7-2,2.5-.5.3-.9.4-1.4.4-1.3-.2-2-2-2-3.2s0,0,0-.1c0,0-.4.2-.5.3-.9,1.2-1.2,3.1-.6,4.1.2.4.7.8,1.6.6.5,0,.7,0,.8,0,0,0,0,.2,0,.3,0,0-2.1,1.9-2.1,1.9-.5.3-1.3.7-2.1.3-1.4-.5-1.9-2.7-1.6-4.1,0,0,0-.1,0-.1-.1,0-.5.1-.7.3-1.3,1.2-2,3.3-1.5,4.6.2.5.6,1.1,1.6,1.1.6,0,.9,0,.9.2,0,.1,0,.3-.4.6-.3.2-.6.4-.9.7-.6.7-.9,1.4-1,2.1v.8c0,.6-.1,1.2-.3,1.8-.1.6-.3,1.1-.5,1.5-1.3,2.3-4.3,3.6-7.4,4v-4.4c3.8-.1,5.5-1.8,5.5-5.5s-1.2-4.6-3.9-4.6c-.5,0-1.1,0-1.6.3v-2.4c1.9-.9,4.1-1.9,6.4-2.4,5.2-1.3,9.4-4.2,10.9-7.3.2-.4.4-.9.4-1.4-.3.2-3.8,2.4-6.4,2.9h-.4c-.4.1-.7.2-.9,0,0,0-.1-.2-.1-.3,0-1.4.8-2.5,2.2-3.1h.1c3.2-1.4,5.6-2.4,6.8-4.1.3-.4.5-.9.6-1.4-.3.1-3.9,2.1-6.3,2.4h-.1c-.3,0-.8.2-1,0-.1-.1-.2-.4,0-.7.3-1.1.7-1.7,1.6-2.2.9-.5,1.9-1,2.9-1.4,1.6-.7,3.1-1.4,3.8-2.2,0,0,0,0,.1-.1,0,0,0,0,0,0,.1-.2.2-.4.3-.6l-3.4,1.1-.7.2c-1,.3-2,.6-2.3.3-.1-.1-.1-.3,0-.6.2-.6.3-.9.6-1.3,1.3-1.8,3.9-3.8,7-3.2.5,0,.8,0,.8,0,0,0,0-.1-.5-.3-2.4-.9-4.6-.8-6.5.2-3.6,1.8-6.6,6.8-8.8,14.8-1.3,4.6-4.1,6.2-7,7.5v-10.2c1.1-.4,2-1,2.7-1.8,2.2-2.2,3-4.9,2.1-7.3-.7-1.9-2.4-3.3-4.4-3.4-.2,0-.3,0-.5,0v-1.5c-3.6,0-11.1.3-17,.9-2.1.2-15.3,1.7-15.3,2.3,0,3.5,0,6.9,0,10.3,0,6.4.2,12.7.7,19l.2,2.5c.5,6.9,1.1,14.1,4.5,20.1,4.3,7.6,11.3,13.9,20.6,18.9.6.3,3.2,1.7,5.5,2.2,0,0,0,0,0,0,0,0,.2,0,.3,0,.2,0,.4,0,.6,0v-10.9c3.1,0,7.9,0,9.2-.4,1.2-.4,2-1.4,2.2-2.7.2-1.5-.4-3.2-1.4-4-.1-.1-.4-.1-.4,0,0,0,0,.1,0,.2.1.2.3.6.3,1.3s-.2,1.2-.7,1.6c-1.2,1.1-3.7,1-3.7,1h-2.8s-2.7,0-2.7,0c0,0,0,0,0,0h-.1c1.6-.4,2.7-1.5,3.2-2.4,1.2-2.2.2-3.7-.1-4.1,0,0,0,0,0,0h0s0,0,0,0c.2,0,.4,0,.6,0-.2,0-.3,0-.5,0,0,0,0,0,0,0,.7,0,1.4,0,2-.2-.4,0-.9.1-1.4.2,5.9-.3,7.1-5.6,7.8-8.5v-.5c.3-.9.9-2.4,2.2-2.8.8-.3,1.4-.6,1.8-.8l.5-.3s.2,0,.2,0c.7,0,.7.6.7,1.1,0,.2,0,.3,0,.4,0,0,0,0,.2,0,.6-.4,1-1.6,1-2.3,0,0,0-.1,0-.1h0s0,0,0,0c.8.3.9.8.9,1,0,0,0,.1,0,.1,0,0,0,0,.2-.1.6-.5.7-1.6.7-2.2h0s0,0,0,0c1,0,1.1.6,1.1.9,0,0,0,.1,0,.1,0,0,0,0,.2-.1.5-.5.5-1.7.5-2.2,0,0,0,0,0,0h0s0,0,0,0c.6,0,.8.5.9.8,0,.1,0,.2,0,.2,0,0,0,0,.1-.1.6-.8.6-1.9.5-2.3,0,0,0,0,0,0h0s0,0,0,0c.7,0,.8.5.9.7,0,0,0,.2,0,.2,0,0,0,0,.2-.2.5-.6.4-1.7.3-2.4.9-1,1.4-1.9,1.6-2.5.1-.5.2-.5.2-.5,0,0,.1.3.1.4-.1,1.5-.5,3.5-.9,5.6,0,0,0,0,0,0,0,0,0,0,0,0,0,.3-.1.6-.2.9,0,0,0,0,0,0,0,0,0,0,0,0-.3-.3-1-.4-1.2-.2,0,0,0,.2,0,.3.3.3.5.9.5,1.5,0,0,0,.2,0,.2h0s0,0,0,0c-.4-.2-.9-.2-1,0,0,0,0,.2.1.3.4.4.5,1.2.4,1.8,0,.1,0,.2,0,.3,0,0,0,0,0,0,0,0,0,0,0,0-.3-.3-1-.4-1.2-.2,0,0,0,.2,0,.3.3.3.4,1.2.3,1.9,0,.1,0,.2,0,.3,0,0,0,0,0,0,0,0,0,0,0,0-.3-.3-.9-.5-1-.4,0,0,0,.2,0,.3.4.6.3,1.8.2,2.2-1.9,4.2-4,6.3-6.2,6.4-1.8,0-2.8-1.6-2.9-2.8-.2-1.7,1.5-2.8,2.4-3.2.7-.3,1.2.1,1.3.3.6.7.5,1.2.3,1.5-.2.4-.7.5-1,.5-.5,0-1,.1-1.2.5-.2.4,0,.9.3,1.1.5.4,1.2.4,2,0,.9-.4,1.7-1.3,1.8-2.1.2-.7,0-2-.6-2.5-1.2-1.6-2.6-2-3.9-1.2-2.3,1.4-3.6,3-3.7,4.6-.1,1.5.7,3,2.4,4.5,2,1.8,5.3.7,6.8-.9,0,0,.2-.1.2-.1.4.1,2.2.7,3.8-.9.2-.2.4-.4.6-.7h-.1c-.5,0-1.8.2-2.1-.2,0-.1,0-.3,0-.4.9-1.3,1.8-2.9,2.6-4.8.4,0,2.2-.3,3-2.2.1-.3.2-.6.3-1h-.1c-.5.3-1.7,1-2,.7-.1,0-.2-.3,0-.6.5-1.6.9-3.3,1.2-5.2.6,0,2.2-.5,2.7-2.7,0-.3.1-.5.1-.9h-.1c-.4.4-1.5,1.1-2,.9-.1,0-.2-.2-.2-.3.3-1.7.5-3.5.7-5.4.3,0,2.4-.8,2.4-3.6s0-.2,0-.3c0,0,0,0,0,0-.4.3-1.4,1.2-1.9,1.1-.1,0-.2-.1-.3-.3l.2-4.5v-.7ZM64.6,6.6c1.7.6,2.7,2,2.5,3.8-.1,1.7-1.3,3.3-2.5,3.5v-7.3ZM64.6,35.1c.2,0,.4,0,.7,0,1.7,0,2.5.8,2.5,2.6s-.4,2.6-3.1,2.7v-5.3ZM72.7,49h0c-1.1,1.8-2.5,3-6,3,0,0-.9,0-2.1,0v-1.9h1.9c2.9,0,4.8-.4,5.7-1.1.4-.3.5-.3.6-.3.1,0,0,.3,0,.4ZM91.8,21v.8c-.8,12.1-4.6,16.4-8.1,19.1h-.1c-1.1.9-2.4,1.9-4.7,2.7h0c-.4.2-1.8.6-2.1,1.2-.3.6-.4.6-.5.6-.1,0,.1-.9.2-1.1.3-.5.7-.8,1.5-1.2,1.6-.7,1.8-1.7,1.8-2.2,0-.7-.5-1.4-1.2-1.6-.5-.2-1,0-1.3.3.1,0,.5.2.6.8,0,.9-.4,1.3-.8,1.3-.5,0-1.1-.3-1.2-1-.2-1.3.5-2.1.9-2.4.5-.3.9-.5,1.2-.6,0,0,.7-.2.7-.3,1.1-.2,1.8.4,2.2.7.1.1.3.2.3.2h0c.1-.4,0-1.6-.3-2.3h0c0,0,0,0,0,0,1-.1,1.5.5,1.8.9.1.1.2.3.2.2,0,0,0,0,0,0,.1-.4-.2-1.7-.5-2.4,0,0,0,0,0,0h0s0,0,0,0c1-.3,1.6.3,1.9.6.1.1.2.2.3.2h0c0-.4-.3-1.7-.7-2.3,0,0,.2-.2.2-.2,1-.4,1.6,0,1.9.2.1,0,.2.2.3.1h0c0-.4-.4-1.6-.8-2.2,0,0,.2-.2.2-.2.8-.3,1.4,0,1.7,0,.1,0,.3,0,.3,0,0,0,0,0,0,0,0-.3-.4-1.4-.7-1.8,0,0,.2-.2.2-.2.7-.2,1.3,0,1.6,0h.3s0,0,0,0c0-.4-.4-1.4-.7-1.7,0,0,0,0,0,0h0s0,0,0,0c.7-.6,1.3-.5,1.7-.5h.3s0,0,0,0c0-.3-.5-1-.9-1.3.8-1.5,1.4-3,1.7-4.3.4-1.6.5-1.6.5-1.6,0,0,0,.3,0,1.6ZM82.4,34.8s0,0,.1,0c0,0,0,0-.1,0h0ZM88.5,27.2c0,0,.2-.1.3-.2,0,0-.2.1-.3.2,0,0,0,0,0,0ZM88.8,47.5s0,0,0,0h0s0,0,0,0ZM84.3,14.1s0,0-.2.1c.1,0,.2,0,.2-.1,0,0,0,0,0,0ZM85.5,9h0s0,0,0,0c0,0,0,0,0,0ZM82.3,20.1s0,0-.3.2c.1,0,.2-.1.3-.1,0,0,0,0,0,0ZM65.5,65.6c-.3.1-.6.2-.9.3h.1c.3,0,.5-.2.8-.3ZM88.1,41.2c0,0-.2,0-.2,0,0,0,0,0,0,0,0,0,.2,0,.2,0ZM88,49.7s0,0,.1,0h0s0,0-.1,0ZM89.3,45.2s0,0,.1,0h0s0,0-.1,0ZM89.9,43.3s0,0,0,0c0,0,0,0,0,0,0,0,0,0,0,0ZM86.3,42.7h0s0,0,.1,0c0,0,0,0-.1,0Z"/>
    <path class="st1" d="M63.5,13.6c-.3-.3-.3-1.8-.3-1.8,0-1.9-1.6-2.5-2.9-2.5s-2.9.8-2.9,2v4.8c0,.3,0,.5-.2.6-.1.1-.3.2-.6.2-.4,0-.9-.3-.9-.7v-2.6c0-2.9-3.3-3.4-5.2-3.4-2.8,0-5.8,1.2-5.8,3.6v1.3s0,10.5,0,10.5c0,.6-.4,1.1-.7,1.3-.3.2-.6.2-.8,0-.2-.1-.4-.4-.4-1.2,0,0,0-.2-.1-.2,0,0-.3,0-.4.3-.3.9-.3,1.7,0,2.4.5.9,1.4,1.4,2,1.6v1.6h0c-1.9,0-4.1-.7-4.1-4.1V11.1c0-2.5-1-3.3-1.9-3.6-1.6-.5-3.7.6-4.5,1.9-.9,1.3-.6,2.5,0,3.2.6.8,1.7,1,2.6.6,0,0,.2-.1.2-.2,0,0,0-.1-.2-.1-.6,0-1-.5-1-1.1s.6-1.3,1.3-1.3,1.3.6,1.3,1.3v16.3c-1.9,0-2.4,1.5-2.4,2.4,0,1.4,1,2,1,2,0,0,.1,0,.2,0,0,0,0-.1,0-.3-.2-.5-.2-.9,0-1.2.3-.4.9-.5,1.4-.5.3,0,.5.2.5.3.7,2,2.5,3,5.5,3.1,0,0,.2,0,.3.2v.9c-.9.4-3,1.7-2.9,5.6,0,3,.6,7.1,1.2,7.5,0,0,0,0,.1,0,2.5-.7,6.2-.7,8.1.4.3.2.4.3.4.5,0,0,0,.2-.2.2,0,0-.2,0-.3,0-.8-.8-3.2-.9-3.8-.9-2.6,0-8,.8-9.5,4.1-.9,1.9.9,5.8,1.9,7,0,0,.2,0,.3,0,0,0,.1,0,.1-.2-.4-1.9.4-3.8,2.1-5.3,2.1-1.8,5.3-2.7,7.3-2,.3,0,.4.3.5.4,0,0,0,.2,0,.2,0,0-.1,0-.2,0-2.6-1.1-5.3.6-5.3.6,1.1,6.8,9.4,6.6,15.4,6.5h2.1s2.3,2.3,2,4.2c-.1.8-.7,1.4-1.6,1.8-.9.4-4.6.2-5,0-.2-.2-.3-.6-.2-1.2.1-.9.7-2.1,1.8-2.6.1,0,.2,0,.2-.2,0-.1-.4-.2-.7-.2-2.1.3-3.6,1.3-4.1,2.9-.1.4-.2.5-.2.9,0,.7-.2.7-1.1.8h-.5c-1.7.3-2.6,1-2.8,2.4-.2,1.1.2,2.2.9,3,.6.7,1.4,1.1,2.2,1,0,0,.1,0,.1-.1,0,0,0-.2-.2-.3-.9-.5-1.2-1.4-1-2,.2-.7.8-1.1,1.7-1.1,0,0,.4,0,.4.3v.3s0,.8,0,.8c.4,2,1.9,3.8,3.8,4.3,0,0,.2,0,.2-.1,0,0,0-.2-.3-.3-1-.7-1.4-2.2-1.4-3.3,0-.7.1-1.4.4-1.5.4-.3,2-.5,2.7.2.8.8,1.1,1.4,1,1.9,0,.3-.4.6-.9.7,0,0,0,.1,0,.2,0,0,0,.2.2.1,2-.3,2.7-1.9,2.7-3.1,0,0,0,0,0-.1,0,0,.1,0,.3,0h1.5c.2,0,.5,0,.8,0v-17h-5.7c-1.3,0-1.8.6-1.8,1.1,0,.7.7,1.6,2.2,1.7,0,0,.3.2.3.2,0,0,0,0-.3,0-1,0-3,0-3.7-1.1-.4-.7-.5-1.7,0-2.4.5-.9,1.7-1.4,3.3-1.4h5.9v-2.3c-2.9.4-6,.2-8-.4-3.6-1.2-6.7-4.5-5.4-8.6.2-.6.6-1.1,1.2-1.8.8-.8,1.6-.8,1.9-.8.1,0,.2,0,.2,0,0-.1-.2-.4-.2-.4-1.3-1.5-6.5-2-7.6-1.5,0,0,0,0,0,0-.4-.8-.6-5.7,1.3-7.1.8-.5,1.6-.7,2.2-.5.5.2.8.6,1,1.3.2.8,0,1.7-.5,2-.4.3-.9.2-1.4-.2-.1-.1-.2-.3-.3-.4v-.2c-.1-.1-.2-.2-.3-.2,0,0,0,0,0,0,0,1.6.6,2.7,1.7,3.2,2,.7,4.2,0,5.6-2,1.3-1.8,1.8-4.8.6-5.9,0,0-.2,0-.2,0-.1,0,0,.3,0,.4,0,1.7-1.1,2.9-2.2,3.1-.9.2-1.7-.4-2.1-1.5,0,0,0-.2.3-.2.9,0,1.6-.3,1.9-1,.4-.9,0-2.2-.8-2.9,0,0-.2,0-.3,0,0,0,0,0,0,0,.1,1.1-.2,1.8-.8,1.9-.6.1-1.3-.3-1.5-.9-.2-.6.3-1.2,1.3-1.5,0,0,0,0,0,0,0,0,0-.2,0-.2-1.3-.5-2.8,0-3.3,1.1-.3.7,0,2,.7,2.3,0,0,0,0,0,.1-.1.2-.9.5-1.5.3-.5-.2-1-.6-1-1.9v-7.8c0-.8.9-1.2,1.7-1.3.9,0,1.8.2,2,1,.2,1,0,1.2-.3,1.4-.6.3-1.1-.2-1.1-.2,0,0,0,0,0,0h0s0,0,0,0c0,.2,0,.4,0,.6.2.4.8.7,1.5.9.7.1,1.2,0,1.5-.2.2-.2.4-.5.4-.9v-1.3c0-.6.3-.9.6-.9.3,0,.6.2.6.7v1.7s0,2.8,0,2.8c0,2,1.6,2.9,3,2.9s2.9-.9,2.9-2.7v-4.1c0-.8.3-1.2.8-1.3.5,0,1.2.4,1.3,1.2.2.9.1,1-.1,1.5v.3c-.1,0-.2.2-.2.2-.2.5-.3.7-.3.8,0,0,.2,0,.5,0,1-.1,1.9-.3,2.7-.7v-3.9s0,0,0,0c-.4,0-.7,0-1-.2ZM48.2,38.8c0,1.2-1,2.2-2.3,2.2s-2.3-1-2.3-2.2,1-2.2,2.3-2.2,2.3,1,2.3,2.2ZM49.4,16.3h0s0,0,0,0c0,0,0,0,0,0ZM44.5,38.8c0,.8.7,1.4,1.5,1.4s1.5-.6,1.5-1.4-.7-1.4-1.5-1.4-1.5.6-1.5,1.4ZM59.9,6.8c-.2.3-.4.6-.3.7,0,0,.1,0,.3-.1,1.3-1.1,2.8-1.4,4.5-.8,0,0,.1,0,.2,0v-1.7c-3,0-4.3,1.4-4.7,1.8ZM57.4,32.3c-.6.8-.9,2.8-.9,5.8,0,4.8,3.7,5.5,7.7,5.5s.3,0,.5,0v-3.3c-.1,0-.3,0-.5,0-3.4,0-4.7-.3-4.7-3s1.5-4.5,3.7-5.5l1.4-.6s0,0,0,0v-3.5c-.4.2-.7.3-1.1.5-2.2,1-4.5,2-6.1,4.1ZM41.4,46.6h0s0,0,0,0l-.5-3.6c0-.2,0-.3,0-.4,0,0-.3,0-.7,0h0c-5.1,1.7-5.2,3.6-4.7,7.2,0,.2.4.7.5.7h0s0,0,0,0c0-.3.3-.8.3-.9,1.5-2.6,4-2.9,5.1-2.9ZM41.5,46.6h0c0,0-.1,0-.2,0,0,0,.2,0,.2,0ZM61.8,37c0,.2,0,.4.2.5,0,0,.2,0,.4-.2v-.4c.5-.9.8-1.6,2.3-1.8v-1.6c-1.4.5-2.6,1.6-2.8,3.5Z"/>
    <g>
      <path class="st0" d="M126.8,88.1c-.2-3-2.8-5.2-15-2.3,0-1.4-.1-2.6-.1-3.2-.1-2.3-2.6-3.6-7.6-3.5-2.5,0-3.8.2-4.7.3-3.4-2.6-4.4-6.8-4.2-10.5l4.9-5.7c1.3-1-3.1-5.5-7.3-4.2l-8.3,11c.1-.1.3-.2.4-.3-2,2.6-1.9,7.4,1,12.3-6.9,1.1-14.7,2.2-20.2,2.2s-.6,0-1,0c-.3,0-.7,0-1,0-5.5,0-13.4-1.1-20.2-2.2,2.9-4.8,3.1-9.7,1-12.3.1,0,.3.2.4.3l-8.3-11c-4.2-1.3-8.6,3.2-7.3,4.2l4.9,5.7c.2,3.7-.8,7.9-4.2,10.5-.9-.1-2.3-.2-4.7-.3-5.1-.2-7.5,1.1-7.6,3.5,0,.6,0,1.8-.1,3.2-12.2-2.8-14.8-.7-15,2.3-.2,2.5-.3,7.4,0,9.2.3,1.8,3,3.1,5.9,3.6,6.7,1.1,19.3-.3,29.1-8.9,6.1,1.4,13.6,3.2,26.4,3.2s.7,0,1,0c.3,0,.6,0,1,0,12.8,0,20.2-1.8,26.4-3.2,9.7,8.6,22.4,10.1,29.1,8.9,2.9-.5,5.6-1.8,5.9-3.6.3-1.8.2-6.7,0-9.2Z"/>
      <path class="st1" d="M29.7,83.7c-.2.6-.9,4.3-1,5.1.2,0,.5,0,.5,0,.7-1.7,1.1-3.5,1.2-5.3-.3,0-.6,0-.8.3ZM33.1,83.7c.2.8,0,5,.6,6.2.2.3.5,0,.5-.3.3-2,0-3.9-.4-5.9,0,0-.5,0-.8,0ZM34.3,82.5s0-.4,0-.5c-1.4-1.2-3.1-.6-4.7-.6-.4,0-.3.5-.3.8.2,0,.4,0,.6,0,1.5-.2,2.9.6,4.4.2ZM127.4,88c-.1-1.3-.6-2.3-1.5-3-2.1-1.5-6.4-1.5-13.5,0,0-.7,0-1.5-.1-2.4v-.3c0-1.9-1.6-4.1-8.2-3.9-2.3,0-3.6.2-4.6.3-1.7-1.4-2.7-3.2-3.2-4.8-.5-1.6-.7-3.4-.7-5.1l4.8-5.5c.2-.2.6-.8.1-1.8-.9-1.7-4.4-4.3-7.9-3.3,0,0-.2,0-.3.2l-8.3,11c0,.1-.1.3,0,.4-.3.5-.5,1-.7,1.5-.2.8-.3,1.7-.3,2.6,0,2.3.7,4.9,2.1,7.4-6.7,1.1-14.1,2.1-19.5,2.1s-.7,0-1,0c-.3,0-.7,0-1,0-5.4,0-12.8-1-19.5-2.1,1.4-2.5,2.1-5,2.1-7.4s-.1-1.8-.3-2.6c-.2-.6-.4-1.1-.7-1.5,0-.1,0-.3,0-.4l-8.3-11c0,0-.2-.1-.3-.2-3.6-1.1-7.1,1.6-7.9,3.3-.5,1-.1,1.6.1,1.8l4.8,5.5c0,1.7-.1,3.4-.6,5.1-.5,1.6-1.5,3.4-3.3,4.8-.9-.1-2.3-.2-4.6-.3-6.6-.2-8.1,2-8.2,3.9v.3c0,.9,0,1.7-.1,2.4-7.1-1.6-11.4-1.6-13.5,0-.9.7-1.4,1.7-1.5,3-.2,2.5-.3,7.4,0,9.3.4,2.2,3.6,3.6,6.3,4,5.7,1,18.8.3,29.3-8.9,0,0,0,0,.1,0,6,1.4,13.6,3.2,26.2,3.2s.7,0,1,0c.3,0,.6,0,1,0,12.6,0,20.1-1.8,26.2-3.2,0,0,0,0,.1,0,10.5,9.2,23.6,9.9,29.3,8.9,2.7-.5,5.9-1.8,6.3-4,.3-1.9.2-6.8,0-9.3ZM104.1,79.5c3.2-.1,7,.3,7.1,3v.3c.2,3.6.2,5.8.2,7.1s0,.8,0,1.1c-.9-.6-2-.8-3.3-1-4.2-.6-7.6-.3-11.1.3v-.3c0-.3-.7-4.4-.6-4.6.3-.4,1.7,0,1.7-.8,0-.8-1.2-.4-1.8-.5-.2,0-.2,0-.2-.2,0-.3-.4-1.9-.7-2.2-.2-.2-.6,0-.7.3-.1.5.6,2.4.3,2.4-.8,0-1.6.7-1.6.5-.1-.4-.2-1-.4-1.4-.4-.5-1.7-.2-1.7-.4,0-.6.4-.5.6-.7.2,0,.3-.2.4-.4,0-.2,0-.6,0-.8.4,0,.9-.2,1.3-.2l.9-.2c1.7-.3,2.6-.5,3.4-.7,1.4-.4,2.1-.5,6.5-.7ZM111.1,93.2c-.5.6-2.1.5-3.5.4-1.4-.1-2.7-.2-3.5.3,0-.2,0-.5,0-.7,0-1.3.3-2.2.6-2.5,1.1,0,2.2.1,3.4.3,1.7.2,2.7.4,3.3,1.2,0,.5,0,.8-.2,1ZM92,85c.2,0,.4,0,.4.3,0,.3-.4.3-.5.3,0,0-.3,0-.4,0-.1-.4,0-.6.5-.6ZM91.3,84.3c-.1-.1,0-.4,0-.4,0,0,.4-.2.5-.1,0,0,.2.2.1.3,0,.2-.5.4-.7.2ZM92,86.2c0-.2,1.1,0,1.2-.6,0-.1.2.1.5.3.3.1,1.2-.3,1.8-.2,0,0,.8,4.2.7,4.8l-1.7.3c0-2.1-1-4.2-1.5-4.2-.5,0-1,.2-.9-.3ZM90.7,81.8s0,0,0-.2c.2,0,.5,0,.7-.1,0,0,0,.2-.1.3-.2.1-.4,0-.5,0ZM92.9,59.4c3-.8,5.9,1.4,6.7,2.8,0,.2.1.4.1.5s0,.1,0,.1c0,0,0,0,0,0,0,0-6.8,7.9-7.5,8.7-1.3-1.8-2.8-2.9-4.4-3.2-.6,0-1.1,0-1.7.1,1.8-2.4,6.7-8.8,6.9-9.1ZM83.9,74.1c0-.8.1-1.6.3-2.3.2-.7.5-1.4.9-1.9.8-.5,1.6-.8,2.5-.6,1.4.2,2.8,1.3,4.1,3.2,0,.1.2.2.4.2.2,0,.3,0,.4-.2l2.1-2.5c0,1.4.2,2.9.7,4.2.5,1.6,1.4,3.2,2.9,4.7-.3,0-.6.1-.9.2-.7.2-1.6.4-3.3.7l-.9.2c-1,.2-2,.4-3.1.5-.2,0-.4,0-.7.1h0c-1.1.2-2.3.4-3.4.6-1.5-2.6-2.2-5.2-2.2-7.3ZM89.7,84.2h.1c.1-.1.3-.3.4-.1.2.2.1.4,0,.6-.2.2-.6,0-.7,0,0-.1,0-.3,0-.3ZM89.3,82.3c0,0,0-.4-.2-.5.2,0,.5,0,.7-.1,0,.2,0,.4,0,.5,0,.1-.3.1-.5,0ZM89.8,85.4c.2-.1.6-.1.7,0,0,0,.1.2,0,.3,0,.1-.4.2-.6.2,0,0-.6-.3-.1-.6ZM72.2,86.9c.2,0,.6,0,.7,0,.2-.3-.1-1,.3-1,1.2,0,1.7.5,2,.9,0,.1-1.7,1.5-2.2,2.4-.6-.4-1.6-.6-2.3-.8,0,0-.1-.5.2-.9.5.5,1,1,1.8,1,.8,0,1.9-1.6,1.5-1.8-.6-.4-1,1.6-2,.9-.4-.3-1-1-.3-1.1.2,0,.1.5.4.6ZM53.4,83.9c1.1.1,2.2.3,3.3.4-.8.8.2,2.5-.9,3.2-.2-.5-.6-.4-.9-.3-.5.1-.4.7-.2.9.4.5,1.7.3,1.4,1.3-.2.7-.7,1.4-1.4.9-1.3-1-1.3-2.8-.8-4.4,0-.2,0-.9-.4-1.3-.1-.1-.2-.5,0-.6ZM52.6,84.9c.2.2.4.4.6.6.3.6-.3.9-.6,1.3-.3-.4-.6-.8-.5-1.3,0-.3.3-.4.5-.6ZM29.4,62.8s0,0,0,0c0,0,0,0,0-.1,0-.1,0-.3.1-.5.7-1.4,3.7-3.6,6.7-2.8.2.3,5.1,6.6,6.9,9.1-.5-.1-1.1-.2-1.7-.1-1.5.2-3,1.3-4.4,3.2-.7-.8-7.5-8.7-7.5-8.7ZM33.8,74.4c.5-1.4.7-2.8.7-4.2l2.1,2.5c.1.1.2.2.4.2.2,0,.3,0,.4-.2,1.3-1.9,2.7-3,4.1-3.2.8-.1,1.7,0,2.5.6.4.5.7,1.2.9,1.9.2.7.3,1.4.3,2.3,0,2.1-.7,4.7-2.2,7.3-2.6-.4-5-.9-7.2-1.2l-.9-.2c-1.7-.3-2.6-.5-3.3-.7-.3,0-.6-.1-.9-.2,1.5-1.4,2.4-3.1,2.9-4.7ZM2.7,88.1c0-1,.4-1.8,1.2-2.3,1.8-1.3,6.2-1.2,12.9.3-.1,2.8-.1,4.4,0,5.2,0,1,.2,2.1.6,2.5.9.9,2.6.8,4.3.7,1.2,0,2.6-.2,3,.2,0,0,.2.2.1.5,0,.5-.2.8-.5,1-1.4,1-5.2,0-8.3-.9-1.4-.4-2.7-.7-3.8-.9-3.5-.6-7.4-1.1-9.3.4-.1.1-.2.2-.3.3,0-2.2,0-5.3.2-7.1ZM17.8,92.2c.6-.8,1.6-1,3.3-1.2,1.2-.2,2.3-.3,3.4-.3.3.3.6,1.2.6,2.5,0,.2,0,.5,0,.7-.8-.5-2.1-.4-3.5-.3-1.4.1-3,.2-3.5-.4-.2-.2-.2-.5-.2-1ZM8.1,100.4c-3-.5-5.2-1.8-5.4-3.2,0-.7.3-1.2.8-1.6,1.5-1.2,5-.8,8.6-.2,1,.2,2.3.5,3.7.9,3.6,1,7.4,2,9.1.8,0,0,0,0,.1-.1,0,0,0,0,0,0,.9-.6,1.1-2.4,1.1-3.8,0-.6-.1-1.6-.5-2.5,3.7,0,6.9.7,10.5,1.5-10.1,8.5-22.5,9.1-28,8.2ZM51.2,94c-5.7-.6-9.9-1.6-13.6-2.5-2-.5-3.8-.9-5.7-1.2,0-2.2.5-4.6.2-6.8,0,0-.5,0-.8,0,.1,2.1-.6,4.5-.5,6.7-3.1-.5-6.1-.6-9.9,0-1.4.2-2.5.4-3.3,1,0-.3,0-.6,0-1.1,0-1.3,0-3.5.2-7.1v-.3c.1-2.7,4-3.1,7.2-3,4.4.1,5.1.3,6.5.7.7.2,1.6.4,3.3.7,0,0,.2.1.3.1.8.3,1.4,1.9,1.5,2.9,0,2.2-1.1,4.4-.1,6.5,0,0,.3,0,.5,0-.5-2.8,1.6-5.7,0-8.4-.1-.2,0-.7.2-.8,4.4.8,9.8,1.7,15,2.4-.3.3-.9,1.1-1,1.5-.4,1.2.6,2.3-.3,3.5-.4.5.4,1.4.3,1.8-.2.9-1.8,1.6-1.1,2.4.6.7.9-1.2,1.3-1,.6.3.2,1.6-.1,2ZM52.3,88.2c.3-.1.6.7.8,1.2,0,.3-.3.9-.5.8-.9-.3-1.2-1.6-.3-2ZM71.7,94.5s0,0,0,0c-1.9,0-4,.2-6.2.2s-.7,0-1,0c-.3,0-.6,0-1,0-4.2,0-7.9-.2-11.1-.5-.1-.3-.3-1.2,0-1.3.5,0,1.1.6,1.4.2.6-.9-.6-1.6-1.4-2.1.2-.2.5-.6.6-.6,1.3.8,3.5,1,3.8-.7.2-1.7,1.2-3.5.3-5.2,0,0,0,0,0-.1,2.3.2,4.4.3,6.3.3s.6,0,1,0c.3,0,.7,0,1,0,1.9,0,4-.1,6.3-.3h0c0,.4.3,1-.5,1.1-1.9.2-2.5,4.8-1.5,4.8.7,0,.4-.7.5-1.1,0-.2,1.6.3,2.1.8-.5.9-.7,2-.8,3.1,0,.4,0,1.4,0,1.5ZM72.5,94.5v-.2c.1-1.1.3-2.7.6-3.3.4-.7,1,.6,1.1.7.2.6.7,2.2.7,2.6-.8,0-1.6.1-2.4.2ZM91.5,91.5c-4.1,1-9,2.1-15.7,2.7,0,0,0-.2,0-.3,0,0-.3-2.9-2-4.3.5-.6,1.5-1.9,1.9-1.8.2,0,0,1.2.3,1.3.1.1.8.1.8,0,.1-1.2-.6-4.5-3.8-4.1v-.6c0,0,0-.2,0-.2,5-.5,10.4-1.4,15.2-2.2-.1,0-.2.2-.2.3,0,.6.7.9,1.2.8.2,0,.1.3,0,.5-.2.2-.9.3-.9,1.2.2,2.8,2.1,1.4,2.2,1.7.2.6-1.2.3-1.2.8,0,.7,1.6,0,1.7.1.2.8-1.9.3-1.9,1,0,.8,2.2,0,2.2.1.2.8-1.2.3-1.2,1,0,.3.5.3.8.2.6-.2,1.2-.4,1.6-.8.2.2.3.5.4.7.1.4,0,.7.1,1.2,0,0,0,0,0,.1-.6.1-1.2.3-1.9.4ZM120.9,100.4c-5.4.9-17.9.3-28-8.2,3.6-.8,6.8-1.5,10.5-1.5-.4.8-.5,1.9-.5,2.5,0,1.5.2,3.2,1.1,3.8,0,0,0,0,0,0,0,0,0,0,.1.1,1.8,1.2,5.5.2,9.1-.8,1.4-.4,2.7-.7,3.7-.9,3.5-.6,7-1,8.6.2.5.4.7.9.8,1.6-.3,1.4-2.5,2.7-5.4,3.2ZM126.5,95.2c-.1-.1-.2-.2-.3-.3-1.9-1.5-5.8-1-9.3-.4-1.1.2-2.4.5-3.8.9-3.1.8-6.9,1.9-8.3.9-.3-.2-.5-.5-.5-1,0-.3,0-.4.1-.5.4-.4,1.8-.3,3-.2,1.7.1,3.5.2,4.3-.7.4-.4.5-1.5.6-2.5,0-.8,0-2.4,0-5.2,6.7-1.5,11-1.6,12.9-.3.7.5,1.1,1.2,1.2,2.3.1,1.8.2,4.9.2,7.1Z"/>
    </g>
  </g>
</svg>