<?xml version="1.0" encoding="UTF-8"?>
<svg id="_圖層_1" data-name="圖層_1" xmlns="http://www.w3.org/2000/svg" version="1.1" viewBox="0 0 340 269.7">
  <!-- Generator: Adobe Illustrator 29.1.0, SVG Export Plug-In . SVG Version: 2.1.0 Build 142)  -->
  <defs>
    <style>
      .st0 {
        fill: #f2deaf;
      }

      .st1 {
        fill: #6e1e6f;
      }

      .st2 {
        fill: #e5a923;
      }
    </style>
  </defs>
  <path class="st1" d="M170.1,213.2c2.4,0,13.6-4,17.9-6.3,23.3-12.3,43.7-29,57-52.1,10.7-18.5,11.3-41.4,13.1-62.2,2.2-26.9,2-53.7,1.6-80.7,0-1.9-38.6-6.2-42.5-6.5-15.6-1.5-36.6-2.4-47-2.4s-31.4,1-47,2.4c-4,.4-42.5,4.6-42.5,6.5-.4,27-.6,53.8,1.6,80.7,1.8,20.8,2.4,43.6,13.1,62.2,13.3,23.1,33.6,39.7,57,52.1,4.3,2.3,15.5,6.3,17.9,6.3Z"/>
  <path class="st2" d="M222.7,114.3c0,0,.2,0,.3,0,0,0-.2,0-.3,0h0ZM217.6,117.5c.2,0,.3.1.5.2-.1,0-.3-.2-.5-.2,0,0,0,0,0,0ZM247.8,68.3s0-1.3.2-1.4c1-.3,5.3-2.1,6.2-7.6.1-.9.2-1.8,0-2.8l-.2.2c-.9.8-3.5,3.3-4.9,3-.4,0-.6-.3-.8-.8,0-5.5-.4-9.9-1-15.6,1.6-.9,4.9-3.3,4.8-8.5,0-.7,0-1.4-.2-2.2l-.3.3c-.9,1-3.1,3.6-4.5,3.4-.3,0-.6-.2-.7-.6v-.7c-1.2-11.7-3.6-17.5-8.4-19.9,0,0-.3-.1-.3-.1,0,0,.2.5.5.8.7,1,1.9,2.8,2.3,4.8.8,3.5,1,6.3,1,8.6s-.4,4.6-.8,6.2c-.6,1.2-1.5,1.9-2.7,2.1-2.6.6-5.6-2.3-6.6-4.7,0,0,0-.2-.1-.2-.2,0-.6.6-.8,1.1-.9,3.1.2,7,2.3,8.6.8.6,2,1,3.5,0,.8-.5,1.3-.7,1.7-.6.2,0,.4.2.5.5-1,2.8-2.1,5.6-3.4,8.4-.7.6-1.5,1-2.4,1-3,.2-5.5-3.5-6-6.1,0-.1,0-.2-.1-.2-.2,0-.7.6-1,1-1.5,3.1-1.2,7.4.7,9.3.7.7,1.9,1.4,3.7.7.9-.4,1.5-.5,1.9-.3.2,0,.3.3.3.5-1.5,2.7-3.1,5.4-4.8,8.1-.7.4-1.4.6-2.2.6-3.2,0-5.2-3.6-5.5-6.1,0-.1,0-.2,0-.2-.2,0-.9.5-1.2.9-2,2.9-2.2,7-.6,9,.9,1.2,2.3,1.5,3.9.9,1-.4,1.6-.4,1.9-.3.1,0,.2.2.1.4-1.7,2.3-3.5,4.5-5.4,6.7-1.2.8-2.5,1.1-3.8.9-3.3-.5-5.4-5.3-5.4-8.5,0-.1,0-.2-.1-.3-.3-.1-1,.5-1.4.9-2.5,3.2-3.2,8.2-1.5,10.9.6,1,1.9,2.1,4.1,1.7,1.2-.2,1.9-.2,2.1,0,.1.2,0,.5-.1.8,0,0-5.5,5.1-5.5,5.1-1.4.9-3.4,1.7-5.6.9-3.7-1.3-5-7.2-4.3-10.8,0-.2,0-.3,0-.3-.3-.2-1.3.3-1.8.7-3.5,3.1-5.4,8.6-4.1,12.1.5,1.3,1.7,2.9,4.3,2.8,1.5,0,2.3.2,2.4.6.1.4-.2.9-1,1.5-.7.4-1.6,1-2.3,1.8-1.6,2-2.4,3.6-2.5,5.5l-.2,2c-.1,1.6-.2,3.2-.6,4.7-.3,1.5-.8,2.8-1.4,3.9-3.4,6.2-11.4,9.4-19.7,10.7v-11.6c10.2-.3,14.6-4.7,14.6-14.7s-3.1-12.1-10.2-12.3c-1.4,0-2.9.2-4.3.7v-6.5c5.1-2.3,10.9-4.9,16.9-6.5,13.8-3.5,25-11.2,28.8-19.3.5-1.2.9-2.4,1.2-3.6-.7.5-10,6.3-16.9,7.8l-.9.2c-.9.2-1.9.4-2.4,0-.2-.2-.4-.5-.4-.9,0-3.7,2.1-6.7,5.8-8.2l.4-.2c8.4-3.6,14.9-6.3,18-10.7.8-1.2,1.4-2.4,1.7-3.8-.7.4-10.4,5.5-16.7,6.4h-.3c-.7.2-2,.4-2.6-.2-.3-.4-.4-1-.2-1.8.7-2.8,1.9-4.5,4.2-5.8,2.5-1.4,5.1-2.6,7.7-3.7,4.3-1.9,8.2-3.7,10.1-6,.1-.1.2-.3.3-.4,0,0,0,0,0-.1.3-.5.6-1.1.7-1.7l-9.1,2.9-1.8.6c-2.6.8-5.3,1.7-6.2.8-.3-.3-.4-.8-.1-1.6.5-1.6.9-2.5,1.6-3.5,3.4-4.8,10.3-10,18.6-8.5,1.4.3,2.1.2,2.1,0,0,0-.2-.4-1.3-.8-6.2-2.3-12.1-2.1-17.3.6-9.6,4.9-17.5,18.1-23.5,39.3-3.4,12.1-10.9,16.5-18.6,19.9v-27c2.8-1.1,5.2-2.7,7.3-4.8,5.8-5.8,7.9-13.1,5.5-19.5-1.9-5.1-6.5-8.7-11.6-9.1-.4,0-.8,0-1.2,0v-3.9c-9.6,0-29.5.9-45,2.3-5.6.5-40.6,4.5-40.7,6.2-.1,9.1-.3,18.2-.3,27.3,0,16.8.4,33.6,1.8,50.3l.5,6.5c1.4,18.3,2.9,37.3,12,53.2,11.5,20.1,29.9,37,54.5,50,1.5.8,8.6,4.4,14.5,5.7,0,0,0,0,0,0,.3,0,.5,0,.8.1.6,0,1.1.2,1.7.2v-28.9c8.2.1,21,.2,24.4-1,3.3-1.1,5.4-3.6,5.9-7.1.6-4-1-8.4-3.8-10.5-.4-.3-.9-.3-1.1-.1-.1.1,0,.3.1.6.3.6.8,1.5.8,3.3s-.6,3.1-1.8,4.2c-3.2,3-9.7,2.6-9.7,2.6h-7.5c0,0-7.3,0-7.3,0,0,0,.2,0,.3,0h-.3c4.2-1,7.2-4,8.5-6.4,3.2-5.9.5-9.8-.3-10.9-.1-.2-.2-.3-.2-.3h0s0,0,0,0c.5,0,1,0,1.5,0-.5,0-.9,0-1.4,0,0,0,0,0,0,0,1.9,0,3.6-.2,5.2-.6-1.2.2-2.4.4-3.8.4,15.6-.9,18.9-14.9,20.7-22.6l.3-1.3c.6-2.3,2-6.3,5.4-7.3,2.2-.7,3.6-1.5,4.7-2.1l1.3-.7s.4-.2.5-.2c2,0,1.9,1.7,1.9,2.8,0,.5,0,.9.1,1,0,0,.2,0,.5-.1,1.7-1,2.5-4.2,2.7-6,0-.1,0-.3,0-.4h0s0,0,0,0c2.1.8,2.3,2,2.4,2.7,0,.2,0,.4.1.4,0,0,.2,0,.5-.3,1.6-1.3,1.9-4.1,1.9-5.8,0,0,0,0,0,0h0s0,0,0,0c2.6.2,2.9,1.7,3,2.4,0,.2,0,.4.1.4,0,0,.1,0,.4-.3,1.4-1.4,1.4-4.5,1.3-5.8,0,0,0-.1,0-.2h0c1.7,0,2.1,1.3,2.3,2.1,0,.3.2.5.2.5,0,0,.2,0,.4-.3,1.6-2,1.5-5,1.2-6.1,0,0,0-.2,0-.2,0,0,0,0,0,0,0,0,0,0,0,0,1.7.1,2.1,1.2,2.4,1.9,0,.2.1.4.2.4,0,0,.2,0,.5-.4,1.2-1.6,1.1-4.6.8-6.2,2.3-2.7,3.7-5,4.1-6.7.3-1.3.5-1.4.7-1.4.3,0,.3.7.4,1.2-.4,4.1-1.2,9.4-2.5,14.8,0,0,0,0,0,0,0,0,0,0,0,.1-.2.8-.3,1.5-.5,2.3,0,0,0,0,0,0,0,0,0,0,0,0-.8-.7-2.7-1-3.2-.5-.2.2,0,.5.3.8.8.9,1.3,2.5,1.4,4,0,.2,0,.4,0,.6,0,0,0,0,0,0,0,0,0,0,0,0-.9-.5-2.5-.6-2.8-.2-.2.2,0,.5.3.7,1,1,1.3,3.2,1.2,4.8,0,.3,0,.5,0,.7,0,0,0,0,0,0,0,0,0,0,0,0-.8-.7-2.7-1-3.2-.5-.2.2,0,.5.3.8.9.9,1.1,3.3.9,4.9,0,.3,0,.5,0,.8,0,0,0,0,0,0,0,0,0,0,0,0-.9-.8-2.4-1.2-2.7-.9-.2.1,0,.4.2.8,1.1,1.6.7,4.7.4,5.8-5,11.1-10.6,16.8-16.5,16.9-4.9,0-7.5-4.3-7.8-7.4-.4-4.5,3.9-7.5,6.5-8.6,1.9-.8,3.1.3,3.5.8,1.5,1.8,1.3,3.1.9,3.8-.6,1-1.9,1.5-2.7,1.3-1.4-.3-2.6.3-3.1,1.5-.5,1.1-.2,2.4.7,3,1.4,1,3.3,1.1,5.3.2,2.5-1.1,4.6-3.5,4.8-5.5.4-1.7-.3-5.2-1.6-6.6-3.1-4.2-6.9-5.4-10.3-3.3-6,3.7-9.4,8-9.8,12.3-.3,3.9,1.8,8,6.4,12,5.4,4.7,14.1,1.8,18-2.4,0,0,.5-.3.5-.3,1,.4,5.8,1.8,10.1-2.4.5-.5,1-1.1,1.6-1.9h-.4c-1.3.2-4.7.5-5.5-.6-.2-.3-.2-.7,0-1.2,2.5-3.4,4.7-7.7,6.8-12.9,1,0,5.7-.7,7.9-5.8.3-.8.6-1.7.8-2.7l-.4.2c-1.2.7-4.4,2.5-5.4,1.7-.3-.3-.4-.8-.2-1.5,1.2-4.2,2.3-8.8,3.3-13.8,1.5-.2,5.9-1.4,7.3-7.2.2-.7.3-1.4.3-2.3l-.3.2c-1.1.7-4.1,2.7-5.4,2.2-.3-.1-.5-.4-.6-.9.7-4.4,1.2-9.2,1.8-14.4.7-.2,6.4-2.1,6.4-9.5s0-.5,0-.8c0,0-.2.2-.2.2-1,.9-3.6,3.3-4.9,2.9-.3,0-.6-.3-.7-.7l.6-11.9v-1.8ZM170,14.9c4.6,1.6,7.1,5.4,6.7,10.2-.4,4.6-3.4,8.7-6.7,9.2V14.9ZM170,90.5c.5,0,1.1,0,1.8,0,4.5,0,6.5,2.1,6.5,6.9s-1,6.9-8.3,7.2v-14ZM191.4,127.4h0c-2.9,4.9-6.6,7.9-15.9,7.9,0,0-2.4,0-5.5,0v-5.1h5c7.6,0,12.8-1,15-3,1-.9,1.3-.9,1.5-.8.3.2,0,.8,0,.9ZM242.3,53.2l-.2,2.2c-2.1,32-12,43.5-21.4,50.6l-.3.3c-3,2.2-6.4,4.7-12.5,6.8h-.2c-1.2.4-4.7,1.6-5.7,3.2-.9,1.6-1.2,1.7-1.3,1.6-.4-.2.4-2.3.6-2.8.7-1.3,1.9-2,4.1-3.1,4.2-2,4.8-4.5,4.7-5.8,0-1.9-1.4-3.7-3.2-4.4-1.4-.5-2.7-.2-3.5.7.4.2,1.4.6,1.5,2.2.2,2.4-1,3.4-2.2,3.5-1.4.2-2.9-.8-3.2-2.6-.5-3.4,1.3-5.6,2.4-6.3,1.4-.9,2.3-1.2,3.3-1.6,0,0,1.8-.7,1.8-.7,2.8-.5,4.8,1.1,5.8,1.9.4.3.7.6.9.5v-.2c.5-.8,0-4.1-.7-5.9v-.2c0,0,.2,0,.2,0,2.6-.4,3.9,1.4,4.7,2.4.3.4.5.7.6.6,0,0,.1,0,.1-.2.3-1-.6-4.6-1.4-6.3,0,0,0,0,0-.1h0s0,0,0,0c2.6-.8,4.2.7,5.1,1.5.3.3.6.5.7.5v-.2c.4-1-.8-4.3-1.8-6,0,0,.5-.5.5-.6,2.5-1,4.1,0,5.1.6.4.2.7.4.8.3v-.2c.3-1-.9-4-1.9-5.5,0,0,.5-.6.5-.6,2-.7,3.6-.2,4.5.1.4.1.7.2.8.2,0,0,.1-.1.1-.2.1-.9-1.1-3.7-2-4.7,0,0,.4-.6.5-.6,1.9-.7,3.3-.2,4.2.1l.7.2c0,0,.1-.2.1-.4,0-1.1-1.2-3.8-1.9-4.5,0,0,0,0,0,0h0s0,0,0,0c1.8-1.5,3.5-1.4,4.5-1.4h.7c0,0,0-.1,0-.2,0-.7-1.4-2.7-2.3-3.4,2.2-4.1,3.7-7.9,4.6-11.3,1.1-4.3,1.3-4.3,1.4-4.3.3,0,.2.9,0,4.3ZM217.3,89.7c.1,0,.2,0,.4,0-.1,0-.2,0-.4,0,0,0,0,0,0,0ZM233.5,69.6c.2-.2.5-.4.7-.5-.2.1-.5.3-.8.5,0,0,0,0,0,0ZM234.2,123.3c0,0,.2.1.3.2h0c0-.1-.2-.2-.3-.2ZM222.3,34.7s-.2.1-.6.3c.3-.2.5-.3.6-.3,0,0,0,0,0,0ZM225.5,21.4s0,0,0,0c0,0,0,0-.3,0,.1,0,.2,0,.2,0ZM216.9,50.6s-.3.2-.7.4c.3-.2.6-.3.7-.4,0,0,0,0,0,0ZM172.4,171.3c-.7.3-1.5.6-2.3.7h.3c.7-.2,1.4-.4,2.1-.7ZM232.3,106.7c-.2,0-.4-.1-.7-.2,0,0,0,0,0,0,.2,0,.5,0,.6.1ZM232,129.3c0,0,.2.2.3.3,0,0,0,0,0,0,0,0-.2-.1-.3-.2ZM235.6,117.3c.1,0,.2.1.3.2h0c0,0-.2-.1-.3-.2ZM237.2,112.2c0,0,.2.1.2.2,0,0,0,0,0,0,0,0-.2-.1-.3-.2ZM227.5,110.6h0c.1,0,.2,0,.3,0,0,0-.2,0-.3,0Z"/>
  <path class="st1" d="M167.2,33.6c-.8-.8-.8-4.7-.8-4.8,0-5-4.2-6.7-7.7-6.7s-7.7,2-7.7,5.3v12.6c0,.7-.2,1.2-.6,1.6-.4.3-.9.5-1.5.5-1.2,0-2.4-.7-2.4-1.9v-6.8c0-7.7-8.7-8.9-13.8-8.9-7.4,0-15.2,3.3-15.2,9.4v3.4s0,27.9,0,27.9c0,1.7-1,2.9-2,3.4-.8.5-1.6.5-2.2.1-.5-.3-1.1-1.1-.9-3.1,0-.2,0-.4-.3-.5-.3,0-.7.1-1,.9-.9,2.3-.8,4.4.2,6.3,1.3,2.4,3.8,3.8,5.2,4.2v4.3h-.1c-4.9,0-10.8-2-10.8-10.9V26.9c0-6.6-2.7-8.8-5-9.5-4.2-1.3-9.7,1.5-12,4.9-2.4,3.5-1.7,6.7-.2,8.6,1.7,2.1,4.5,2.7,7,1.7,0,0,.5-.3.5-.6,0-.2-.2-.3-.6-.4-1.7-.3-2.7-1.4-2.7-3s1.6-3.3,3.4-3.3,3.4,1.5,3.4,3.3v43.3c-5,0-6.3,4-6.3,6.4,0,3.8,2.7,5.2,2.8,5.3.1,0,.4,0,.5-.1.1-.1.2-.4,0-.8-.6-1.3-.7-2.3,0-3.2.8-1.1,2.4-1.4,3.6-1.3.8.1,1.3.4,1.4.8,1.8,5.2,6.6,7.9,14.6,8.1.2,0,.5.2.8.5v2.4c-2.5,1.1-7.9,4.6-7.7,14.9.2,7.9,1.7,18.8,3.2,19.9.1,0,.3.1.4,0,6.7-1.8,16.5-2,21.5,1,.7.4,1.1.9,1,1.4,0,.3-.2.5-.4.5-.2,0-.5,0-.7-.2-2.2-2.2-8.4-2.4-10.2-2.5-6.9-.1-21.1,2-25.3,10.9-2.4,5.1,2.5,15.3,5.1,18.6.2.2.5.2.8,0,.2,0,.3-.2.3-.4-1-5.1,1-10.1,5.7-14.1,5.7-4.9,14-7.1,19.3-5.2.7.3,1.2.7,1.2,1.2,0,.2,0,.4-.2.5-.1.1-.3.1-.5,0-6.9-3-14,1.6-14.1,1.6,3,17.9,24.9,17.5,40.8,17.2h5.5s6.1,6,5.3,11.1c-.3,2-1.7,3.7-4.2,4.8-2.4,1.2-12.2.6-13.2-.2-.5-.4-.8-1.7-.6-3.3.3-2.4,1.8-5.7,4.8-7,.3,0,.5-.2.5-.4,0-.4-1.1-.7-1.8-.6-5.6.7-9.6,3.5-11,7.7-.3.9-.4,1.4-.5,2.4-.1,1.8-.6,1.8-2.9,2.1h-1.3c-4.4.7-6.9,2.8-7.4,6.4-.4,2.8.5,5.7,2.4,7.9,1.6,1.8,3.7,2.8,5.7,2.7.1,0,.3-.1.4-.3,0-.2,0-.4-.5-.7-2.5-1.4-3.1-3.7-2.7-5.4.5-1.8,2.2-2.9,4.6-2.9,0,0,1,0,1,.7v.7s.2,2,.2,2c.9,5.4,5.1,10.2,10.1,11.5.2,0,.6,0,.7-.4,0-.2,0-.5-.8-.9-2.6-2-3.6-5.8-3.6-8.8,0-2,.4-3.6,1-4.1,1.1-.9,5.2-1.4,7.2.6,2,2,2.9,3.8,2.5,5.2-.2.9-1,1.5-2.3,1.9-.2,0-.2.3-.2.5,0,.1.1.4.6.4,5.3-.8,7.2-5,7.2-8.3,0,0,0-.2,0-.3.1-.1.3-.2.7-.2h3.9c.7,0,1.4,0,2.1,0v-45.1h-15c-3.5,0-4.8,1.5-4.9,2.9-.1,1.9,1.9,4.1,5.7,4.6.2,0,.8.4.8.6,0,0,0,.2-.9.3-2.6,0-7.9.1-9.9-3-1.2-1.9-1.3-4.4-.2-6.3,1.4-2.5,4.5-3.8,8.7-3.8h15.5v-6c-7.8,1.1-15.9.5-21.1-1.2-9.7-3.2-17.7-12-14.4-22.8.5-1.5,1.5-3,3.2-4.7,2.1-2.1,4.2-2.2,4.9-2.2.3,0,.5,0,.6-.2.2-.3-.4-1-.4-1-3.4-4-17.3-5.2-20.1-4,0,0-.2,0-.2-.2-1.1-2-1.5-15.3,3.4-18.7,2.1-1.4,4.3-2,5.9-1.4,1.3.4,2.2,1.6,2.7,3.3.6,2.1,0,4.5-1.4,5.4-1,.7-2.3.4-3.6-.7-.4-.3-.5-.7-.7-1.1l-.2-.4c-.1-.3-.4-.6-.6-.6,0,0-.2,0-.2.2-.2,4.2,1.5,7.3,4.6,8.4,5.4,2,11.2,0,14.9-5.2,3.4-4.8,4.8-12.8,1.5-15.7-.2-.2-.4-.3-.5-.2-.3.2-.2.9-.1,1.1,0,4.5-2.9,7.7-5.7,8.2-2.4.4-4.5-1-5.6-4.1,0,0,0-.7.8-.6,2.5.2,4.2-.7,5.1-2.6,1.1-2.4.2-5.7-2.2-7.8,0,0-.6-.2-.8,0,0,0-.1.1,0,.2.3,2.9-.4,4.8-2.1,5.1-1.6.3-3.4-.8-3.8-2.3-.4-1.6.9-3.1,3.6-4.1.1,0,.2-.1.2-.2,0-.2-.2-.5-.2-.5-3.6-1.2-7.4,0-8.7,2.9-.9,1.9,0,5.2,2,6.1,0,0,0,.1,0,.3-.4.6-2.3,1.3-4,.7-1.3-.4-2.8-1.6-2.8-5v-20.6c0-2.1,2.3-3.3,4.6-3.4,2.3-.2,4.9.5,5.2,2.6.4,2.6,0,3.3-.7,3.7-1.6.7-3-.5-3-.5,0,0,0,0,0,0h0s0,0,0,0c-.2.5-.2,1,0,1.5.6,1.1,2.1,2,3.9,2.3,1.8.3,3.1,0,3.9-.6.7-.6,1-1.4,1-2.5v-3.4c0-1.6.9-2.3,1.7-2.3.7,0,1.5.5,1.6,1.7v4.4s0,7.3,0,7.3c0,5.3,4.1,7.7,7.9,7.7s7.7-2.5,7.7-7.2v-10.9c0-2,.8-3.3,2.2-3.4,1.4-.1,3.1,1,3.5,3.1.5,2.4.3,2.8-.4,4l-.4.7-.3.5c-.6,1.3-.9,1.8-.7,2.1.2.2.6.2,1.4.1,2.6-.3,5-.9,7.1-1.8v-10.2s0,0-.1,0c-.9.1-1.9.2-2.7-.6ZM126.7,100.3c0,3.2-2.7,5.8-6.1,5.8s-6.1-2.6-6.1-5.8,2.7-5.7,6.1-5.7,6.1,2.6,6.1,5.7ZM129.9,40.8h0s0,0,0,0c0,0,0,0,0,0ZM116.8,100.4c0,2,1.7,3.7,3.9,3.7s3.9-1.7,3.9-3.7-1.7-3.7-3.9-3.7-3.9,1.6-3.9,3.7ZM157.7,15.6c-.6.8-1.1,1.7-.8,1.9.1.1.4,0,.8-.3,3.4-2.9,7.4-3.6,11.8-2.2.2,0,.4.2.6.2v-4.4c-7.8-.2-11.4,3.6-12.3,4.8ZM150.9,83.2c-1.7,2.2-2.5,7.4-2.5,15.4,0,12.7,9.8,14.5,20.4,14.5s.8,0,1.2,0v-8.7c-.4,0-.8,0-1.2,0-9,0-12.4-.7-12.4-7.9s3.9-12,9.7-14.5l3.8-1.7s0,0,0,0v-9.2c-1,.4-1.9.9-2.9,1.3-5.9,2.5-11.9,5.2-16.2,10.9ZM108.7,121h0s.1,0,.1,0l-1.4-9.6c0-.5,0-.9-.2-1.1-.3-.2-.8-.1-1.7.2h0c-13.6,4.5-13.7,9.6-12.5,19.1,0,.6.9,1.7,1.3,1.7h0s0-.1,0-.1c.2-.8.7-2,.9-2.4,4-7,10.7-7.7,13.4-7.7ZM108.7,120.9h0c-.1,0-.3,0-.5,0,.2,0,.4,0,.5,0ZM162.5,95.7c-.1.6.1,1.2.5,1.4.2,0,.6.1,1-.6,0,0,.4-.9.4-.9.9-2.3,1.7-4.3,5.6-4.7v-4.3c-3.7,1.2-7,4.2-7.5,9.3Z"/>
  <g>
    <path class="st0" d="M335.1,231c-.6-8.1-7.5-13.7-39.8-6.2-.1-3.7-.3-7-.3-8.6-.3-6.2-6.9-9.6-20.3-9.2-6.6.2-10.1.5-12.6.8-9-7-11.7-18-11.2-27.9l13-15c3.5-2.7-8.1-14.5-19.4-11.2l-22.1,29.1c.3-.3.7-.5,1-.8-5.4,6.8-5,19.7,2.7,32.6-18.2,3-38.9,5.9-53.6,5.9s-1.7,0-2.6,0c-.9,0-1.8,0-2.6,0-14.7,0-35.4-2.9-53.6-5.9,7.7-12.8,8.1-25.8,2.7-32.6.3.2.7.5,1,.8l-22.1-29.1c-11.3-3.3-22.9,8.5-19.4,11.2l13,15c.5,9.9-2.2,21-11.2,27.9-2.5-.4-6-.6-12.6-.8-13.4-.4-20,3-20.3,9.2,0,1.6-.2,4.9-.4,8.6-32.3-7.5-39.2-1.8-39.8,6.2-.5,6.6-.8,19.5,0,24.3.8,4.8,7.9,8.3,15.5,9.6,17.7,3,51.3-.9,77.1-23.7,16.3,3.8,36.1,8.6,69.9,8.6s1.7,0,2.6,0c.9,0,1.7,0,2.6,0,33.9,0,53.7-4.8,69.9-8.6,25.8,22.9,59.4,26.7,77.1,23.7,7.6-1.3,14.8-4.8,15.5-9.6.8-4.8.5-17.7,0-24.3Z"/>
    <path class="st1" d="M77.5,219.4c-.6,1.5-2.4,11.3-2.6,13.4.5,0,1.3.1,1.4,0,1.9-4.5,2.9-9.2,3.3-14.1-.8,0-1.7-.2-2.1.7ZM86.6,219.4c.5,2.2-.1,13.3,1.6,16.5.4.7,1.3-.1,1.4-.7.7-5.4.1-10.4-.9-15.7,0-.2-1.3,0-2.1,0ZM89.7,216.1c.1,0,.2-1.1,0-1.3-3.7-3.2-8.2-1.6-12.4-1.5-1.1,0-.7,1.3-.8,2.2.5,0,1,0,1.6,0,4-.5,7.7,1.5,11.7.6ZM336.5,230.9c-.3-3.5-1.6-6.1-4.1-7.9-5.6-4.1-17-4-35.8.2,0-1.9-.2-4-.3-6.3v-.7c-.3-5.1-4.2-11-21.7-10.4-6.1.2-9.6.4-12.1.8-4.6-3.7-7.2-8.4-8.6-12.6-1.4-4.3-1.9-9-1.7-13.4l12.7-14.6c.7-.6,1.7-2,.3-4.7-2.3-4.5-11.6-11.4-21-8.6-.3,0-.5.2-.7.5l-22.1,29.1c-.2.3-.3.7-.2,1.1-.7,1.2-1.3,2.6-1.7,4.1-.6,2.2-.9,4.5-.9,6.9,0,6.2,2,12.9,5.6,19.5-17.8,2.9-37.4,5.6-51.6,5.6s-1.7,0-2.6,0c-.9,0-1.8,0-2.6,0-14.2,0-33.9-2.7-51.6-5.6,3.6-6.6,5.6-13.3,5.6-19.5s-.3-4.7-.9-6.9c-.4-1.5-1-2.9-1.7-4.1.1-.4,0-.8-.2-1.1l-22.1-29.1c-.2-.2-.4-.4-.7-.5-9.5-2.8-18.7,4.1-21,8.6-1.4,2.7-.3,4.1.3,4.7l12.7,14.6c.2,4.4-.3,9.1-1.7,13.4-1.4,4.2-4,8.9-8.6,12.6-2.5-.3-6-.6-12.1-.8-17.5-.6-21.4,5.4-21.6,10.4v.7c-.1,2.3-.2,4.4-.3,6.3-18.8-4.2-30.2-4.3-35.8-.2-2.5,1.8-3.8,4.4-4.1,7.9-.5,6.5-.8,19.6,0,24.6.9,5.9,9.5,9.5,16.6,10.7,15.1,2.6,49.9.7,77.7-23.6,0,0,.2,0,.3,0,16,3.7,36,8.4,69.4,8.4s1.7,0,2.6,0c.9,0,1.7,0,2.6,0,33.4,0,53.3-4.6,69.4-8.4,0,0,.2,0,.3,0,27.8,24.3,62.6,26.2,77.7,23.6,7.1-1.2,15.7-4.7,16.6-10.7.8-5,.5-18.1,0-24.6ZM274.8,208.3c8.5-.3,18.6.9,19,7.9v.7c.5,9.7.6,15.4.6,18.9s0,2.2,0,3c-2.3-1.7-5.3-2.2-8.9-2.7-11.2-1.6-20.2-.9-29.4.8v-.9c.2-.7-2-11.6-1.6-12.1.8-1.2,4.6,0,4.5-2.2,0-2-3.2-1.1-4.8-1.2-.6,0-.6-.2-.6-.6-.2-.9-1-5-1.8-5.7-.6-.6-1.6,0-1.8.7-.4,1.3,1.7,6.4.9,6.4-2.1,0-4.2,1.9-4.4,1.4-.4-1-.4-2.6-1.1-3.6-1-1.4-4.5-.4-4.5-1.1,0-1.5,1-1.4,1.6-1.8.4-.2.9-.5.9-1,.1-.6.1-1.5-.2-2.1,1.2-.2,2.3-.4,3.4-.6l2.3-.4c4.5-.8,7-1.4,8.9-1.9,3.6-.9,5.6-1.5,17.2-1.8ZM293.3,244.5c-1.4,1.6-5.7,1.3-9.4,1-3.7-.3-7.2-.5-9.4.8,0-.6,0-1.2,0-1.8,0-3.4.9-5.8,1.6-6.5,2.8.1,5.8.4,8.9.8,4.5.6,7,1.1,8.8,3.2.2,1.2,0,2.1-.5,2.6ZM242.8,222.9c.6,0,1,.2,1,.8,0,.7-1,.8-1.2.9-.2,0-.9,0-1-.2-.3-.9.2-1.6,1.2-1.5ZM240.8,220.9c-.3-.4-.2-1.1,0-1.1.2,0,1-.5,1.4-.3.3.2.5.6.4.9-.2.6-1.3,1-1.8.5ZM242.7,226.1c.2-.6,2.9.3,3.1-1.7,0-.4.5.3,1.4.7.8.4,3.2-.9,4.7-.6,0,0,2.2,11.1,1.7,12.8l-4.6.8c-.2-5.6-2.7-11.2-4-11.2-1.2,0-2.6.5-2.3-.7ZM239.3,214.2s0-.2,0-.5c.6-.1,1.2-.2,1.8-.3,0,.3,0,.5-.3.7-.5.3-1.1,0-1.4,0ZM245.2,154.9c7.9-2.1,15.8,3.7,17.7,7.4.3.5.4.9.4,1.2s0,.3-.1.3c0,0-.1.1-.2.2,0,0-18.1,20.9-20,23-3.5-4.8-7.5-7.8-11.6-8.4-1.5-.2-3,0-4.4.3,4.9-6.4,17.8-23.4,18.3-24.1ZM221.2,194c0-2.2.3-4.2.8-6,.6-2,1.4-3.6,2.5-5,2.1-1.4,4.4-2,6.6-1.7,3.7.5,7.5,3.5,10.9,8.6.2.3.6.5,1,.6.4,0,.8-.1,1.1-.4l5.7-6.6c.1,3.7.7,7.6,1.9,11.2,1.4,4.1,3.7,8.6,7.8,12.4-.8.2-1.5.4-2.3.6-1.9.5-4.3,1.1-8.7,1.9l-2.3.4c-2.6.5-5.3.9-8.2,1.4-.4,0-1,0-1.7.3h0c-2.9.5-6,1-9.1,1.6-4-6.9-5.7-13.7-5.7-19.3ZM236.8,220.8l.3-.2c.4,0,.8-.6,1.2-.2.4.4.4,1.2,0,1.5-.4.5-1.5.2-1.8-.3-.2-.3.1-.7.2-.9ZM235.5,215.7c-.1,0,0-1.1-.4-1.2.6-.1,1.3-.2,1.9-.3.1.5.1,1.1-.1,1.4-.3.4-.9.4-1.3.1ZM237,224c.4-.3,1.5-.4,1.8.2.1.3.3.6.1.9-.2.3-1.1.6-1.5.5,0,0-1.5-.7-.4-1.5ZM190.4,227.7c.6.2,1.5.2,1.8-.2.6-.7-.3-2.6.7-2.7,3.1-.3,4.4,1.5,5.3,2.5.2.3-4.4,4.1-5.8,6.3-1.6-1.1-4.2-1.6-6.2-2.2,0,0-.3-1.3.6-2.4,1.2,1.2,2.7,2.7,4.8,2.7,2.2,0,5-4.2,4-4.9-1.5-1.1-2.6,4.1-5.4,2.3-1-.7-2.6-2.7-.8-3,.6-.1.3,1.3,1,1.6ZM140.4,219.9c3,.4,6,.7,8.9,1-2,2.1.6,6.7-2.5,8.4-.5-1.2-1.5-1-2.3-.7-1.2.3-1,1.8-.6,2.3,1.2,1.2,4.6.8,3.7,3.5-.6,1.9-1.9,3.7-3.7,2.3-3.5-2.7-3.4-7.3-2.1-11.7.1-.4,0-2.3-1-3.3-.4-.4-.5-1.3-.2-1.7ZM138.2,222.5c.5.6,1.2,1,1.5,1.7.8,1.6-.7,2.3-1.5,3.3-.7-1-1.7-2.1-1.4-3.3.1-.7.9-1.2,1.4-1.7ZM76.9,164.1c0,0-.1-.1-.2-.2,0,0-.1-.2-.1-.3,0-.3.1-.8.4-1.2,1.9-3.7,9.8-9.5,17.6-7.4.5.7,13.4,17.6,18.3,24.1-1.5-.4-2.9-.5-4.4-.3-4.1.6-8.1,3.6-11.6,8.4-1.9-2.2-20-23-20-23ZM88.4,194.6c1.2-3.6,1.7-7.5,1.8-11.2l5.7,6.6c.3.3.7.5,1.1.4.4,0,.8-.2,1-.6,3.4-5.1,7.1-8.1,10.9-8.6,2.2-.3,4.4.2,6.6,1.7,1.1,1.4,1.9,3.1,2.5,5,.5,1.8.8,3.8.8,6,0,5.6-1.8,12.4-5.7,19.3-6.8-1.1-13.3-2.3-19-3.3l-2.3-.4c-4.4-.8-6.8-1.4-8.7-1.9-.8-.2-1.5-.4-2.3-.6,4-3.8,6.4-8.3,7.8-12.4ZM5.9,231.1c.2-2.8,1.2-4.7,3.1-6,4.9-3.5,16.4-3.3,34.2.7-.3,7.5-.3,11.6,0,13.8.2,2.7.5,5.5,1.6,6.6,2.3,2.5,7,2.2,11.5,1.8,3.3-.2,7-.5,8.1.6s.4.5.3,1.3c0,1.3-.5,2.1-1.4,2.7-3.6,2.6-13.8-.2-22-2.4-3.7-1-7.1-1.9-10-2.4-9.3-1.6-19.6-3-24.7,1.1-.3.3-.6.6-.9.9-.2-5.9,0-14,.4-18.7ZM46,241.9c1.7-2.1,4.2-2.5,8.8-3.2,3.1-.4,6.1-.7,8.9-.8.7.7,1.5,3.1,1.6,6.5,0,.6,0,1.3,0,1.8-2.1-1.3-5.6-1.1-9.4-.8-3.7.3-8,.6-9.4-1-.5-.6-.7-1.4-.5-2.6ZM20.4,263.6c-7.8-1.3-13.7-4.8-14.4-8.4.2-1.9.8-3.2,2.1-4.3,4.1-3.2,13.3-2.2,22.7-.5,2.7.5,6.1,1.4,9.7,2.4,9.6,2.6,19.6,5.3,24.2,2.1.1,0,.2-.2.3-.3,0,0,0,0,0,0,2.3-1.6,3-6.3,2.8-10.1,0-1.5-.3-4.4-1.2-6.5,9.7,0,18.2,1.7,27.8,4-26.8,22.5-59.8,24.2-74.2,21.8ZM134.6,246.7c-15-1.7-26.3-4.3-36.1-6.6-5.3-1.2-10.2-2.4-15-3.2,0-5.9,1.4-12.3.5-18.2,0-.1-1.3,0-2.1,0,.3,5.7-1.7,11.9-1.3,17.7-8.1-1.2-16.3-1.6-26.2-.2-3.6.5-6.6,1-8.9,2.7,0-.7,0-1.6,0-3,0-3.5.1-9.3.6-18.9v-.7c.3-7.1,10.5-8.2,19-7.9,11.6.4,13.6.9,17.2,1.8,1.9.5,4.4,1.1,8.8,1.9.2.1.5.3.7.4,2.1.7,3.8,5,3.9,7.8.1,5.7-2.8,11.6-.3,17.3,0,.2.9,0,1.4,0-1.3-7.3,4.1-15.2.1-22.2-.3-.5-.2-1.9.4-2.2,11.7,2.1,26.1,4.5,39.9,6.3-.8.9-2.4,3-2.7,3.9-1.1,3.1,1.6,6.2-.7,9.4-1,1.4,1.1,3.6.8,4.7-.6,2.3-4.9,4.2-3,6.5,1.5,1.8,2.3-3.1,3.3-2.6,1.7.8.5,4.4-.3,5.2ZM137.6,231.3c.9-.3,1.7,1.8,2,3.1.2.7-.7,2.3-1.3,2.2-2.4-.7-3.3-4.2-.7-5.2ZM188.9,247.9s0,0,0,.1c-5.1.3-10.6.4-16.4.4s-1.7,0-2.6,0c-.9,0-1.7,0-2.6,0-11.2,0-20.8-.5-29.3-1.4-.3-.7-.7-3.3.2-3.4,1.3-.1,2.9,1.6,3.6.5,1.6-2.5-1.6-4.3-3.7-5.7.5-.6,1.3-1.6,1.5-1.5,3.4,2.1,9.4,2.8,10-1.9.6-4.4,3.3-9.3.9-13.8,0-.1,0-.2,0-.3,6.1.6,11.8.9,16.8.9s1.7,0,2.6,0c.9,0,1.8,0,2.6,0,5,0,10.7-.3,16.7-.9v.4c0,.6.9,2.2-1.4,2.5-5.1.5-6.7,12.7-3.9,12.8,1.9,0,.9-2,1.4-2.9.2-.4,4.2.9,5.7,2.1-1.3,2.4-1.8,5.3-2,8.1,0,1,0,3.6,0,3.9ZM191.1,247.9v-.6c.4-2.8.7-7.1,1.5-8.6,1.1-1.9,2.7,1.5,2.9,2,.6,1.6,1.9,5.7,2,6.8-2.1.2-4.2.3-6.4.4ZM241.3,240.1c-11,2.6-23.8,5.5-41.6,7.2.2-.2.2-.4.2-.7,0,0-.9-7.7-5.3-11.5,1.4-1.6,4-5,5.1-4.9.6,0,.1,3.1.7,3.5.3.3,2.1.3,2.2-.2.3-3.3-1.6-11.8-10-10.9l.2-1.5v-.4c13.2-1.4,27.7-3.7,40.4-5.8-.4.2-.6.4-.6.8,0,1.7,1.9,2.4,3.3,2.2.4,0,.3.9,0,1.3-.5.6-2.4.9-2.3,3.1.4,7.4,5.5,3.8,5.8,4.6.5,1.5-3.1.7-3.1,2,0,1.9,4.3-.1,4.5.3.6,2.1-5,.7-5,2.7,0,2.1,5.7-.1,5.8.3.5,2.1-3.2.7-3.1,2.7,0,.9,1.4.8,2.1.5,1.5-.4,3.1-.9,4.3-2,.6.5.8,1.3,1,2,.4.9.2,2,.4,3.1,0,.1,0,.2,0,.4-1.6.4-3.2.7-4.9,1.1ZM319.5,263.6c-14.4,2.5-47.3.7-74.2-21.8,9.6-2.2,18.1-4,27.8-4-1,2.2-1.2,5.1-1.2,6.5-.1,3.9.6,8.5,2.8,10.1,0,0,0,0,0,0,.1,0,.2.2.3.3,4.7,3.3,14.6.6,24.2-2.1,3.6-1,7-1.9,9.7-2.4,9.4-1.6,18.6-2.7,22.7.5,1.3,1,2,2.4,2.1,4.3-.7,3.6-6.6,7-14.4,8.4ZM334.3,249.8c-.3-.3-.6-.6-.9-.9-5.1-4-15.4-2.7-24.7-1.1-2.8.5-6.3,1.4-10,2.4-8.2,2.2-18.4,5-22,2.4-.8-.6-1.3-1.5-1.4-2.7,0-.8.2-1.1.3-1.3,1.1-1.1,4.8-.8,8.1-.6,4.5.3,9.2.6,11.5-1.8,1-1.1,1.4-4,1.6-6.6.2-2.2.2-6.3,0-13.8,17.8-4,29.3-4.3,34.2-.7,1.9,1.4,2.8,3.3,3.1,6,.4,4.7.6,12.9.4,18.7Z"/>
  </g>
</svg>