<?xml version="1.0" encoding="UTF-8"?>
<svg id="Layer_1" xmlns="http://www.w3.org/2000/svg" version="1.1" viewBox="0 0 207.39 61.3">
  <!-- Generator: Adobe Illustrator 29.1.0, SVG Export Plug-In . SVG Version: 2.1.0 Build 142)  -->
  <defs>
    <style>
      .st0, .st1 {
        fill: #231f20;
      }

      .st2 {
        fill: #8c0b42;
      }

      .st1 {
        fill-rule: evenodd;
      }
    </style>
  </defs>
  <g>
    <path class="st0" d="M179.27,51.82c0-.12.04-.15.1-.15.1,0,.1.15.14.36.24,1.25.86,2.33,2.16,2.33.85,0,1.57-.34,1.57-1.1,0-1.99-3.93-1.01-3.93-3.46,0-1.16.98-2.02,2.2-2.02.92,0,1.42.39,1.69.39.34,0,.2-.28.37-.28.07,0,.11.03.12.18l.18,1.86c.02.18.03.28.03.32,0,.06-.03.1-.08.1-.1,0-.11-.18-.27-.57-.43-1.09-1.04-1.64-2.06-1.64-.59,0-1.25.34-1.25,1,0,1.61,3.99.64,3.99,3.3,0,1.31-1.1,2.31-2.59,2.31-.97,0-1.43-.45-1.82-.45s-.32.33-.49.33c-.05,0-.08-.02-.08-.09v-2.74Z"/>
    <path class="st0" d="M165.2,48.73c0-.79-.85-.4-.85-.68,0-.08.04-.13.2-.13.5,0,.97.02,1.37.02,1.22,0,2.38,0,3.54-.02l.49,1.88c.04.15.06.23.06.26,0,.05-.03.08-.1.08-.09,0-.08-.17-.46-.81-.46-.77-1.1-1-2.28-1h-.53v2.54h.25c.69,0,1.19-.39,1.23-1.1,0-.2.04-.25.14-.25.06,0,.1.05.1.14v3.01c0,.09-.04.14-.1.14-.1,0-.13-.05-.14-.25-.04-.87-.54-1.21-1.23-1.21h-.25v2.35c0,.45.33.52.81.52,1.31,0,2.36-.92,2.67-1.9.06-.19.07-.27.16-.27.07,0,.1.05.1.11s-.02.18-.04.29l-.43,2.18c-1.3-.01-2.61-.02-3.97-.02-.39,0-.87.02-1.37.02-.16,0-.2-.05-.2-.13,0-.28.85.1.85-.68v-5.1Z"/>
    <path class="st0" d="M146.52,53.09c0,.79.32,1.11.61,1.24.28.12.53.02.53.19,0,.06-.02.11-.14.11-.33,0-1.06-.02-1.46-.02s-.79.02-1.12.02c-.12,0-.14-.05-.14-.11,0-.16.26-.07.53-.19.3-.13.61-.45.61-1.24v-4.3c-.33-.47-.6-.6-.91-.64-.16-.02-.23-.02-.23-.13,0-.08.04-.11.12-.11.33,0,.7.02,1.06.02h1.1l3.09,3.87.13.16v-2.51c0-.79-.31-1.11-.61-1.24-.28-.12-.53-.02-.53-.19,0-.06.02-.11.14-.11.33,0,1.04.02,1.44.02s.79-.02,1.12-.02c.12,0,.14.05.14.11,0,.17-.25.07-.53.19-.29.13-.61.45-.61,1.24v5.06c0,.19-.01.32-.09.32-.09,0-.16-.12-.25-.24l-3.95-5.03-.05-.07v3.59Z"/>
    <path class="st0" d="M75.33,51.82c0-.12.04-.15.1-.15.1,0,.1.15.14.36.24,1.25.86,2.33,2.16,2.33.86,0,1.58-.34,1.58-1.1,0-1.99-3.93-1.01-3.93-3.46,0-1.16.98-2.02,2.2-2.02.93,0,1.42.39,1.69.39.34,0,.2-.28.37-.28.07,0,.11.03.12.18l.18,1.86c.02.18.03.28.03.32,0,.06-.03.1-.08.1-.1,0-.11-.18-.26-.57-.43-1.09-1.04-1.64-2.06-1.64-.59,0-1.25.34-1.25,1,0,1.61,3.99.64,3.99,3.3,0,1.31-1.1,2.31-2.59,2.31-.97,0-1.43-.45-1.82-.45s-.32.33-.49.33c-.05,0-.08-.02-.08-.09v-2.74Z"/>
    <path class="st0" d="M82.35,48.73c0-.79-.85-.4-.85-.68,0-.08.04-.13.2-.13.5,0,.97.02,1.37.02s.87-.02,1.37-.02c.16,0,.2.05.2.13,0,.27-.84-.11-.84.68v2.14h2.58v-2.14c0-.79-.85-.4-.85-.68,0-.08.04-.13.2-.13.5,0,.98.02,1.37.02s.87-.02,1.37-.02c.16,0,.2.05.2.13,0,.27-.85-.11-.85.68v5.1c0,.79.85.4.85.68,0,.08-.04.13-.2.13-.5,0-.97-.02-1.37-.02s-.87.02-1.37.02c-.16,0-.2-.05-.2-.13,0-.28.85.1.85-.68v-2.47h-2.58v2.47c0,.79.84.4.84.68,0,.08-.04.13-.2.13-.5,0-.97-.02-1.37-.02s-.87.02-1.37.02c-.16,0-.2-.05-.2-.13,0-.28.85.1.85-.68v-5.1Z"/>
    <path class="st0" d="M90.59,48.73c0-.79-.85-.4-.85-.68,0-.08.04-.13.2-.13.5,0,.97.02,1.37.02,1.22,0,2.38,0,3.54-.02l.49,1.88c.04.15.06.23.06.26,0,.05-.03.08-.1.08-.09,0-.08-.17-.46-.81-.46-.77-1.1-1-2.28-1h-.53v2.54h.25c.69,0,1.19-.39,1.23-1.1,0-.2.04-.25.14-.25.06,0,.1.05.1.14v3.01c0,.09-.04.14-.1.14-.1,0-.13-.05-.14-.25-.04-.87-.54-1.21-1.23-1.21h-.25v2.35c0,.45.33.52.81.52,1.3,0,2.36-.92,2.67-1.9.06-.19.07-.27.16-.27.06,0,.1.05.1.11s-.02.18-.04.29l-.43,2.18c-1.3-.01-2.61-.02-3.97-.02-.39,0-.86.02-1.37.02-.16,0-.2-.05-.2-.13,0-.28.85.1.85-.68v-5.1Z"/>
    <path class="st0" d="M98.31,53.09c0,.79.32,1.11.61,1.24.28.12.53.02.53.19,0,.06-.02.11-.14.11-.33,0-1.06-.02-1.46-.02s-.79.02-1.12.02c-.12,0-.14-.05-.14-.11,0-.16.25-.07.53-.19.29-.13.61-.45.61-1.24v-4.3c-.32-.47-.6-.6-.91-.64-.16-.02-.23-.02-.23-.13,0-.08.04-.11.12-.11.34,0,.7.02,1.06.02h1.1l3.09,3.87.13.16v-2.51c0-.79-.31-1.11-.61-1.24-.28-.12-.53-.02-.53-.19,0-.06.02-.11.14-.11.33,0,1.04.02,1.44.02s.79-.02,1.12-.02c.12,0,.14.05.14.11,0,.17-.25.07-.53.19-.29.13-.61.45-.61,1.24v5.06c0,.19,0,.32-.09.32-.09,0-.16-.12-.25-.24l-3.95-5.03-.05-.07v3.59Z"/>
    <path class="st0" d="M107.08,54.17c1.39,0,1.68-.3,2.1-.91.43-.62.42-1.21.59-1.21.04,0,.09.03.09.11,0,.06-.03.21-.07.39l-.4,2.08c-.79-.01-1.59-.02-2.4-.02s-1.61.02-2.42.02c-.08,0-.12-.05-.12-.09,0-.05.04-.12.11-.23l3.51-5.89h-.59c-1.33,0-1.63.14-2.1.91-.42.69-.34.81-.47.81-.06,0-.08-.03-.08-.08,0-.03.02-.11.06-.26l.49-1.88c.71,0,1.43.02,2.16.02s1.45-.02,2.19-.02c.13,0,.16.03.16.08,0,.05-.07.16-.15.29l-3.46,5.88h.81Z"/>
    <path class="st0" d="M143.25,52.57c0,1.47-1,2.19-2.38,2.19-1.54,0-2.52-.71-2.52-1.73v-4.31c0-.79-.85-.4-.85-.68,0-.08.04-.13.2-.13.5,0,.98.02,1.37.02s.87-.02,1.37-.02c.16,0,.2.05.2.13,0,.27-.84-.11-.84.68v4.31c0,.81.78,1.35,1.48,1.35.83,0,1.47-.58,1.47-1.75v-2.98c0-.85-.31-1.33-.77-1.48-.15-.05-.3-.06-.3-.15,0-.06.02-.11.14-.11.26,0,.91.02,1.31.02s.79-.02,1.04-.02c.12,0,.14.05.14.11,0,.09-.15.1-.29.15-.45.15-.77.63-.77,1.48v2.92Z"/>
    <path class="st0" d="M153.64,48.73c0-.79-.85-.4-.85-.68,0-.08.04-.13.2-.13.5,0,.97.02,1.37.02s.87-.02,1.37-.02c.16,0,.2.05.2.13,0,.27-.85-.11-.85.68v5.1c0,.79.85.4.85.68,0,.08-.04.13-.2.13-.5,0-.97-.02-1.37-.02s-.87.02-1.37.02c-.16,0-.2-.05-.2-.13,0-.28.85.1.85-.68v-5.1Z"/>
    <path class="st0" d="M161.72,49.64c.08-.2.18-.49.18-.71,0-.96-.9-.66-.9-.91,0-.05.06-.11.16-.11.34,0,.66.02,1,.02s.96-.02,1.29-.02c.19,0,.31.04.31.13,0,.28-.76-.12-1.34,1.3l-2.13,5.19c-.05.12-.1.22-.16.22s-.11-.11-.16-.22l-2.37-5.75c-.35-.83-.91-.58-.91-.78,0-.05.05-.1.14-.1.5,0,.94.02,1.4.02s.89-.02,1.34-.02c.18,0,.24.04.24.11,0,.21-.69-.05-.69.47,0,.14.04.27.08.37l1.38,3.48,1.13-2.71Z"/>
    <path class="st0" d="M175.13,52.12c-.23-.49-.7-.57-1.27-.57v2.27c0,.79.85.4.85.68,0,.08-.04.13-.2.13-.5,0-.97-.02-1.37-.02s-.87.02-1.37.02c-.16,0-.2-.05-.2-.13,0-.28.85.1.85-.68v-5.1c0-.79-.85-.4-.85-.68,0-.08.04-.13.2-.13.5,0,.97.02,1.37.02.49,0,.92-.02,1.56-.02,1.68,0,2.58.75,2.58,1.75,0,.83-.51,1.51-2.54,1.73v.02c1.05,0,1.62.25,2,.99l.74,1.43c.4.78,1.05.4,1.05.68,0,.06-.01.11-.1.11-.35,0-.71-.02-1.06-.02h-1.06l-1.19-2.49ZM173.86,51.03h.38c1.11,0,1.6-.5,1.6-1.34,0-.94-.53-1.36-1.37-1.36h-.62v2.7Z"/>
    <path class="st0" d="M186.28,48.73c0-.79-.85-.4-.85-.68,0-.08.04-.13.2-.13.5,0,.97.02,1.37.02s.86-.02,1.37-.02c.16,0,.2.05.2.13,0,.27-.85-.11-.85.68v5.1c0,.79.85.4.85.68,0,.08-.04.13-.2.13-.5,0-.98-.02-1.37-.02s-.87.02-1.37.02c-.16,0-.2-.05-.2-.13,0-.28.85.1.85-.68v-5.1Z"/>
    <path class="st0" d="M191.79,48.32c-1.95.53-2.05,1.9-2.27,1.9-.05,0-.09-.03-.09-.1,0-.04.02-.2.05-.36l.32-1.8c.03-.15.06-.19.11-.19.05,0,.09.03.14.07.05.03.12.09.26.09h4.41c.14,0,.21-.06.25-.09.05-.04.09-.07.14-.07s.08.04.11.19l.32,1.8c.03.16.05.32.05.36,0,.07-.04.1-.09.1-.23,0-.33-1.37-2.27-1.9v5.3c0,.63.3.77.79.77.12,0,.17.03.17.13,0,.08-.05.11-.16.11-.56,0-1.06-.02-1.52-.02s-.97.02-1.53.02c-.11,0-.16-.03-.16-.11,0-.1.06-.13.18-.13.48,0,.79-.14.79-.77v-5.3Z"/>
    <path class="st0" d="M199.79,51.05l.74-1.14c.26-.45.35-.9.35-1.16,0-.66-.61-.56-.61-.72,0-.06.06-.11.2-.11.32,0,.69.02,1.08.02.3,0,.62-.02.91-.02.07,0,.11.04.11.1,0,.2-.46-.06-1.4,1.5l-1.16,1.94v2.37c0,.79.85.4.85.68,0,.08-.04.13-.2.13-.5,0-.98-.02-1.37-.02s-.87.02-1.37.02c-.16,0-.2-.05-.2-.13,0-.28.85.1.85-.68v-2.18l-1.58-2.88c-.42-.78-.97-.52-.97-.73,0-.07.06-.11.17-.11.48,0,.94.02,1.4.02s.91-.02,1.38-.02c.15,0,.22.03.22.1,0,.21-.62-.03-.62.52,0,.17.06.33.17.55l1.06,1.96Z"/>
    <path class="st0" d="M111.85,48.73c0-.79-.84-.4-.84-.68,0-.08.04-.13.2-.13.5,0,.97.02,1.37.02s.87-.02,1.37-.02c.16,0,.2.05.2.13,0,.27-.85-.11-.85.68v2.14h2.58v-2.14c0-.79-.85-.4-.85-.68,0-.08.04-.13.2-.13.5,0,.97.02,1.37.02s.87-.02,1.37-.02c.16,0,.2.05.2.13,0,.27-.85-.11-.85.68v5.1c0,.79.85.4.85.68,0,.08-.04.13-.2.13-.5,0-.97-.02-1.37-.02s-.86.02-1.37.02c-.16,0-.2-.05-.2-.13,0-.28.85.1.85-.68v-2.47h-2.58v2.47c0,.79.85.4.85.68,0,.08-.04.13-.2.13-.5,0-.97-.02-1.37-.02s-.87.02-1.37.02c-.16,0-.2-.05-.2-.13,0-.28.84.1.84-.68v-5.1Z"/>
    <path class="st0" d="M120.09,48.73c0-.79-.84-.4-.84-.68,0-.08.04-.13.2-.13.5,0,.97.02,1.37.02,1.22,0,2.38,0,3.54-.02l.49,1.88c.04.15.06.23.06.26,0,.05-.03.08-.1.08-.09,0-.08-.17-.46-.81-.46-.77-1.1-1-2.28-1h-.53v2.54h.25c.69,0,1.19-.39,1.23-1.1,0-.2.04-.25.14-.25.06,0,.1.05.1.14v3.01c0,.09-.04.14-.1.14-.1,0-.13-.05-.14-.25-.04-.87-.54-1.21-1.23-1.21h-.25v2.35c0,.45.33.52.81.52,1.3,0,2.36-.92,2.67-1.9.06-.19.07-.27.16-.27.07,0,.1.05.1.11s-.02.18-.04.29l-.43,2.18c-1.3-.01-2.61-.02-3.97-.02-.39,0-.87.02-1.37.02-.16,0-.2-.05-.2-.13,0-.28.84.1.84-.68v-5.1Z"/>
    <path class="st0" d="M127.81,53.09c0,.79.31,1.11.61,1.24.27.12.53.02.53.19,0,.06-.02.11-.14.11-.33,0-1.06-.02-1.46-.02s-.79.02-1.12.02c-.12,0-.14-.05-.14-.11,0-.16.25-.07.53-.19.3-.13.61-.45.61-1.24v-4.3c-.32-.47-.6-.6-.91-.64-.16-.02-.23-.02-.23-.13,0-.08.04-.11.12-.11.34,0,.7.02,1.06.02h1.1l3.09,3.87.13.16v-2.51c0-.79-.31-1.11-.61-1.24-.28-.12-.53-.02-.53-.19,0-.06.02-.11.14-.11.33,0,1.04.02,1.44.02s.79-.02,1.12-.02c.12,0,.14.05.14.11,0,.17-.26.07-.53.19-.29.13-.61.45-.61,1.24v5.06c0,.19-.01.32-.09.32-.09,0-.16-.12-.25-.24l-3.95-5.03-.05-.07v3.59Z"/>
  </g>
  <g>
    <path class="st1" d="M85.76,32.71c-1.17.53-2.34,1.83-2.54,2.84-.1,1.63,1.27,2.2,2.54,2.74.3-.07.5-.07.73-.47.4-1.47.83-2.3,1.77-3.4,0-.1,0-.2.03-.3-.33-1.74-1.43-1.9-2.54-1.4Z"/>
    <path class="st1" d="M80.29,30.5c-1.53-.83-.63-5.57-.47-6.84.47-1.23.93-3.17.87-4.37-1.03-1.87-1.53-1.7-2.97-.8-2.5,3.3-2.3,6.58-2.24,11.01.27,2.17.27,6.08,2.47,7.48,2.06-.37,3.84-4.57,3.71-6.84-.47-.87-.6.33-1.37.36Z"/>
    <path class="st1" d="M94.03,24.83c.27-.1.67-.23,1.04-.43.8-.37,1.5-.97.57-1.9-.17-.03-.37-.03-.57-.03-1.44.03-3.94,1.04-4.04-1.14.77-1.17,2.4-3.1,2.54-4.47-1.1-.37-1-.6-.97-1.64.14-.07.2-.12.29-.21.77-.47,1.48-1.32,2.18-2.26.5-.63.97-1.3,1.43-1.87.97-2.54,0-3.54-1.43-3.81-1.13-.23-2.64.03-3.64.3-.5.27-2.34,1.1-2.3,1.5-.37.27-.54.38-.63.53-.8,1.6-.07,1.94,1.54,2.04.68-.26,2.27-2.6,3.27-1.33,0,.2-.17.43-.13.63-.07,0,.03,0,0,0-.4,1.07-2.4,2.94-3,3.6-.63,1.37.33,2.54.4,4.17-.1.37-.24.73-.33,1.13-.94,1.03-1.64,2.7-2.74,3.54-.33.54-1.3,1.3-1.44,1.77-.1.1-.2.17-.3.27-.97.87-1.84,1.9-2.7,2.74,0,.1.03.2.03.27.57.43,1.67.77,2.67.87h.5c.07-.01.21,0,.21-.03.07-.03.01-.1,0-.14,0-.1,0-.2.03-.27,1.03-1.23,1.6-2.27,3.27-2.44-.07.2.03,1.74.27,9.18-.12.13-.03.13-.74.4-.04,0-.08.02-.13.04-.33.24-.67.54-.74,1.07.14.01.03,0,0,0,.17,1.87.37,3.27,2.04,4.57,1.3-.2,1.9-1.77,2.33-3.07q.03-1.7-.06-12.85c.43-.27.87-.5,1.3-.73Z"/>
    <path class="st1" d="M95.3,29.61c-.07.04-.13.07-.23.1-.73.47-1.3,1.54-.27,2.3.5,1.87-.9,2.34-1.5,3.74.03.07.03.17.1.27.2.03.43.07.63.13.3-.07.67-.13,1.04-.23,1.87-.47,4.44-1.27,4.04-3.8-.97-2.04-2.04-2.64-3.81-2.5Z"/>
    <path class="st1" d="M78.65,16.26c1.33-.13,1.63-.13,2.6-1.03.06-.1.06-.06.09-.1.03,0,.02-.05.04-.09.03-1.7-.6-2.85-.94-3.16-3.2-1.57-5.34,2.67-1.8,4.37Z"/>
    <path class="st1" d="M84.79,17.59c.16.03.36,0,.54-.07.16-.13.3-.27.43-.44.83-1.1,1.47-3.04.9-4.2-.3-.17-.63-.2-.9-.17-1.84.17-3.27,3.6-.97,4.87Z"/>
    <path class="st1" d="M118.9,27.74s0,.06-.01.13c-.83.7-1.85,2.64-2.79,2.77-.23-2.24.2-4.47.33-6.54.6-1.2.93-1.2,2.17-1.77.73-.43,1.07-.8,1.37-1.6v-.04h0v-.02h0v-.02h0v-.02h0v-.02h0v-.02h0v-.02h0v-.02h0v-.02h0v-.02h0v-.02h0v-.02h0v-.02h0v-.02h0v-.02h0v-.02h0v-.02h0v-.02h0v-.02h0v-.02h0v-.02h0v-.02h0c-.1-1.84-.67-2.17-2.14-2.41-.23-1.3-.13-2.5-.2-3.67-.87-.93-2.37.23-2.8,1.03-1.67,1.3-.53,3.04-.73,5.14-.83.6-2,1.37-2.74,2.1-.93,2.07-.53,2.37,1.4,3.17.27,1.04-.4,3.64-.54,4.47.07,1.53-.17,4.34,1.53,5.41,2.1-.54,6.24-5.51,6.11-8.15-.4-.07-.67.17-.97.34Z"/>
    <path class="st1" d="M121.13,20c.07,2.74.04,5.37-.23,8.24-.27.9-.83,2.17-.93,3.37-.04.2-.04.37,0,.57.03.3.1.6.23.87.75-.06,1.6-.47,2.34-1.47,1.44-3.3,1.9-8.28,1.6-11.88-.9-2.34-2.3-1.2-3.01.3Z"/>
    <path class="st1" d="M131.65,11.68c-1.1-.43-1.6-.03-2.4.47-.03.2-.07.43-.07.67.27,8.71.5,17.72.07,26.56-.23.83-.43,1.27.47,1.9,2.07-.2,2.44-1.07,2.8-3.27.03-1.97-.06-9.45.07-9.54-.11-.67-.05-3.34,0-3.47q.03-7.31-.03-12.22c-.33-.6-.53-.84-.9-1.1Z"/>
    <path class="st1" d="M128.14,19c-1.7-.7-1.9,2.07-2.37,3.24-.2,1.47-1.6,6.51.63,7.58.5-.03.77-.23,1.2-.54,1.07-2.97.97-6.61,1.14-9.68-.14-.2-.5-.47-.6-.6Z"/>
    <path class="st1" d="M165.72,34.19c0-.07-.16-.05-.16-.08-.16-.1-.07-.05-.1-.08-.05-.06-.21-.09-.21-.16-.35-.1-1.16-.92-1.56-1.15,0-.07-.28-.15-.28-.22-.49-.24-.66-.57-.9-.79-.24-.15-.3-.18-.52-.41-.48-.3-.69-.62-.83-.79-.12-.1-.14-.15-.18-.15-.4-.57-.83-1.07-1.27-1.54-.5-.57-1-1.1-1.4-1.77-1.07-.17-1.67.27-1.57,1.47.54,1.8,1.64,3.67,2.97,5.31,1.43,1.74,3.14,3.24,4.84,4.21,1.7-.07,3.24.1,4.54-1.34.02-.23.1-.52-.07-.73-1.13-.8-2.27-1.32-3.31-1.79Z"/>
    <path class="st1" d="M159.71,21.46c1.67-.7,3.37-1.37,2.94-3.91-.77-1.13-1.13-1.37-2.14-1.53-.3.13-.57.27-.8.4-.8.43-1.17.67-1.27.67-.04-1.43-.04-2.67-.27-3.94-.7-1.77-.8-2.07-2.27-2.04-1.27.27-2.5,1.47-.6,2.4.83.77.47,3.97-.1,4.77-1.7.87-3.47,1.74-5.11,2.67-.73.83-1.04,1.45-1.03,2.5.4,2.44,1.83.8,3.54,1.3.2.27-.13,1.8-.27,1.97-.17.67-1.32,3.18-1.6,3.47-.57,1.9-3.41,4.01-4.87,4.91-.13.2-.3.4-.4.6.1,1.14,1.04,1.64,2.17,1.83,1.17-.1,1.9-.1,2.87-.97,1.77-2.63,3.59-5.57,4.69-8.64.03-.08.03-.14.07-.18.6-1.87,1.71-4.07,2.85-5.5.47-.33,1.04-.57,1.6-.8Z"/>
    <path class="st1" d="M188.55,17.79c.37-.07.64-.17.87-.33.27-.2.5-.5.7-.9.46-2.3.8-4.47,1.1-6.74-.03-.9-.17-1.5-.5-2.27-.73-.27-1.07-.2-1.3.13-.13.2-.27.5-.43.87-.5,1.87-.94,3.97-1.27,6.01-.03,1.17-.4,2.47.83,3.24Z"/>
    <path class="st1" d="M193.15,15.12c.03.4-.06,1.28-.16,1.51,0,.26-.26.55-.44.71-.11.1-.5.7-.56.78-.7.77-.92.53-1.75,1.13-.23.2-.62.45-.85.64-.93.74-1.74,1.17-3.01,1.74h0c-.33.13-.67.47-1.04.6-.07.53.43.6,1.04.53.5-.07,1.03-.23,1.27-.3.6-.23,1.17-.47,1.77-.7,1.3-.53,2.67-1,4.04-1.27.79-.15,2.56-.58,3.75-.67.67-.05.85.15,1.31.22.63,1.17-1.1,2.27-1.77,2.6,0,.3.43.4.87.5,1.9-.13,4.72-.41,5.26-3.08,0-2.6-1.72-2.93-3.36-3.13-.36.02-1.42.07-2.81.26-.68.09-2.23.55-2.3.42.3-.47,1.17-1,1.57-1.37.17-1.07-.54-1.17-.94-1.7-.37-2,1.8-1.43,2.6-2.5-.09-.62-.64-.95-1.16-1.21-.41-.2-.78-.39-1.04-.46.17-.87.97-.97,1.74-1.17,1.1-.83.4-3.14-.1-4.07-.87-.43-2.43-.67-2.73.37.08,0,.03,0,0,0,.13.94.37,1.8.03,2.84-.3.17-.52.12-.82.25-.13.1-.38.42-.54.49-.21.97,0,1.75-.17,2.21-.1.14-.22.29-.33.45-.54.73-1.15,1.61-1.07,2.65.4.7,1.13.1,1.74.73Z"/>
    <path class="st1" d="M185.61,17.99c.23-.03.5-.03.77-.1.23-.03.47-.13.67-.33,0-.83-.43-1.27-.67-1.9l-.04-.03c-.2-1-.17-1.74.04-2.43.2-.83.57-1.6.97-2.57.07-1.07-.03-1.6-.7-1.97-.1,0-.2,0-.27.03-1.3.13-1.54.57-2.17,1.77-.2.53-.44,1.2-.6,1.9-.37,1.4-.53,2.93,0,4.07.33.73.97,1.3,2,1.57Z"/>
    <path class="st1" d="M195.76,30.51c-.97.07-1.67.1-2.3-.37-.1-.1-.23-.23-.37-.37,0-.4.17-.73.37-1.07.4-.6,1-1.13,1.3-1.67.47-2.1.03-2.4-1.3-3.4l-.16-.17c-.54-.14-1.19-.33-1.64-.22-.15.04-1.54.04-1.75.48-.08.15-.19.75-.26.88-.2.33,1.23.12,1.76.76.47.5.63.77.7,1.67-.94,1.37-1.44,1.83-.9,3.74-.37.13-1.04.3-1.77.53-1.61.54-2.04.84-2.43,1.04-.23.12-.62.19-.76.28-.28.18-.43.13-2.62.21-.17,0-.3,0-.37.1.03.3.17.63.37.97.47.83.67.85,1.64.98.13-.04,1.3-.06,1.47-.13,1.06-.12,1.93-.64,2.7-.75,1.1-.17,2.3-.13,2.87.3.2.97-.54,2.91-.97,3.84-.87.87-1.34.5-1.87-.43l-.03-.07c-.3-1.24-.47-1.44-1.37-1.2-.33.93.07,2.37.17,3.54.37,1.1.44,1.8,1.2,2.3.23.13.47.27.8.4,1.5-.2,2.23-.84,3.24-2.17l.03-.07c.14-.14.17-.12.17-.2,1.1-2.07,1.77-4.01,1.54-6.44.67-.57,3.04-.6,3.97-.43.37.23,1.09.34,1.59.74,1.57,0,2.85-2.37,1.61-4.04-2.43-.67-4.37,0-6.61.43Z"/>
    <path class="st1" d="M183.61,24.39c.27-1.54.67-3.6.07-4.71-.04,0-.04-.03-.07-.03-1.57-.37-3,2.97-3.6,4.17-.5,2.54-.87,3.6,1.9,4.54,1.17-.33,1.27-1.94,1.54-3.11.03-.27.1-.56.17-.87Z"/>
    <path class="st1" d="M85.81,18.58v.02s-.04.04-.05.06c-.07.13-.3.27-.33.37-.08.66-.05,1.09.12,1.41,0,.02.02.04.03.05,0,.01.02.02.02.03.04.06.09.12.15.18.06.06.12.11.19.16.01.01.03.02.04.03,0,0,0,0,0,0,0,0,0,0,0,0h0c.26.18.63.33,1.13.51,1.5-.47,2-2,2.2-3.63-.39-2.46-2.68-.58-3.52.82h0Z"/>
  </g>
  <g>
    <g>
      <path class="st2" d="M38.18,8.83c-.16,1.04-.96,1.45-1.93,1.29-1.09-.17-1.71-.78-1.6-1.51l.48-3.06c.09-.56-.56-.38-.53-.58,0-.06.04-.09.15-.07.36.06.69.12.97.17.28.04.62.08.97.14.11.02.13.06.12.11-.03.2-.59-.17-.68.39l-.48,3.06c-.09.57.32,1.09.9,1.19.73.12,1.31-.28,1.44-1.11l.33-2.12c.09-.6-.08-.98-.38-1.13-.1-.05-.2-.07-.19-.14,0-.04.03-.07.11-.06.18.03.45.09.74.13.29.05.56.07.74.1.08.01.09.05.09.09-.01.06-.12.05-.23.07-.34.05-.62.36-.71.96l-.33,2.07Z"/>
      <path class="st2" d="M40.29,9.86c-.23.52-.12.82.04.99.15.16.34.17.29.28-.02.04-.04.07-.12.03-.22-.1-.47-.22-.73-.34-.27-.12-.52-.22-.74-.31-.08-.03-.08-.07-.06-.11.05-.11.19.03.4.03.23,0,.53-.12.76-.64l1.25-2.83c-.08-.4-.22-.57-.42-.69-.1-.06-.14-.08-.11-.15.02-.05.06-.06.11-.04.22.1.45.22.69.32l.72.32,1.03,3.93h.01s.85-1.91.85-1.91c.23-.52.12-.82-.04-.99-.15-.16-.34-.17-.3-.28.02-.04.05-.07.12-.03.22.1.47.22.73.34.26.12.52.22.74.31.08.03.08.07.06.11-.05.11-.19-.03-.4-.03-.23,0-.53.12-.76.64l-1.47,3.33c-.05.12-.1.21-.15.19-.06-.03-.07-.12-.09-.23l-1.25-4.88h-.01s-1.16,2.62-1.16,2.62Z"/>
      <path class="st2" d="M47,9.84c.33-.46-.33-.59-.21-.75.03-.05.08-.06.17,0,.29.21.56.42.79.58.23.16.51.35.81.56.09.07.09.11.06.16-.12.16-.45-.42-.78.04l-2.13,2.98c-.33.46.33.59.21.75-.03.05-.08.06-.17,0-.29-.21-.56-.42-.79-.58-.23-.16-.51-.35-.81-.56-.09-.07-.09-.11-.06-.16.12-.16.45.42.78-.04l2.13-2.98Z"/>
      <path class="st2" d="M51.46,14.71c.14-.06.29-.15.4-.25.49-.47-.04-.8.08-.92.03-.02.09-.02.14.03.17.17.32.35.48.53.16.17.33.33.5.5.1.1.14.18.09.23-.15.14-.31-.45-1.34-.06l-3.77,1.45c-.09.03-.17.06-.2.03-.03-.03,0-.11.04-.19l1.83-4.08c.26-.59-.15-.76-.04-.86.03-.02.08-.02.12.02.25.26.46.5.68.74.22.23.45.46.67.69.09.09.1.14.06.18-.11.1-.31-.38-.59-.13-.07.07-.12.15-.15.22l-1.29,2.75,2.29-.89Z"/>
      <path class="st2" d="M53.5,16.28c.49-.29-.06-.67.11-.77.05-.03.09-.02.15.07.19.31.35.61.49.85.45.75.88,1.47,1.32,2.18l-.98,1c-.08.08-.12.12-.14.13-.03.02-.06.01-.08-.03-.03-.05.07-.11.33-.58.3-.57.32-1.11-.12-1.84l-.2-.33-1.75,1.04.09.15c.25.43.75.55,1.21.31.12-.07.17-.07.2,0,.02.04,0,.08-.05.11l-1.86,1.11c-.05.03-.1.03-.12,0-.04-.06-.02-.1.1-.18.53-.35.63-.83.37-1.25l-.09-.15-1.53.91c-.28.17-.36.36-.13.75.57.95,1.54,1.05,2.26.88.14-.03.2-.06.23,0,.03.04,0,.08-.03.1-.04.02-.12.05-.19.08l-1.51.54c-.47-.81-.95-1.62-1.45-2.46-.14-.24-.33-.53-.52-.84-.06-.1-.04-.14,0-.17.17-.1.25.56.73.27l3.15-1.88Z"/>
      <path class="st2" d="M54.53,24.27c.29-.26.31-.62.2-1.01l-1.63.48c-.54.16-.11.67-.3.72-.05.02-.1,0-.13-.11-.1-.35-.18-.68-.26-.95-.08-.27-.19-.59-.29-.94-.03-.11,0-.15.05-.16.19-.06.1.61.64.45l3.51-1.04c.54-.16.11-.66.3-.72.05-.02.1,0,.13.11.1.35.18.67.26.95.1.34.2.63.33,1.08.34,1.16,0,1.93-.68,2.13-.57.17-1.15-.04-1.71-1.4h-.01c.21.73.15,1.17-.28,1.59l-.83.8c-.45.44-.06.81-.25.86-.04.01-.08.02-.09-.04-.07-.25-.13-.49-.2-.74l-.22-.73,1.47-1.33ZM54.85,23.23l.08.26c.23.77.71.99,1.42.78.75-.22.95-.68.78-1.25l-.13-.43-2.16.64Z"/>
      <path class="st2" d="M55.46,27.48c.08,0,.11.02.11.07,0,.07-.1.08-.25.11-.89.21-1.77.61-1.72,1.64.04.72.42,1.11.97,1.09,1.43-.07.59-2.86,2.34-2.95.83-.04,1.49.64,1.53,1.51.03.66-.23,1.03-.22,1.23.01.25.21.13.21.26,0,.05-.02.08-.12.09l-1.33.19c-.13.02-.2.03-.23.03-.05,0-.07-.02-.07-.05,0-.07.14-.08.42-.21.77-.35,1.22-.75,1.18-1.54-.02-.5-.26-.89-.8-.86-1.16.06-.38,2.89-2.29,2.99-.94.05-1.7-.71-1.75-1.78-.03-.7.28-1.05.26-1.32s-.25-.22-.26-.34c0-.04.01-.06.06-.06l1.96-.09Z"/>
      <path class="st2" d="M57.64,33.12c.56.08.37-.56.57-.54.06,0,.09.04.07.15-.05.36-.11.69-.14.97-.04.28-.07.62-.12.98-.01.11-.05.14-.11.13-.2-.03.16-.59-.4-.67l-3.63-.49c-.56-.08-.37.56-.57.54-.06,0-.09-.04-.07-.15.05-.36.11-.69.15-.97.04-.28.07-.62.12-.98.01-.11.05-.14.11-.13.2.03-.16.59.4.67l3.63.49Z"/>
      <path class="st2" d="M57.05,37.85c.09-1.45-.93-1.86-.87-2.02.01-.03.04-.05.09-.04.03,0,.13.06.23.12l1.15.63c.09.05.11.08.1.12-.01.03-.04.05-.08.08-.03.03-.09.06-.12.15l-1.01,3c-.03.09,0,.16,0,.2.02.04.03.08.02.11s-.04.04-.15.03l-1.3-.19c-.11-.02-.23-.04-.25-.05-.05-.02-.06-.05-.05-.08.05-.15,1.11.13,1.92-1.08l-3.71-1.25c-.43-.14-.59.03-.7.36-.03.08-.06.11-.13.09-.05-.02-.06-.06-.04-.13.13-.38.26-.72.36-1.04.11-.32.21-.66.33-1.04.03-.07.06-.1.11-.08.07.02.07.07.05.15-.11.33-.09.57.34.71l3.71,1.25Z"/>
      <path class="st2" d="M52.28,42.8l.54.98c.18.33.41.56.57.66.4.25.57-.16.67-.1.04.02.04.08,0,.16-.12.19-.22.33-.37.57-.12.19-.22.38-.34.56-.03.04-.07.05-.1.03-.12-.08.22-.26-.38-1.42l-.74-1.45-1.45-.9c-.48-.3-.57.36-.74.26-.05-.03-.06-.07,0-.17.19-.31.38-.59.53-.83.15-.24.32-.54.51-.84.06-.1.1-.1.15-.07.17.1-.39.47.09.77l1.33.83,2.36.13c.64.04.69-.4.81-.32.04.03.04.08,0,.14-.18.29-.37.56-.54.84-.18.28-.34.57-.51.85-.06.09-.1.12-.14.09-.13-.08.25-.37-.08-.58-.1-.06-.22-.09-.4-.1l-1.77-.12Z"/>
    </g>
    <g>
      <path class="st2" d="M15.17,44.28c-.07.05-.1.04-.13,0-.04-.06.05-.12.16-.22.65-.64,1.2-1.43.63-2.29-.4-.6-.93-.74-1.39-.43-1.19.79.97,2.76-.49,3.73-.69.46-1.61.22-2.09-.51-.37-.55-.33-1-.44-1.17-.14-.21-.24,0-.31-.11-.03-.04-.03-.08.06-.14l1.04-.85c.1-.09.15-.13.18-.15.04-.03.07-.02.09,0,.04.06-.08.15-.25.4-.48.69-.66,1.27-.22,1.92.28.42.68.63,1.13.33.96-.64-1.16-2.67.43-3.74.78-.52,1.82-.26,2.42.62.39.58.3,1.04.46,1.27.15.23.33.06.4.16.02.03.02.06-.02.08l-1.63,1.09Z"/>
      <path class="st2" d="M10.12,40.1c-.54.18-.08.67-.27.73-.05.02-.1,0-.13-.11-.12-.34-.21-.67-.3-.94-.09-.27-.21-.58-.33-.93-.04-.11-.01-.15.04-.16.19-.06.12.6.66.42l1.54-.52-.59-1.76-1.54.52c-.54.18-.08.67-.27.73-.05.02-.1,0-.13-.1-.12-.34-.21-.67-.3-.94-.09-.27-.21-.58-.33-.93-.04-.11-.01-.15.04-.16.19-.06.12.6.66.42l3.47-1.17c.54-.18.08-.67.27-.73.05-.02.1,0,.13.1.12.34.21.67.3.94.09.27.21.58.33.93.04.11.01.14-.04.16-.19.06-.12-.6-.66-.42l-1.77.59.59,1.76,1.77-.59c.54-.18.08-.67.27-.73.05-.02.1,0,.13.1.12.34.21.67.3.94.09.27.21.59.33.93.04.11.01.15-.04.16-.19.06-.12-.6-.66-.42l-3.47,1.17Z"/>
      <path class="st2" d="M8.31,33.12c-.57.03-.26.62-.46.63-.06,0-.09-.02-.1-.14-.02-.36-.02-.7-.03-.98-.04-.87-.09-1.71-.14-2.54l1.33-.42c.1-.03.16-.05.18-.05.04,0,.06.02.06.07,0,.06-.12.06-.56.36-.54.36-.8.83-.76,1.68l.02.38,2.03-.1v-.18c-.03-.49-.42-.84-.93-.84-.14,0-.18-.02-.18-.09,0-.04.03-.07.1-.08l2.16-.1c.06,0,.1.02.1.07,0,.07-.03.09-.17.11-.63.06-.94.44-.92.93v.18s1.79-.09,1.79-.09c.33-.02.49-.15.47-.6-.05-1.1-.87-1.66-1.58-1.84-.14-.04-.2-.04-.2-.1,0-.05.03-.07.07-.07.04,0,.13,0,.21.02l1.58.23c.04.93.08,1.87.12,2.85.01.28.04.62.06.98,0,.11-.03.14-.08.15-.2,0,.05-.61-.52-.58l-3.66.18Z"/>
      <path class="st2" d="M11.5,27.25c.55.12.83-.05.96-.24.12-.17.1-.37.21-.34.04,0,.07.03.05.11-.05.24-.12.5-.19.78-.06.28-.11.56-.16.79-.02.08-.06.09-.1.08-.12-.03,0-.19-.05-.4-.05-.23-.22-.5-.78-.62l-3.02-.66c-.38.16-.51.33-.59.54-.04.11-.05.16-.12.14-.06-.01-.07-.04-.06-.1.05-.24.12-.49.18-.74l.17-.77,3.65-1.79h0s-2.04-.46-2.04-.46c-.55-.12-.83.05-.96.24-.12.17-.1.37-.21.34-.04,0-.07-.03-.05-.11.05-.23.12-.5.19-.78.06-.28.11-.56.16-.79.02-.08.06-.09.1-.08.12.03,0,.19.05.4.04.23.22.5.78.62l3.56.78c.13.03.23.06.21.11-.01.06-.11.09-.2.14l-4.54,2.19h0s2.8.63,2.8.63Z"/>
      <path class="st2" d="M14.13,21.75c.34-.73.21-1.34-.05-1.8-.27-.47-.66-.64-.61-.75.01-.03.05-.05.1-.02.04.02.13.08.23.17l1.23.9c-.25.51-.5,1.03-.75,1.56-.25.53-.48,1.06-.73,1.58-.02.05-.07.06-.09.05-.03-.01-.06-.06-.12-.14l-2.88-4.27-.18.38c-.33.71-.28,1.29.07,1.83.32.49.42.47.38.55-.02.04-.04.04-.08.03-.02,0-.06-.05-.15-.12l-1.07-.89c.22-.46.45-.92.67-1.4.22-.47.43-.95.66-1.43.04-.08.07-.09.1-.08.03.01.08.09.15.19l2.87,4.2.25-.52Z"/>
      <path class="st2" d="M12.41,16.37c-.44-.35-.61.29-.76.17-.04-.04-.05-.08.02-.17.23-.28.45-.54.62-.76.18-.22.38-.49.6-.78.07-.09.12-.09.16-.05.15.12-.44.43,0,.78l1.27,1.02,1.16-1.45-1.27-1.02c-.44-.35-.61.29-.76.17-.04-.04-.05-.08.02-.17.23-.28.45-.54.63-.76s.38-.49.6-.78c.07-.09.12-.09.16-.05.15.12-.44.43,0,.78l2.86,2.29c.44.35.61-.29.76-.17.04.04.05.08-.02.17-.23.28-.45.54-.63.76-.18.22-.38.49-.6.78-.07.09-.12.09-.16.05-.15-.12.44-.43,0-.78l-1.46-1.17-1.16,1.44,1.46,1.17c.44.35.61-.29.76-.17.04.04.05.08-.02.17-.23.28-.45.54-.63.76-.18.22-.38.49-.6.78-.07.09-.12.09-.16.05-.15-.12.44-.43,0-.78l-2.86-2.29Z"/>
      <path class="st2" d="M17.3,11.08c-.33-.46-.66.12-.78-.04-.03-.05-.03-.09.06-.16.29-.21.58-.4.81-.56.71-.51,1.39-1,2.06-1.49l1.07.89c.08.07.13.11.14.12.02.03.02.06-.02.09-.05.04-.12-.07-.61-.28-.59-.25-1.13-.22-1.82.27l-.31.22,1.19,1.66.14-.1c.4-.29.48-.8.21-1.23-.08-.12-.08-.16-.02-.2.03-.02.08-.01.12.04l1.26,1.76c.04.05.04.1,0,.12-.06.04-.09.02-.18-.09-.39-.5-.88-.56-1.28-.27l-.14.1,1.04,1.45c.19.26.39.33.76.06.9-.64.92-1.63.69-2.32-.04-.13-.08-.19-.02-.23.04-.03.08-.01.1.02.02.03.06.11.1.18l.66,1.46c-.76.54-1.53,1.08-2.33,1.65-.23.16-.5.37-.79.58-.09.07-.14.05-.17,0-.12-.16.54-.29.21-.75l-2.13-2.98Z"/>
      <path class="st2" d="M23.85,10.65c.2.53.49.67.72.68.22,0,.36-.12.41,0,.01.04.01.08-.07.11-.22.08-.49.17-.76.27-.27.1-.52.21-.75.3-.08.03-.1,0-.12-.04-.04-.11.15-.11.31-.26.17-.16.29-.46.1-.99l-1.09-2.89c-.34-.24-.56-.25-.78-.2-.11.03-.16.04-.18-.03-.02-.05,0-.08.05-.1.22-.08.47-.16.72-.26l.74-.28,3.49,2.08h.01s-.74-1.96-.74-1.96c-.2-.53-.49-.67-.72-.68-.21,0-.36.12-.4,0-.02-.04-.01-.08.06-.11.23-.08.49-.17.76-.27.27-.1.52-.21.75-.3.08-.03.11,0,.12.04.04.11-.15.11-.31.26-.17.16-.3.46-.1.99l1.29,3.41c.05.13.08.22.02.24-.06.02-.14-.04-.23-.1l-4.31-2.61h-.01s1.01,2.69,1.01,2.69Z"/>
    </g>
    <path class="st2" d="M21.02,49.9c0,.37-.3.66-.66.66s-.66-.3-.66-.66.3-.66.66-.66.66.3.66.66Z"/>
    <path class="st2" d="M46.22,49.9c0,.37-.3.66-.66.66s-.66-.3-.66-.66.3-.66.66-.66.66.3.66.66Z"/>
    <g>
      <path class="st2" d="M25.53,53.84c-.09.28.03.49.41.64.36.14.43.17.4.27-.01.04-.06.07-.13.04-.45-.15-.92-.31-1.35-.45-.46-.15-.92-.29-1.38-.45-.07-.02-.09-.08-.08-.12.03-.1.11-.08.48.03.39.11.61.02.71-.26l1.05-3.13c.05-.15.02-.2-.1-.24l-.91-.31c-.06-.02-.08-.06-.07-.11.03-.1.15,0,.75.11.9.18,1.34-.06,1.47-.01.06.02.08.06.04.18l-1.28,3.82Z"/>
      <path class="st2" d="M30.47,50.59c1.16.12,1.77,1.1,1.64,2.27-.22,2.03-2.87,2.53-3.18,2.5-.04,0-.04-.03-.04-.06,0-.08,1.5-.3,2.08-2-.29.15-.59.24-.97.19-1.15-.12-1.57-.91-1.49-1.61.09-.84.78-1.43,1.97-1.3ZM30.21,53.35c.34.04.73-.15.83-.29.03-.05.11-.33.14-.62.14-1.27-.23-1.67-.75-1.72-.4-.04-.83.15-.95,1.24-.1.96.28,1.35.73,1.4Z"/>
      <path class="st2" d="M34.19,53.13c-.44-.27-.64-.62-.67-.98-.07-.76.61-1.43,1.59-1.51.81-.07,1.46.37,1.51.98.04.42-.16.82-.47,1.09.55.14.91.62.96,1.22.07.81-.68,1.53-1.83,1.63-.99.09-1.7-.45-1.76-1.17-.04-.4.18-.9.68-1.24ZM35.26,55.42c.71-.06,1.03-.54.99-1.07-.03-.38-.21-.68-.99-.89-.73-.2-.8-.26-.89-.25-.13.01-.45.41-.39,1.01.07.76.53,1.26,1.29,1.19ZM35.13,50.76c-.49.04-.8.4-.76.9.06.72,1.16.88,1.66,1,.15-.2.26-.41.22-.88-.06-.73-.5-1.06-1.12-1.01Z"/>
      <path class="st2" d="M40.75,51.38c.52.17.95.44,1.12.99.29.91-.37,1.89-1.36,2.2-.96.3-1.72.05-1.87-.43-.08-.26.03-.56.31-.65.34-.11.56.05.71.5.16.47.47.56.8.46.55-.17.82-.7.6-1.4-.18-.57-.61-.87-1.07-.87-.3,0-.55.16-.58.06-.05-.15.26-.08.55-.36.19-.19.22-.54.11-.91-.16-.5-.58-.68-1.13-.51-.72.23-.63.79-.76.83-.03,0-.06-.01-.07-.04-.05-.18.16-1.11,1.09-1.4.67-.21,1.44-.03,1.67.7.1.31.03.55-.12.85Z"/>
    </g>
    <path class="st2" d="M32.98,58.69c-3.83,0-7.54-.75-11.03-2.23-3.38-1.43-6.41-3.47-9.01-6.08-2.6-2.6-4.65-5.63-6.08-9.01-1.48-3.49-2.23-7.21-2.23-11.03s.75-7.54,2.23-11.03c1.43-3.38,3.47-6.41,6.08-9.01,2.6-2.6,5.63-4.65,9.01-6.08,3.5-1.48,7.21-2.23,11.03-2.23s7.54.75,11.03,2.23c3.38,1.43,6.41,3.47,9.01,6.08,2.6,2.6,4.65,5.63,6.07,9.01,1.48,3.5,2.23,7.21,2.23,11.03s-.75,7.54-2.23,11.03c-1.43,3.38-3.47,6.41-6.07,9.01-2.6,2.6-5.63,4.65-9.01,6.08-3.5,1.48-7.21,2.23-11.03,2.23h0ZM32.98,2.99C17.9,2.99,5.63,15.26,5.63,30.34s12.27,27.35,27.35,27.35,27.35-12.27,27.35-27.35S48.07,2.99,32.98,2.99h0Z"/>
    <g>
      <path class="st2" d="M28.1,32.76c.06.04.11.05.2.05.2,0,.32-.12.37-.15.02,0,.08-.04.08-.05,0-.08-.29-.2-.44-.2-.17,0-.45.15-.45.19,0,.05.18.13.24.16Z"/>
      <path class="st2" d="M29.8,36.27c.08-.42-.06-.31-.94-.34-.4,0-1.79-.04-2.19.02-.18.02-.2.17-.2.26,0,.3-.08.27,1.42.27l.58-.04c.93-.05,1.17.06,1.33-.17Z"/>
      <path class="st2" d="M44.92,22.86c0,.38.16.72.41.96h0s4.49,4.5,4.49,4.5h0c.24.24.39.57.39.94v-5.62c0-.26-.15-.63-.34-.82l-9.42-9.42c-.19-.19-.55-.34-.82-.34h-.69c-.18,0-.33.15-.33.33v4.48c0,.27-.22.5-.5.5h-.5v-4.31c0-.55-.44-.99-.99-.99h-7.29c-.55,0-1,.45-1,.99v4.31h-.5c-.27,0-.5-.22-.5-.5v-4.48c0-.18-.15-.33-.33-.33h-.7c-.26,0-.63.15-.82.34l-9.42,9.42c-.19.19-.34.55-.34.82v5.62c0-.37.15-.7.39-.94h0s4.49-4.49,4.49-4.49h0c.25-.25.41-.59.41-.97v.94c0,.37-.15.7-.39.94h0s-4.49,4.49-4.49,4.49h0c-.25.25-.41.59-.41.97v5.08c0-.37.15-.7.39-.94h0s4.49-4.49,4.49-4.49h0c.25-.25.41-.59.41-.97v.94c0,.37-.15.7-.39.94h0s-4.49,4.49-4.49,4.49h0c-.25.25-.41.59-.41.97v.75c0,.26.15.63.34.82l1.32,1.32,3.23-3.23h0c.25-.25.41-.59.41-.97v.94c0,.37-.15.7-.39.94h0s-2.79,2.79-2.79,2.79l7.56,7.56,2.04-3.68c.17-.32.52-.54.91-.54h.79c-.4,0-.75.23-.92.56h0l-2.24,4.02c.11.03.21.05.31.05h3.88l.74-4.09c.06-.31.33-.55.66-.55h.68c-.33,0-.61.24-.66.56l-.74,4.08h4.21l-.74-4.08c-.05-.32-.33-.56-.66-.56h.68c.33,0,.6.24.66.55l.74,4.09h3.88c.09,0,.2-.02.31-.05l-2.24-4.03h0c-.17-.33-.52-.56-.92-.56h.79c.4,0,.74.22.91.54l2.04,3.68,7.56-7.56-2.79-2.79h0c-.24-.24-.39-.57-.39-.94v-.94c0,.38.16.72.41.96h0s3.23,3.24,3.23,3.24l1.32-1.32c.19-.19.34-.55.34-.82v-.75c0-.38-.16-.72-.41-.96h0s-4.49-4.5-4.49-4.5h0c-.24-.24-.39-.57-.39-.94v-.94c0,.38.16.72.41.96h0s4.49,4.5,4.49,4.5h0c.24.24.39.57.39.94v-5.08c0-.38-.16-.72-.41-.96h0s-4.49-4.5-4.49-4.5h0c-.24-.24-.39-.57-.39-.94v-.94ZM36.66,23.17c.15-1.38.18-1.24.95-1.53.92-.17,1.41-.31,1.89-.3.48.01,1.55.04,2.53.42.42.15.25.29.27,1.88-.07.6-.12.5-.73.56-.5-.02-.77.03-1.43-.15-.21-.26-.47-1.69-.96-1.51-.2.15,0,.17-.35.86-.07.11-.19.45-.32.59-.49.23-.92.16-1.48.18-.52-.02-.39-.27-.39-1ZM35.69,22c.01-.29,0-.36.24-.38.38,0,.38.13.41.32,0,.3-.01.92-.02,1.51,0,.34,0,1.07-.27,1.17-.3.04-.48.07-.46-.27-.02-.2.08-.5.13-.81.05-.31,0-1.17-.03-1.54ZM35.86,25.52c.35.14.37,1.23.37,1.23,0,.15.03,1.1.03,1.43.01.32.03.55-.03.69-.11.09-.24.11-.44.07-.16-.09-.24-.94-.24-1.22s0-.93-.09-1.57c-.08-.63-.01-.56.39-.63ZM34.54,24.94c.04-.47.17-2.07.12-2.48.01-.27-.03-.64.06-.93.04-.13.18-.15.41-.17.37-.07.29,1.23.29,1.23-.03,1.13-.34,3.35-.34,3.93-.11.95.34,3.5.09,3.73-.08.04-.4.09-.48-.07-.24-.69-.25-1.74-.3-2.64-.06-1.01.11-2.14.15-2.61ZM33.56,23.46c.11-.68.06-1.47.12-1.68.06-.07.24-.12.46-.07.25.18.33,2.39-.23,2.84-.17,0-.37.02-.43-.1-.08-.15,0-.5.09-.99ZM33.26,26.43c0-.89.09-1.04.27-1.31.19-.1.45.04.53.15.12.31-.09,1.89-.12,2.59-.05.69.18,1.4-.1,1.51-.29.1-.5.01-.52-.19-.1-.84-.07-2.75-.07-2.75ZM32.46,37.35c-.05,1.17-.07,1.06-.88,1.06-.7,0-2.46,0-2.58.01,0,.16-.04.52-.02.85.03.45.29.57-1.58.76-.44.04-3.25-.07-3.44-.4-.2-.34-.55-.89-.29-1.37.4.31.78.56,1.63.87.68.12,1.79.22,2.36.05.4-.16.39-.28.37-.72-1.31-.08-2.01-.12-2.45-.14-.72-.09-.68-.08-.69-.44.04-.29.11-.36.58-.33.26.04.81.08,1.57.08h1v-.58s-1.01.04-1.38.02c-1.19-.05-1-.22-1.06-.76.1-.97.1-.84.98-.9.75-.02,2.89-.05,3.44-.03.86.08.75.14.73.91-.09.44.07.59-.78.72-.15,0-.97.06-.97.06v.57h1.92s.68-.01.68-.58.08-1.42.08-1.42c0,0,0-.61-.6-.61s-3.8-.05-5.12-.03c-1.02,0-1.04.17-1.13.52-.1.39-.17,2.02-.47,1.95-.77-.19-.59-.27-.58-.72.03-.61.14-1.23.25-1.83.16-.42.24-.66,2.75-.64,1.16,0,4.55,0,4.55,0,.77.05,1.03.04,1.14.79.08,1.09.04,1.44,0,2.28ZM24.91,32.21c0,.18.3.15.9.13.52,0,.49-.11.51.32,0,.16.02.2-.33.21-1.2.06-1.1.03-1.09.31.01.24.21.19.93.15.47-.02.51-.09.54.23.02.2-.01.33-.01.33-.34,0-1.66.14-1.99.1-.35-.05-.35-.02-.33-.72.04-.63.07-1.23.21-1.76.15-.32.17-.26,1.51-.31.71,0,.63-.04.69.43.01.17.05.21-1.1.28-.52-.01-.44-.05-.43.31ZM26.89,31.57c-.07-.04.17-.38.3-.41.17.03.62.3.76.35.04.01.18.08.36.17.09-.04.15-.07.19-.09.15-.09.83-.47,1.02-.46.05.04.31.43.13.54-.23.15-.48.33-.65.4.2.11.36.2.4.22.29.14.34.21.31.49-.03.06-.16.16-.22.19-.15.07-.28.15-.44.22.12.06.25.12.37.18.53.3.5.23.34.5-.2.28-.49.13-.62.08-.07-.03-.48-.2-.86-.4-.23.13-.53.29-.8.41-.37.17-.43.18-.56,0-.22-.32-.09-.31.29-.53.04-.02.22-.11.36-.2-.16-.09-.35-.15-.55-.28-.05-.03-.2-.11-.22-.21,0-.14-.06-.29.36-.51.13-.07.24-.12.37-.18-.27-.14-.57-.29-.67-.46ZM32.28,33.9c-.28.06-1.88.1-1.91.09-.15-.02-.17,0-.17-.21,0-.31.02-.34.55-.33.52.01.93.05.93-.26,0-.24-.06-.29-.91-.26-.49.02-.47,0-.49-.1-.06-.3-.13-.47.29-.5.59-.05,1.09,0,1.12-.15.06-.26,0-.35-.47-.32-.99.07-1.04.14-1.05-.17,0-.31-.13-.39.66-.44.8-.02,1.45-.11,1.5.25.14.43.14.99.17,1.81.01.55-.02.54-.23.57ZM32.15,30.51c-.27.14-1.29-1.25-2.01-2.16-.25-.32-1.16-1.1-1.96-1.14-1.21-.07-2.88,2.08-3.3,2.82-.21.33-.45.65-.81.49-.33-.21-.32-.2-.13-.75.35-.81,1.85-2.46,2.49-2.92.68-.64.85-.72,1.07-1.48.11-1.39.07-1.72-.33-1.79-.4-.04-2.19-.3-2.27.81-.06.94-.06,1.36-.06,1.74,0,.56-.04.47-.6.47-.37,0-.17-1.89-.17-3.17.2-.78.67-.63,1.44-.69.4.04.92,0,1.2,0,.64,0,.79-.33.83-.84.04-.54.1-.56.55-.63.4-.06.36.25.45.65.14.63-.07.68.84.72.77,0,1.36.02,1.7.04.75.07,1.16,0,1.21,1.15.03.97.27,1.89-.02,2.25-.13.15-.47.33-.72.29-.31-.17.35-2.32-.47-2.68-.48-.22-1.83-.22-2.22-.04-.37.18-.22.94-.26,1.49,0,.43,0,.89.88,1.47.9.66,1.71,1.49,2.53,2.47.49.52.92,1.2.15,1.44ZM32.65,18.37h-3.98c0-.55.45-.99,1-.99h2.49c.27,0,.5.22.5.5v.5ZM36.45,35.58c-.16.15-.73.23-.85.41-.12.18-.08,1.49,0,1.58.1.11.37.04.78,0,.31,0,.41.95.18.98-.24.04-1.12.14-1.58.19-.5.06-.78.1-1.25.09-.44,0-.43-.24-.48-.57,0-.38-.04-.51.32-.47.36.01.6.06.91-.22.23-.19.1-.68.13-1.06-.01-.33.08-.64-.39-.52-.67.16-.7.26-.7-.87,0-.4,0-.79.02-1.06.04-.54-.08-.82.6-.96.29-.06.14.83.13,1.25,0,.4-.05.82.17.82.56.04.24-1.22.28-2.28.02-.7-.12-1.02.43-1.12.49-.07.38.11.4.69,0,.55-.02,2.46.21,2.44.47-.04.38-1.64.35-1.92-.01-.43-.09-.62.35-.66.34-.01.35-.04.41.34.06.4.07.78.07,1.09-.03.39-.05.6-.13,1.02-.06.47-.22.64-.38.79ZM38.51,39.95c-.24.06-.34.05-.66,0-.22-.04-.33-.29-.51-.87-.09-.31-.17-.62-.32-1.35-.09-.82-.19-1.48-.02-1.91.08-.31.26-.75.44-1.1.14-.35.28-.6.44-1.21.11-.59.1-.64,0-1.15-.03-.2-.17-.46-.27-.73-.16-.36-.27-.53.14-.58.59-.04.55.02.81.42.28.65.28.89.3,1.1.06.49.04,1.04-.43,2.07-.45.89-.63,1.25-.57,2.1.07.94.28,1.95.41,2.3.1.27.43.86.24.91ZM39.96,38.64c.18.63.59,1.17.32,1.24-.21.05-.58.02-.7-.11-.25-.28-.48-.78-.64-1.6-.12-.88-.2-1.43-.11-2.23.27-1.19.88-1.56.97-2.55.06-.64-.01-.83-.11-1.11-.16-.48-.72-1.21-.08-1.21.4,0,.41.05.56.17.25.19.53,1.05.57,1.54.06.73-.28,1.46-.52,2.1-.28.72-.56,1.12-.56,1.83.04.49.09,1.12.29,1.92ZM42.25,34.15c-.33,1.21-.61,1.07-.84,2.42,0,.51.27,1.64.39,2.06.08.39.46,1.17.27,1.23-.19.06-.62-.04-.76-.16-.22-.17-.4-.96-.5-1.23-.18-.77-.47-2.11.09-3.19.16-.35.42-.81.57-1.68,0-1.19-.06-1.34-.24-1.89-.13-.33-.31-.58,0-.59.88,0,.77.27,1.03.86.16.7.18.97,0,2.19ZM42.03,30.07c-.48.17-.44-.06-.46-.75-.02-.44.04-1.83-.57-2.03-.52-.25-1.01-.27-1.12-.1-.08.12-.05,2.57-.05,2.57.01.58-.25.49-.5.45-.49-.13-.44-.41-.43-.87,0-.46,0-2.1-.07-2.19-.07-.08-1.01-.13-1.17.85-.15.93-.25,1.56-.29,1.76-.02.12-.05.28-.14.31-.17.06-.52.13-.58.04-.1-.35,0-.88.05-1.47.11-.62.26-1.07.44-1.61.07-.36,1.03-.6,1.58-.83.32-.09.23-.59.13-.6-.17-.04-.81.05-1.21.09-.28,0-.53.22-.75-.27-.11-.24-.16-.45.51-.49l.86-.07s.62-.02.66-.12c0-.16.03-.46.18-.7.05-.08.3-.04.45-.03.33.09.2.11.26.52.02.19-.05.24,1.03.21.76-.02,1.32-.11,1.3.19,0,.15.01.46-.07.54-.11.11-.33.07-.68.08-.53,0-1.4.03-1.53.05-.08.04-.07.2-.03.36.05.12-.03.14.47.25,1.67.49,1.65.39,1.91,1.47.16.91.14,1.42.15,1.7-.01.31.11.53-.34.69Z"/>
      <path class="st2" d="M41.04,23.31l.4-.02c.21-.05.19-.36.07-.81-.13-.27-.51-.25-.88-.24-.15,0-.26.03-.21.26.15.9.19.76.62.82Z"/>
      <path class="st2" d="M37.53,23.37l.29-.02c.59-.04.55-.36.62-.85.03-.2-.29-.15-.62-.09-.3.06-.31.04-.37.27-.06.21-.14.63.07.7Z"/>
    </g>
  </g>
</svg>