<?xml version="1.0" encoding="utf-8"?>
<!-- Generator: Adobe Illustrator 28.0.0, SVG Export Plug-In . SVG Version: 6.00 Build 0)  -->
<svg version="1.1" id="Layer_1" xmlns="http://www.w3.org/2000/svg" xmlns:xlink="http://www.w3.org/1999/xlink" x="0px" y="0px"
	 viewBox="0 0 346.4 340.2" style="enable-background:new 0 0 346.4 340.2;" xml:space="preserve">
<style type="text/css">
	.st0{fill:url(#SVGID_1_);}
	.st1{fill:none;}
	.st2{fill:#0092C8;}
	.st3{fill:#FFFFFF;}
	.st4{fill:#E5A923;}
	.st5{fill:#006997;}
	.st6{fill:none;stroke:#008FD5;stroke-width:4;stroke-miterlimit:10;}
	.st7{fill:#6E1E6F;}
	.st8{fill:#FFFFFF;stroke:#1C3564;stroke-miterlimit:10;}
	.st9{clip-path:url(#SVGID_00000139283125295712243110000006064698170485662087_);}
</style>
<linearGradient id="SVGID_1_" gradientUnits="userSpaceOnUse" x1="173.7961" y1="320.9009" x2="173.7961" y2="20.8742">
	<stop  offset="0" style="stop-color:#FFFFFF"/>
	<stop  offset="1" style="stop-color:#88898C"/>
</linearGradient>
<circle class="st0" cx="173.8" cy="170.9" r="150"/>
<g>
	<rect x="164.7" y="156" class="st1" width="9.1" height="24.9"/>
	<path class="st2" d="M179,137.7h-18.6L145.8,151l1.2,48.9h30.6l20.5-0.2c5.9,0,11.8,0,17.7,0c0-6.2,0-12.5,0.1-18.7l-18.2-0.7
		c0.1-11.2,0.3-22.3,0.4-33.5v-9.2H179z M173.8,180.9h-9.1V156h9.1V180.9z"/>
	<path class="st3" d="M178.6,199.9c0.3,9.9,0.5,19.8,0.8,29.8l-24.1,0.6l4.1-18l-3.1-0.6l-7,19.8l-11.7-0.6l-5.9,9.4l23.1,1.2
		l-1.8,91.2h44v-91.8l26.2-1.4l-6.7-8.6h-18.4c-0.1-10.4-0.1-20.8-0.2-31.1C191.6,199.8,185.1,199.9,178.6,199.9z"/>
	<path class="st3" d="M200.5,79.8h25.2V60.4h-25.2c-0.1-16.4-0.2-32.9-0.4-49.3c-3.1-0.3-6.3-0.5-9.4-0.8c0.1,17.5,0.2,35,0.4,52.5
		c0,0-51.5,33.5-52,33.5L126.2,127l18.6-6.1l33.8-19.2l0.4,36h19v9.2c6.1,0,12.2,0,18.3,0c0-5.5,0-10.9,0-16.4
		c-6.1,0-12.1,0-18.2-0.1c-0.2-13.3-0.5-26.7-0.7-40l3.1-2.7V79.8z"/>
</g>
<g>
	<polygon class="st1" points="237.5,93.8 239.3,176 252.4,165 252.4,93.8 	"/>
	<path class="st4" d="M287.1,183l5.2-21.9h-12l-1-76.7L238,44.7l-8.3,4.7l-10.7,7v151.3l33.9-3.9L287.1,183z M239.3,176l-1.8-82.2
		h14.9V165L239.3,176z"/>
	<polygon class="st5" points="273.3,244.3 252.9,203.9 252.9,203.9 219,207.8 219,207.8 243.8,262.6 260.7,265.7 287.6,265.7 
		287.1,244.3 	"/>
</g>
<circle class="st6" cx="173.8" cy="170.9" r="163"/>
<path class="st7" d="M59.9,88.3C68.3,83,77,77.6,85.9,72.2c9.1-5.5,18.1-10.7,26.9-15.7c5.7,3,11.9,6.6,18.4,11
	c5.1,3.5,9.8,7,13.9,10.4c0.8,3.5,1.7,8.6,1.6,14.7c-0.1,4.3-0.3,10.5-3.3,17.6c-0.2,0.5-5.5,12.6-16.4,19.4
	c-2.1,1.3-6.8,3.9-8.6,4.9c-3.4,1.9-6.2,3.4-8.2,4.5c4.4,2.6,8.9,5.5,13.6,8.6c3.8,2.5,7.4,5.1,10.8,7.6c0,5.5-0.1,11.1-0.3,16.8
	c-0.2,6.9-0.5,13.7-0.9,20.2c-8.9,24-17.8,48-26.7,72l-45.9,1.6l0.1-20.6h20.5c5-10.7,12.1-26.5,19-44.1c2.1-5.2,4.7-12,6.1-21.4
	c1.1-7.6,1-14.1,0.8-18.5c-12.6,7.2-25.1,14.3-37.7,21.5c-3.7-3.8-7.5-7.7-11.2-11.5c0.1-6.6,0.2-13.3,0.2-19.9
	c10.5-5.6,19.1-10.6,25.4-14.4c12.6-7.5,16.5-10.4,19.5-12.8c7.5-6,12.8-12,16.2-16.2c1.4-1.7,3.2-4.4,4.4-8.1
	c1.9-5.8,1.3-10.8,0.8-13.3c-0.1-0.6-0.2-1.4-0.7-2.3c-0.9-1.8-2.4-2.8-3-3.1c-20.4,12.9-40.9,25.8-61.3,38.7V88.3z"/>
<g>
	<path class="st8" d="M309.8,308.6c-23.2-11.8-70.6-32.2-133.7-32.2c-63.3,0-110.8,20.4-134,32.2c0-7.1,0-14.2,0-21.3
		c25.4-11.5,72-28.8,132.7-29c61.9-0.2,109.4,17.4,134.9,29C309.8,294.4,309.8,301.5,309.8,308.6z"/>
	<path id="SVGID_x5F_00000049209040008592887170000007013547772356782761_x5F_" class="st1" d="M42.1,303.6
		c23.2-11.8,70.7-32.2,134-32.2c63.1,0,110.5,20.4,133.7,32.2"/>
	<text>	<textPath  xlink:href="#SVGID_x5F_00000049209040008592887170000007013547772356782761_x5F_" startOffset="1.956%">
<tspan  style="font-family:'ArialRoundedMTBold'; font-size:14px;">  </tspan><tspan  class="st7" style="font-family:'ArialRoundedMTBold'; font-size:14px;">M</tspan><tspan  style="font-family:'ArialRoundedMTBold'; font-size:14px;">echanical &amp; </tspan><tspan  class="st2" style="font-family:'ArialRoundedMTBold'; font-size:14px;">A</tspan><tspan  style="font-family:'ArialRoundedMTBold'; font-size:14px;">utomation </tspan>		<linearGradient id="SVGID_00000171699598035839950650000009828906116560402863_" gradientUnits="userSpaceOnUse" x1="-54" y1="329.8696" x2="-53" y2="329.8696">
			<stop  offset="0" style="stop-color:#E5A923"/>
			<stop  offset="1" style="stop-color:#006997"/>
		</linearGradient>
<tspan  style="fill:url(#SVGID_00000171699598035839950650000009828906116560402863_); font-family:'ArialRoundedMTBold'; font-size:14px;"> </tspan><tspan  class="st3" style="font-family:'ArialRoundedMTBold'; font-size:14px;">E</tspan><tspan  style="font-family:'ArialRoundedMTBold'; font-size:14px;">ngineering</tspan>	</textPath>
</text>
	<g>
		<g>
			<defs>
				<path id="SVGID_x5F_00000050644286418247062580000006449972044796424355_x5F_" d="M45.3,304.4c23.2-11.8,70.7-32.2,134-32.2
					c63.1,0,110.5,20.4,133.7,32.2"/>
				<text id="SVGID_00000135654324267868629600000012875911644559405184_">				<textPath  xlink:href="#SVGID_x5F_00000050644286418247062580000006449972044796424355_x5F_" startOffset="1.956%">
<tspan  style="font-family:'ArialRoundedMTBold'; font-size:14px;">  Mechanical &amp; Automation Engineering</tspan>				</textPath>
</text>
			</defs>
			<clipPath id="SVGID_00000008847693263377826970000012298648068010112915_">
				<use xlink:href="#SVGID_00000135654324267868629600000012875911644559405184_"  style="overflow:visible;"/>
			</clipPath>
			<g style="clip-path:url(#SVGID_00000008847693263377826970000012298648068010112915_);">
				
					<rect x="228" y="263.6" transform="matrix(0.171 -0.9853 0.9853 0.171 -71.9903 449.9592)" class="st4" width="6.9" height="8.3"/>
				
					<rect x="226.8" y="270.4" transform="matrix(0.171 -0.9853 0.9853 0.171 -79.6228 454.4052)" class="st5" width="6.8" height="8.3"/>
			</g>
		</g>
	</g>
</g>
</svg>
