<?xml version="1.0" encoding="utf-8"?>
<!-- Generator: Adobe Illustrator 28.0.0, SVG Export Plug-In . SVG Version: 6.00 Build 0)  -->
<svg version="1.1" id="图层_1" xmlns="http://www.w3.org/2000/svg" xmlns:xlink="http://www.w3.org/1999/xlink" x="0px" y="0px"
	 viewBox="0 0 565.5 105.4" style="enable-background:new 0 0 565.5 105.4;" xml:space="preserve">
<style type="text/css">
	.st0{fill:#ED6D00;}
	.st1{fill:#0A383C;}
</style>
<g>
	<path class="st0" d="M34.9,91.1V74c-0.1-1.2-1.1-2.1-2.3-2.1l0.1,0C26,71.7,20,71.1,15.1,70.1c-0.5-0.1-1.1-0.1-1.3,0.4
		c-0.3,0.5-0.2,0.8,0,1.4c0.2,0.6,0.9,3,0.9,3c0.5,2,3.2,2.5,4.9,2.9l7.7,1.7c3.7,0.8,4.7,3.7,4.7,7.5v3.4l0,0c0,3-0.5,4.9-2.5,5
		c-2.5,0.1-4.3-2.4-5.3-4.5c0,0-0.1-0.1-0.1-0.1l0-0.1c-0.1-0.2-0.2-0.4-0.2-0.6c-0.7-1.6-2.1-5.2-2.1-5.2s-0.2-0.6-0.5-0.9
		c-0.3-0.2-0.6-0.3-1-0.3h-2.6L21,95.2c0.7,2.4,1.5,5.1,3.4,6.9c2.3,2.2,6.1,3.4,11.1,3.4c5,0,8.8-1.2,11.1-3.4
		c1.9-1.8,2.7-4.5,3.4-6.9l3.4-11.6h-2.6c-0.4,0-0.7,0.1-1,0.3c-0.3,0.2-0.5,0.9-0.5,0.9s-1.5,3.6-2.1,5.2c-0.1,0.2-0.1,0.4-0.2,0.6
		l0,0.1c0,0,0,0.1-0.1,0.1c-1,2.2-2.8,4.7-5.3,4.5c-2-0.1-2.5-2-2.5-5v0v-3.4c0-3.8,1-6.7,4.7-7.5l7.7-1.7c1.7-0.4,4.4-0.9,4.9-2.9
		c0,0,0.7-2.4,0.9-3c0.2-0.6,0.3-0.9,0-1.4C57,70,56.4,70,56,70.1c-4.9,1-10.9,1.7-17.5,1.8l0.1,0c-1.2,0-2.2,0.9-2.3,2.1v17
		c0,0.4-0.3,0.7-0.7,0.7C35.2,91.7,34.9,91.4,34.9,91.1"/>
	<path class="st0" d="M35.9,3.9c0,0-5.2,2.9-7.1,6.9c-0.8,1.7-0.3,2.7,2.7,0.9C35.8,9,39.7,7,44.3,5.3c5.1-1.8,14.4-4,15.1-3.7
		c0.3,0.1,0.3,0.7-0.2,1.1C45.9,14.9,44.5,24,48.1,25.4c1.8,0.7,4.8,0.3,7.4-0.6c2.7-0.9,5.3-2,8.3-2.1c7-0.2,10,13.1,2.4,25.8
		C62,55.6,50.6,64.6,49.8,64.3c-0.4-0.1-0.5-0.5-0.3-1.2c0.1-0.4,4.2-9.4,1-10.8c-0.5-0.2-1.8,0.1-3,3c-1.5,3.7-2.7,4.4-3.4,4.2
		c-0.6-0.2-0.4-1.2-0.3-1.9c0.1-0.7,0.2-1.3-0.1-1c-0.4,0.2-4,4.3-5.1,4.2c-0.4,0-0.7-0.5-0.4-1.1c0.3-0.6,0.5-1.4,0.5-1.4
		s-6.3,6.1-13.9,7.5c-0.6,0.1-2.1,0.5-2.6,0.2c-0.3-0.1-0.4-0.8,0.1-1.1c0.5-0.3,8.6-4.5,12.1-10.4c1.1-1.8,1.1-2.7,0.8-3.2
		c-0.7-1.2-4.1,0-6.4,0.9c-2.3,1-5.7,2.9-10,3.7c-5.3,0.9-11.7-0.7-15-4.8c-3.8-4.7-4-9.4-3.5-14.1C1.9,22.3,16.1,12.9,21,9.9
		c5.9-3.6,14.7-7.4,15.4-7.2C36.7,2.8,36.9,3.3,35.9,3.9"/>
	<path class="st1" d="M144.5,36.8v34.9c0,8.3,0.2,12,2.7,15.3c2.5,3.4,6.7,5,10.9,5c4,0,9.3-1.6,11.6-6.1c1.6-2.7,2.4-5.6,2.4-14.3
		V36.8h9.3v35.1c0,4.4,1.9,27.4-25.9,27.4c-4,0-16.1-0.5-22.1-11c-2.1-3.7-2.6-8-2.6-15V36.8H144.5z"/>
	<path class="st1" d="M221.7,45.1c-3.5-1.2-6.7-2.1-10.9-2.1c-6.7,0-10.5,3.1-10.5,7.3c0,3,1.9,5.8,8.4,10.1l4.3,2.9
		c9,6,15.1,10.4,15.1,18.9c0,9.6-8.5,17.2-22.1,17.2c-7.9,0-14.3-2.8-17.8-4.4l0-8.1l4.2,2.1c4,1.8,8.1,3.5,13.4,3.5
		c7.1,0,10.3-3.9,10.3-7.6c0-4-3.2-6.6-9.4-10.8l-4.3-3c-7.6-5-14.1-10.3-14.1-18.6c0-9.2,9.2-16.3,22-16.3c5.4,0,9.8,1,13.2,2.2
		l0,7.7L221.7,45.1z"/>
	<path class="st1" d="M119,45.1c-3.5-1.2-6.7-2.1-10.9-2.1c-6.7,0-10.5,3.1-10.5,7.3c0,3,1.9,5.8,8.4,10.1l4.3,2.9
		c9,6,15.1,10.4,15.1,18.9c0,9.6-8.6,17.2-22.1,17.2c-7.9,0-14.3-2.8-17.8-4.4l0-8.1l4.2,2.1c4,1.8,8.1,3.5,13.4,3.5
		c7.1,0,10.3-3.9,10.3-7.6c0-4-3.2-6.6-9.4-10.8l-4.3-3c-7.6-5-14.1-10.3-14.1-18.6c0-9.2,9.2-16.3,22-16.3c5.4,0,9.8,1,13.2,2.2
		l0,7.7L119,45.1z"/>
	<polygon class="st1" points="279.7,36.8 279.7,43.8 261.3,43.8 261.3,98.4 247.8,98.4 247.8,43.8 229.3,43.8 229.3,36.8 	"/>
	<path class="st1" d="M304.2,75.1c-0.1-2.2-0.6-4.5-2.1-6.2c-1.5-1.7-3.5-2.4-5.8-2.4c-2.4,0-4.3,0.9-6,2.6c-1.6,1.7-2.6,3.7-3.1,6
		H304.2z M363.1,64.9c2.8-3.4,6.4-5.1,11-5.1c9.7,0,13,6.7,13,15.6v23.1h-8.1V76.8c0-5.1-1.3-10-7.2-10c-2.5,0-4.6,1-6.2,2.9
		c-1.8,2.1-2.5,4.7-2.5,7.4v21.3H355V43.2h8.1V64.9z M347.4,96.6c-3.2,1.9-6.8,2.6-10.4,2.6c-5.1,0-9.7-1.6-13.2-5.3
		c-3.6-3.8-5-8.5-5-13.6c0-5.6,1.5-10.8,5.4-14.9c3.8-4.1,8.9-5.7,14.4-5.7c3,0,6.1,0.5,8.9,1.9l0.5,0.2v8.5l-1.4-1
		c-2.4-1.7-5-2.6-8-2.6c-3.3,0-6.1,1.1-8.3,3.5c-2.4,2.7-3.2,6.1-3.2,9.6c0,3.3,0.7,6.7,3,9.2c2.2,2.3,5,3.3,8.1,3.3
		c3.1,0,5.8-1.1,8.3-2.9l1.4-1v8.1L347.4,96.6z M287.2,82c0.2,2.7,0.9,5.5,2.9,7.5c2.1,2.2,4.9,2.9,7.8,2.9c4,0,7.5-1.3,10.6-3.7
		l1.4-1.1v7.9l-0.4,0.3c-3.8,2.7-8.6,3.5-13.1,3.5c-5,0-9.5-1.5-12.9-5.2c-3.5-4-4.6-9.2-4.6-14.3c0-5.3,1.4-10.2,5-14.2
		c3.4-3.8,7.6-5.7,12.6-5.7c4.6,0,8.7,1.4,11.7,4.8c3.2,3.7,4.2,8.6,4.2,13.3V82H287.2z"/>
	<path class="st1" d="M498.8,85.9l-3.6,9.7c-0.6,1.4-1,2.4-1.5,2.8c-0.4,0.4-1.1,0.7-1.9,0.7c-0.3,0-0.5,0-0.8-0.1v-1.5
		c0.2,0.1,0.5,0.1,0.9,0.1c0.4,0,0.7-0.2,0.9-0.4c0.2-0.3,0.5-0.8,0.8-1.6l0-0.2v0l-3.5-9.6h0.9h0.9l2.5,7.8l2.5-7.8h0.9H498.8z
		 M484.4,87.1c-0.9,0-1.5,0.3-1.9,0.8c-0.4,0.6-0.6,1.5-0.6,2.7c0,1.2,0.2,2,0.7,2.7c0.4,0.6,1.1,0.9,1.9,0.9c0.8,0,1.4-0.3,1.8-0.9
		c0.5-0.6,0.7-1.3,0.7-2.3c0-1.3-0.2-2.3-0.6-3C485.9,87.4,485.3,87.1,484.4,87.1 M484.1,98c0.9,0,1.6-0.3,2.1-0.9
		c0.5-0.6,0.7-1.4,0.7-2.5v-0.3l0,0c-0.7,0.8-1.5,1.2-2.5,1.2c-1.3,0-2.3-0.5-3-1.4c-0.7-0.9-1.1-2.2-1.1-3.8c0-1.4,0.4-2.6,1.1-3.4
		c0.7-0.9,1.7-1.3,2.9-1.3c1.1,0,2,0.5,2.7,1.5l0.1,0.2v-1.3h1.5v8.7c0,1.6-0.4,2.8-1.1,3.5c-0.7,0.8-1.8,1.1-3.3,1.1
		c-1.1,0-1.9-0.2-2.5-0.7c-0.6-0.5-1-1.2-1.1-2.1h1.6c0.1,0.5,0.3,0.9,0.7,1.2C483.1,97.9,483.6,98,484.1,98 M474,94.2
		c0.8,0,1.5-0.3,2-1c0.5-0.6,0.7-1.5,0.7-2.6c0-1.1-0.2-2-0.7-2.6c-0.5-0.6-1.2-1-2-1c-0.8,0-1.5,0.3-2,1c-0.5,0.7-0.7,1.5-0.7,2.6
		c0,1.1,0.2,2,0.7,2.6C472.5,93.9,473.2,94.2,474,94.2 M474,95.6c-1.3,0-2.4-0.5-3.2-1.4c-0.8-0.9-1.2-2.1-1.2-3.6
		c0-1.5,0.4-2.7,1.2-3.6c0.8-0.9,1.9-1.4,3.2-1.4c1.3,0,2.4,0.5,3.2,1.4c0.8,0.9,1.2,2.1,1.2,3.6c0,1.5-0.4,2.7-1.2,3.6
		C476.4,95.1,475.3,95.6,474,95.6 M465.7,95.4V82.4h0.8h0.8v12.9h-0.8H465.7z M459.1,94.2c0.8,0,1.5-0.3,2-1
		c0.5-0.6,0.7-1.5,0.7-2.6c0-1.1-0.2-2-0.7-2.6c-0.5-0.6-1.2-1-2-1c-0.8,0-1.5,0.3-2,1c-0.5,0.7-0.7,1.5-0.7,2.6
		c0,1.1,0.2,2,0.7,2.6C457.6,93.9,458.2,94.2,459.1,94.2 M459.1,95.6c-1.3,0-2.3-0.5-3.2-1.4c-0.8-0.9-1.2-2.1-1.2-3.6
		c0-1.5,0.4-2.7,1.2-3.6c0.8-0.9,1.9-1.4,3.2-1.4c1.3,0,2.4,0.5,3.2,1.4c0.8,0.9,1.2,2.1,1.2,3.6c0,1.5-0.4,2.7-1.2,3.6
		C461.4,95.1,460.4,95.6,459.1,95.6 M444.8,95.4v-9.4h0.7h0.8v1.4l0.3-0.5c0.7-0.8,1.5-1.2,2.6-1.2c1,0,1.8,0.3,2.4,0.8
		c0.6,0.6,0.8,1.4,0.8,2.4v6.5h-0.8h-0.8v-5.9c0-0.8-0.2-1.4-0.5-1.8c-0.3-0.4-0.8-0.6-1.5-0.6c-0.8,0-1.4,0.3-1.8,0.9
		c-0.4,0.6-0.7,1.4-0.7,2.4v5h-0.8H444.8z M434.3,95.4V82.4h0.8h0.8v4.8l0.3-0.4c0.7-0.8,1.5-1.2,2.6-1.2c1,0,1.8,0.3,2.4,0.8
		c0.6,0.6,0.8,1.4,0.8,2.4v6.5h-0.8h-0.8v-6.1c0-0.8-0.2-1.3-0.4-1.7c-0.3-0.3-0.8-0.5-1.5-0.5c-0.8,0-1.4,0.3-1.9,0.9
		c-0.5,0.6-0.7,1.4-0.7,2.4v5h-0.8H434.3z M432.2,92L432.2,92c-0.2,1.2-0.6,2.1-1.3,2.7c-0.7,0.6-1.6,0.9-2.7,0.9
		c-1.2,0-2.2-0.5-3-1.3c-0.8-0.9-1.1-2.1-1.1-3.6c0-1.5,0.4-2.7,1.2-3.6c0.8-0.9,1.8-1.4,3.1-1.4c1.1,0,2,0.3,2.7,0.9
		c0.7,0.6,1,1.5,1.1,2.5h-1.5c-0.1-0.7-0.3-1.2-0.7-1.6c-0.4-0.4-0.9-0.6-1.6-0.6c-0.8,0-1.4,0.3-1.9,1c-0.5,0.6-0.7,1.5-0.7,2.6
		c0,1.2,0.2,2.1,0.6,2.7c0.4,0.6,1,0.9,1.9,0.9c0.6,0,1.1-0.2,1.5-0.6c0.4-0.4,0.7-1,0.8-1.7H432.2z M420.8,89.9L420.8,89.9
		c0-0.9-0.3-1.5-0.7-2c-0.4-0.5-1.1-0.8-1.9-0.8c-0.8,0-1.5,0.3-2,0.9c-0.4,0.5-0.6,1.1-0.7,1.9H420.8z M418.2,95.6
		c-1.3,0-2.4-0.4-3.1-1.3c-0.8-0.8-1.1-2-1.1-3.5c0-1.6,0.4-2.8,1.2-3.8c0.8-0.9,1.9-1.4,3.2-1.4c1.2,0,2.2,0.5,3,1.4
		c0.8,0.9,1.1,2.1,1.1,3.6l0,0.6h-6.9c0.1,0.9,0.3,1.6,0.6,2.1c0.4,0.6,1.1,0.9,2.1,0.9c0.6,0,1.1-0.2,1.6-0.5
		c0.5-0.3,0.7-0.8,0.8-1.3h1.6c-0.2,1-0.7,1.8-1.4,2.4C420.2,95.3,419.3,95.6,418.2,95.6 M406.3,95.4V84H402v-0.8v-0.8h10.5v0.8V84
		h-4.4v11.4h-0.9H406.3z M518.8,63.9c-0.9,0-1.5,0.3-1.9,0.8c-0.4,0.6-0.6,1.5-0.6,2.7c0,1.2,0.2,2.1,0.7,2.7
		c0.4,0.6,1.1,0.9,1.9,0.9c0.8,0,1.4-0.3,1.9-0.9c0.5-0.6,0.7-1.3,0.7-2.3c0-1.3-0.2-2.3-0.7-3C520.2,64.3,519.6,63.9,518.8,63.9
		 M518.7,72.5c-1.3,0-2.3-0.5-3-1.4c-0.7-0.9-1.1-2.2-1.1-3.8c0-1.4,0.4-2.6,1.1-3.4c0.7-0.9,1.7-1.3,2.8-1.3s2.1,0.5,2.7,1.5
		l0.1,0.2v-4.9h0.8h0.8v12.9h-0.7h-0.7v-1.3l-0.2,0.3C520.6,72.1,519.7,72.5,518.7,72.5 M504.6,72.2v-9.4h0.7h0.8v1.4l0.4-0.5
		c0.7-0.8,1.5-1.2,2.6-1.2c1,0,1.8,0.3,2.4,0.8c0.6,0.6,0.8,1.4,0.8,2.4v6.4h-0.8h-0.8v-5.9c0-0.8-0.2-1.4-0.5-1.8
		c-0.3-0.4-0.8-0.6-1.5-0.6c-0.8,0-1.4,0.3-1.8,0.9c-0.4,0.6-0.7,1.4-0.7,2.3v5h-0.8H504.6z M499.9,68.5v-1c-0.3,0.1-0.6,0.2-1,0.3
		l-1.5,0.2c-0.8,0.1-1.3,0.3-1.7,0.5c-0.4,0.3-0.5,0.6-0.5,1c0,0.5,0.1,0.9,0.4,1.2c0.3,0.3,0.7,0.4,1.2,0.4c0.8,0,1.5-0.2,2.1-0.7
		c0.4-0.3,0.7-0.7,0.8-1.1c0-0.1,0-0.2,0.1-0.4C499.9,68.9,499.9,68.7,499.9,68.5 M496.6,72.5c-0.9,0-1.7-0.2-2.2-0.7
		c-0.5-0.5-0.8-1.2-0.8-2c0-0.8,0.3-1.5,0.8-2c0.5-0.5,1.2-0.8,2.2-0.9l2.2-0.3c0.2,0,0.3,0,0.5-0.1c0.2,0,0.4-0.2,0.5-0.3
		c0.1-0.2,0.2-0.4,0.2-0.6v-0.1c0-0.5-0.2-0.9-0.6-1.2c-0.4-0.3-0.9-0.4-1.6-0.4c-0.7,0-1.2,0.1-1.5,0.5c-0.4,0.3-0.6,0.7-0.7,1.3
		h-1.5c0.1-1,0.4-1.8,1.1-2.3c0.6-0.5,1.6-0.8,2.8-0.8c1.1,0,2,0.3,2.6,0.7c0.6,0.5,0.9,1.2,0.9,2.2v5.2c0,0.2,0,0.3,0.1,0.4
		c0.1,0.1,0.2,0.1,0.4,0.1c0.1,0,0.1,0,0.2,0c0.1,0,0.2,0,0.3-0.1v1.1c-0.2,0.1-0.3,0.1-0.5,0.1c-0.2,0-0.3,0.1-0.4,0.1
		c-0.6,0-1-0.2-1.3-0.5c-0.2-0.2-0.3-0.5-0.4-0.9c-0.1,0.1-0.3,0.3-0.4,0.4C498.7,72.1,497.7,72.5,496.6,72.5 M486.1,66.8
		L486.1,66.8c0-0.9-0.3-1.5-0.6-2c-0.4-0.5-1.1-0.8-1.9-0.8c-0.8,0-1.5,0.3-2,0.9c-0.4,0.5-0.6,1.1-0.7,1.9H486.1z M483.5,72.5
		c-1.3,0-2.4-0.4-3.1-1.3c-0.8-0.8-1.1-2-1.1-3.5c0-1.6,0.4-2.8,1.2-3.8c0.8-0.9,1.9-1.4,3.2-1.4c1.2,0,2.2,0.5,3,1.4
		c0.8,0.9,1.1,2.1,1.1,3.6l0,0.6h-6.9c0.1,0.9,0.3,1.7,0.6,2.1c0.4,0.6,1.1,0.9,2.1,0.9c0.6,0,1.1-0.2,1.6-0.5
		c0.5-0.3,0.7-0.8,0.8-1.3h1.6c-0.2,1-0.7,1.8-1.4,2.4C485.5,72.2,484.6,72.5,483.5,72.5 M477.6,68.8L477.6,68.8
		c-0.2,1.2-0.6,2.1-1.2,2.7c-0.7,0.6-1.6,0.9-2.7,0.9c-1.2,0-2.2-0.4-3-1.3c-0.7-0.9-1.1-2.1-1.1-3.6c0-1.5,0.4-2.7,1.2-3.6
		c0.8-0.9,1.8-1.3,3.1-1.3c1.1,0,2,0.3,2.7,0.9c0.7,0.6,1,1.5,1.1,2.5h-1.5c-0.1-0.7-0.3-1.2-0.7-1.6c-0.4-0.4-0.9-0.6-1.6-0.6
		c-0.8,0-1.4,0.3-1.9,1c-0.5,0.6-0.7,1.5-0.7,2.6c0,1.2,0.2,2.1,0.6,2.7c0.4,0.6,1.1,0.9,1.9,0.9c0.6,0,1.1-0.2,1.5-0.6
		c0.4-0.4,0.7-1,0.8-1.7H477.6z M459.7,72.2v-9.4h0.7h0.8v1.4l0.3-0.5c0.7-0.8,1.5-1.2,2.6-1.2c1,0,1.8,0.3,2.4,0.8
		c0.6,0.6,0.8,1.4,0.8,2.4v6.4h-0.8h-0.8v-5.9c0-0.8-0.2-1.4-0.5-1.8c-0.3-0.4-0.8-0.6-1.5-0.6c-0.8,0-1.4,0.3-1.8,0.9
		c-0.4,0.6-0.7,1.4-0.7,2.3v5h-0.8H459.7z M455.7,66.8L455.7,66.8c0-0.9-0.3-1.5-0.6-2c-0.4-0.5-1.1-0.8-1.9-0.8
		c-0.8,0-1.5,0.3-2,0.9c-0.4,0.5-0.6,1.1-0.7,1.9H455.7z M453.1,72.5c-1.3,0-2.4-0.4-3.1-1.3c-0.8-0.8-1.1-2-1.1-3.5
		c0-1.6,0.4-2.8,1.2-3.8c0.8-0.9,1.9-1.4,3.2-1.4c1.2,0,2.2,0.5,3,1.4c0.8,0.9,1.1,2.1,1.1,3.6l0,0.6h-6.9c0.1,0.9,0.3,1.7,0.6,2.1
		c0.4,0.6,1.1,0.9,2.1,0.9c0.6,0,1.1-0.2,1.6-0.5c0.4-0.3,0.7-0.8,0.8-1.3h1.6c-0.2,1-0.7,1.8-1.4,2.4
		C455.1,72.2,454.2,72.5,453.1,72.5 M444.8,59.3h1.6v1.8h-1.6V59.3z M444.8,72.2v-9.4h0.8h0.8v9.4h-0.8H444.8z M442.7,68.8
		L442.7,68.8c-0.2,1.2-0.6,2.1-1.3,2.7c-0.7,0.6-1.6,0.9-2.7,0.9c-1.2,0-2.2-0.4-3-1.3c-0.7-0.9-1.1-2.1-1.1-3.6
		c0-1.5,0.4-2.7,1.2-3.6c0.8-0.9,1.8-1.3,3.1-1.3c1.1,0,2,0.3,2.7,0.9c0.7,0.6,1,1.5,1.1,2.5h-1.5c-0.1-0.7-0.3-1.2-0.7-1.6
		c-0.4-0.4-0.9-0.6-1.6-0.6c-0.8,0-1.4,0.3-1.9,1c-0.4,0.6-0.7,1.5-0.7,2.6c0,1.2,0.2,2.1,0.6,2.7c0.4,0.6,1,0.9,1.9,0.9
		c0.6,0,1.1-0.2,1.5-0.6c0.4-0.4,0.7-1,0.8-1.7H442.7z M430.9,63L430.9,63c-0.1-0.8-0.4-1.4-1-1.9c-0.6-0.4-1.3-0.7-2.3-0.7
		c-1,0-1.7,0.2-2.2,0.6c-0.5,0.4-0.8,0.9-0.8,1.7c0,0.5,0.2,0.9,0.5,1.1c0.3,0.2,1,0.5,2,0.7l2.3,0.5c1.2,0.3,2.1,0.7,2.6,1.3
		c0.5,0.6,0.8,1.3,0.8,2.4c0,1.2-0.4,2.1-1.3,2.8c-0.9,0.7-2.1,1-3.6,1c-1.7,0-3-0.4-4-1.2c-0.9-0.8-1.4-1.8-1.4-3.2v-0.1h1.6
		c0,0.9,0.4,1.7,1,2.2c0.7,0.5,1.6,0.8,2.7,0.8c1.1,0,1.9-0.2,2.4-0.6c0.5-0.4,0.8-0.9,0.8-1.6c0-0.6-0.2-1.1-0.5-1.4
		c-0.4-0.3-1.1-0.6-2.2-0.8l-2.3-0.5c-1.1-0.3-2-0.6-2.4-1.1c-0.5-0.5-0.7-1.2-0.7-2c0-1.2,0.4-2.2,1.3-2.9c0.8-0.7,2-1.1,3.4-1.1
		c1.5,0,2.6,0.4,3.5,1.1c0.9,0.7,1.3,1.7,1.4,3H430.9z M415.3,64.1L415.3,64.1v8.1h-0.8h-0.8v-8.1h-1.3v-1.3h1.3v-1.6
		c0-0.7,0.2-1.2,0.6-1.6c0.4-0.4,1-0.5,1.8-0.5l0.7,0v1.4l-0.6,0c-0.3,0-0.5,0.1-0.7,0.3c-0.2,0.2-0.2,0.5-0.2,0.8v1.1h1.6v1.3
		H415.3z M406.7,71.1c0.8,0,1.5-0.3,2-1c0.5-0.7,0.7-1.5,0.7-2.6c0-1.1-0.2-2-0.7-2.6c-0.5-0.7-1.1-1-2-1c-0.8,0-1.5,0.3-2,1
		c-0.5,0.6-0.7,1.5-0.7,2.6c0,1.1,0.2,2,0.7,2.6C405.2,70.8,405.9,71.1,406.7,71.1 M406.7,72.5c-1.3,0-2.4-0.5-3.2-1.4
		c-0.8-0.9-1.2-2.1-1.2-3.6c0-1.5,0.4-2.7,1.2-3.6c0.8-0.9,1.9-1.4,3.2-1.4c1.3,0,2.4,0.5,3.2,1.4c0.8,0.9,1.2,2.1,1.2,3.6
		c0,1.5-0.4,2.7-1.2,3.6C409.1,72,408,72.5,406.7,72.5 M565.5,39.7l-3.6,9.7c-0.6,1.5-1,2.4-1.5,2.8c-0.4,0.4-1.1,0.7-1.9,0.7
		c-0.3,0-0.5,0-0.8-0.1v-1.5c0.2,0.1,0.5,0.1,0.9,0.1c0.4,0,0.6-0.1,0.9-0.4c0.2-0.3,0.5-0.8,0.8-1.6l0-0.1v0l-3.5-9.6h0.9h0.9
		l2.5,7.8l2.5-7.8h0.9H565.5z M555.9,49.1c-0.5,0.1-0.9,0.1-1.2,0.1c-0.7,0-1.2-0.1-1.5-0.5c-0.3-0.3-0.4-0.8-0.4-1.6V41h-1.3v-1.3
		h1.3v-2.6h1.6v2.6h1.5V41h-1.5v6.2c0,0.2,0.1,0.4,0.3,0.5c0.2,0.1,0.4,0.2,0.7,0.2h0.6V49.1z M548,36.2h1.6V38H548V36.2z M548,49.1
		v-9.4h0.8h0.8v9.4h-0.8H548z M543.9,42.4L543.9,42.4c-0.1-0.5-0.3-0.9-0.6-1.2c-0.4-0.3-0.9-0.4-1.5-0.4c-0.7,0-1.2,0.1-1.5,0.3
		c-0.3,0.2-0.5,0.6-0.5,1c0,0.3,0.1,0.6,0.4,0.8c0.2,0.2,0.7,0.3,1.4,0.5l1.6,0.4c0.9,0.2,1.6,0.5,2,0.9c0.4,0.4,0.6,0.9,0.6,1.6
		c0,0.9-0.3,1.7-1,2.2c-0.7,0.5-1.6,0.8-2.7,0.8c-1.3,0-2.3-0.3-3-0.8c-0.7-0.5-1-1.3-1.1-2.5h1.5c0.1,0.7,0.3,1.1,0.7,1.4
		c0.4,0.3,1,0.5,1.8,0.5c0.7,0,1.3-0.1,1.6-0.4c0.4-0.3,0.6-0.7,0.6-1.2c0-0.3-0.1-0.6-0.4-0.7c-0.2-0.2-0.7-0.3-1.5-0.5l-1.6-0.4
		c-0.9-0.2-1.5-0.5-1.9-0.9c-0.4-0.4-0.6-0.9-0.6-1.6c0-0.9,0.3-1.6,0.9-2.1c0.6-0.5,1.5-0.8,2.6-0.8c1.1,0,2,0.3,2.6,0.8
		c0.6,0.5,1,1.3,1,2.2H543.9z M532.2,49.1v-9.4h0.8h0.8v1.6c0.1-0.2,0.3-0.5,0.4-0.7c0.6-0.8,1.3-1.2,2.2-1.2c0.1,0,0.3,0,0.4,0.1
		v1.6l-0.3,0c-0.9,0-1.5,0.3-2,0.8c-0.5,0.5-0.7,1.2-0.7,2.2v5H533H532.2z M528,43.7L528,43.7c0-0.9-0.3-1.5-0.6-2
		c-0.4-0.5-1.1-0.8-1.9-0.8c-0.8,0-1.5,0.3-2,0.9c-0.4,0.5-0.6,1.1-0.7,1.9H528z M525.4,49.3c-1.3,0-2.4-0.4-3.1-1.3
		c-0.8-0.9-1.1-2-1.1-3.5c0-1.6,0.4-2.8,1.2-3.8c0.8-0.9,1.9-1.4,3.2-1.4c1.2,0,2.2,0.5,3,1.4c0.8,0.9,1.1,2.1,1.1,3.6l0,0.6h-6.9
		c0.1,0.9,0.3,1.6,0.6,2.1c0.4,0.6,1.1,0.9,2.1,0.9c0.6,0,1.1-0.2,1.6-0.5c0.5-0.3,0.7-0.8,0.8-1.3h1.6c-0.2,1-0.7,1.8-1.4,2.4
		C527.4,49.1,526.5,49.3,525.4,49.3 M511.1,39.7L511.1,39.7h0.9h0.9l2.5,7.7l2.6-7.7h0.9h0.9l-3.5,9.4h-0.8h-0.9L511.1,39.7z
		 M507.6,36.2h1.6V38h-1.6V36.2z M507.7,49.1v-9.4h0.8h0.8v9.4h-0.8H507.7z M497.1,49.1v-9.4h0.7h0.8v1.4l0.4-0.5
		c0.7-0.8,1.5-1.2,2.6-1.2c1,0,1.8,0.3,2.4,0.8c0.6,0.6,0.8,1.4,0.8,2.4v6.5H504h-0.8v-5.9c0-0.8-0.2-1.4-0.5-1.8
		c-0.3-0.4-0.8-0.5-1.5-0.5c-0.8,0-1.4,0.3-1.8,0.9c-0.4,0.6-0.7,1.4-0.7,2.3v5h-0.8H497.1z M494.1,44.4c0,1.6-0.5,2.8-1.3,3.7
		c-0.9,0.9-2.1,1.4-3.7,1.4c-1.7,0-2.9-0.4-3.8-1.3c-0.9-0.9-1.3-2.1-1.3-3.8v-8.2h0.9h0.9v8.1c0,1.2,0.3,2.1,0.8,2.7
		c0.6,0.6,1.4,0.9,2.5,0.9c1.1,0,1.9-0.3,2.5-0.9c0.6-0.6,0.8-1.5,0.8-2.7v-8.1h0.9h0.9V44.4z M469.2,49.1v-9.4h0.7h0.8v1.4l0.3-0.5
		c0.7-0.8,1.5-1.2,2.6-1.2c1,0,1.8,0.3,2.4,0.8c0.6,0.6,0.8,1.4,0.8,2.4v6.5h-0.8h-0.8v-5.9c0-0.8-0.2-1.4-0.5-1.8
		c-0.3-0.4-0.8-0.5-1.5-0.5c-0.8,0-1.4,0.3-1.8,0.9c-0.4,0.6-0.7,1.4-0.7,2.3v5H470H469.2z M462.9,49.1v-9.4h0.7h0.8v1.6
		c0.1-0.2,0.3-0.5,0.4-0.7c0.6-0.8,1.3-1.2,2.2-1.2c0.1,0,0.3,0,0.4,0.1v1.6l-0.3,0c-0.9,0-1.5,0.3-2,0.8c-0.5,0.5-0.7,1.2-0.7,2.2
		v5h-0.8H462.9z M458.7,43.7L458.7,43.7c-0.1-0.9-0.3-1.5-0.7-2c-0.4-0.5-1.1-0.8-1.9-0.8c-0.8,0-1.5,0.3-2,0.9
		c-0.4,0.5-0.6,1.1-0.7,1.9H458.7z M456.1,49.3c-1.3,0-2.4-0.4-3.1-1.3c-0.8-0.9-1.1-2-1.1-3.5c0-1.6,0.4-2.8,1.2-3.8
		c0.8-0.9,1.9-1.4,3.2-1.4c1.2,0,2.2,0.5,3,1.4c0.8,0.9,1.1,2.1,1.1,3.6l0,0.6h-6.9c0.1,0.9,0.3,1.6,0.6,2.1
		c0.4,0.6,1.1,0.9,2.1,0.9c0.6,0,1.1-0.2,1.6-0.5c0.5-0.3,0.7-0.8,0.8-1.3h1.6c-0.2,1-0.7,1.8-1.4,2.4
		C458.1,49.1,457.2,49.3,456.1,49.3 M441.8,49.1V36.2h0.8h0.8v4.8l0.3-0.4c0.7-0.8,1.5-1.2,2.6-1.2c1,0,1.8,0.3,2.4,0.8
		c0.6,0.6,0.8,1.4,0.8,2.4v6.5h-0.8h-0.8V43c0-0.8-0.2-1.3-0.4-1.7c-0.3-0.3-0.8-0.5-1.5-0.5c-0.8,0-1.4,0.3-1.9,0.9
		c-0.5,0.6-0.7,1.4-0.7,2.3v5h-0.8H441.8z M439.8,49.1c-0.5,0.1-0.9,0.1-1.2,0.1c-0.7,0-1.2-0.1-1.5-0.5c-0.3-0.3-0.4-0.8-0.4-1.6
		V41h-1.3v-1.3h1.3v-2.6h1.6v2.6h1.5V41h-1.5v6.2c0,0.2,0.1,0.4,0.3,0.5c0.2,0.1,0.4,0.2,0.7,0.2h0.6V49.1z M427.5,39.7v6.1
		c0,0.8,0.2,1.4,0.5,1.7c0.3,0.3,0.8,0.5,1.5,0.5c0.8,0,1.4-0.3,1.8-0.9c0.4-0.6,0.7-1.4,0.7-2.4v-5h0.8h0.8v9.4h-0.7h-0.8v-1.4
		c-0.1,0.2-0.2,0.3-0.4,0.5c-0.7,0.8-1.5,1.2-2.5,1.2c-1.1,0-1.9-0.3-2.4-0.8c-0.5-0.5-0.8-1.3-0.8-2.4v-6.5h0.8H427.5z M419.2,48
		c0.8,0,1.5-0.3,2-1c0.5-0.7,0.7-1.5,0.7-2.6s-0.2-2-0.7-2.6c-0.5-0.6-1.1-1-2-1c-0.8,0-1.5,0.3-2,1c-0.5,0.7-0.7,1.5-0.7,2.6
		s0.2,2,0.7,2.6C417.7,47.6,418.3,48,419.2,48 M419.2,49.3c-1.3,0-2.4-0.5-3.2-1.4c-0.8-0.9-1.2-2.1-1.2-3.6c0-1.5,0.4-2.7,1.2-3.6
		c0.8-0.9,1.9-1.4,3.2-1.4c1.3,0,2.4,0.5,3.2,1.4c0.8,0.9,1.2,2.1,1.2,3.6c0,1.5-0.4,2.7-1.2,3.6C421.5,48.9,420.5,49.3,419.2,49.3
		 M410.9,39.9L410.9,39.9c-0.1-0.8-0.4-1.4-1-1.9c-0.6-0.4-1.3-0.7-2.3-0.7c-1,0-1.7,0.2-2.2,0.6c-0.5,0.4-0.8,0.9-0.8,1.7
		c0,0.5,0.2,0.9,0.5,1.1c0.3,0.2,1,0.5,2.1,0.7l2.3,0.5c1.2,0.3,2.1,0.7,2.6,1.3c0.5,0.6,0.8,1.3,0.8,2.4c0,1.2-0.4,2.1-1.3,2.8
		c-0.9,0.7-2.1,1-3.6,1c-1.7,0-3-0.4-4-1.2c-0.9-0.8-1.4-1.8-1.4-3.2V45h1.6c0,0.9,0.4,1.7,1,2.2c0.7,0.5,1.6,0.8,2.7,0.8
		c1.1,0,1.9-0.2,2.4-0.6c0.6-0.4,0.8-0.9,0.8-1.6c0-0.6-0.2-1.1-0.6-1.4c-0.4-0.3-1.1-0.6-2.2-0.8l-2.3-0.5
		c-1.1-0.3-1.9-0.6-2.4-1.1c-0.5-0.5-0.7-1.1-0.7-2c0-1.2,0.4-2.2,1.3-2.9c0.8-0.7,2-1.1,3.4-1.1c1.5,0,2.6,0.4,3.5,1.1
		c0.9,0.7,1.3,1.7,1.4,3H410.9z"/>
</g>
</svg>
